0
SECTION
2
HEADER
9
$INSUNITS
70
1
9
$ACADVER
1
AC1014
9
$HANDSEED
5
FFFF
0
ENDSEC
0
SECTION
2
TABLES
0
TABLE
2
VPORT
5
8
100
AcDbSymbolTable
0
ENDTAB
0
TABLE
2
LTYPE
5
5
100
AcDbSymbolTable
0
LTYPE
5
14
100
AcDbSymbolTableRecord
100
AcDbLinetypeTableRecord
2
BYBLOCK
70
0
0
LTYPE
5
15
100
AcDbSymbolTableRecord
100
AcDbLinetypeTableRecord
2
BYLAYER
70
0
0
ENDTAB
0
TABLE
2
LAYER
5
2
100
AcDbSymbolTable
70
2
0
LAYER
5
50
100
AcDbSymbolTableRecord
100
AcDbLayerTableRecord
2
0
70
0
6
CONTINUOUS
0
ENDTAB
0
TABLE
2
STYLE
5
3
100
AcDbSymbolTable
70
1
0
STYLE
5
11
100
AcDbSymbolTableRecord
100
AcDbTextStyleTableRecord
2
STANDARD
70
0
0
ENDTAB
0
TABLE
2
VIEW
5
6
100
AcDbSymbolTable
70
0
0
ENDTAB
0
TABLE
2
UCS
5
7
100
AcDbSymbolTable
70
0
0
ENDTAB
0
TABLE
2
APPID
5
9
100
AcDbSymbolTable
70
2
0
APPID
5
12
100
AcDbSymbolTableRecord
100
AcDbRegAppTableRecord
2
ACAD
70
0
0
ENDTAB
0
TABLE
2
DIMSTYLE
5
A
100
AcDbSymbolTable
70
1
0
ENDTAB
0
TABLE
2
BLOCK_RECORD
5
1
100
AcDbSymbolTable
70
1
0
BLOCK_RECORD
5
1F
100
AcDbSymbolTableRecord
100
AcDbBlockTableRecord
2
*MODEL_SPACE
0
BLOCK_RECORD
5
1B
100
AcDbSymbolTableRecord
100
AcDbBlockTableRecord
2
*PAPER_SPACE
0
ENDTAB
0
ENDSEC
0
SECTION
2
BLOCKS
0
BLOCK
5
20
100
AcDbEntity
100
AcDbBlockBegin
2
*MODEL_SPACE
0
ENDBLK
5
21
100
AcDbEntity
100
AcDbBlockEnd
0
BLOCK
5
1C
100
AcDbEntity
100
AcDbBlockBegin
2
*PAPER_SPACE
0
ENDBLK
5
1D
100
AcDbEntity
100
AcDbBlockEnd
0
ENDSEC
0
SECTION
2
ENTITIES
0
LINE
5
100
100
AcDbEntity
8
0
100
AcDbLine
10
-0.35590981526323684
20
1.296933226853672
30
0
11
-0.3559476508492197
21
1.2338297052773597
31
0
0
LINE
5
101
100
AcDbEntity
8
0
100
AcDbLine
10
-0.3559476508492197
20
1.2338297052773597
30
0
11
-0.43090981526323568
21
1.2338297052773597
31
0
0
LINE
5
102
100
AcDbEntity
8
0
100
AcDbLine
10
-0.43090981526323568
20
1.2338297052773597
30
0
11
-0.43090981526323568
21
1.2969332268536733
31
0
0
ELLIPSE
5
103
100
AcDbEntity
8
0
100
AcDbEllipse
10
-0.39840981526323571
20
0.27720322210733106
30
0
11
-1.4125146369640984
21
-2.4689289719602234e-16
31
0.0
40
0.72211643395416991
41
4.7353996221121859
42
7.8318560663032226
0
ARC
5
104
100
AcDbEntity
8
0
100
AcDbCircle
10
-0.65493311108642982
20
-0.74279681044534562
30
0
40
0.22527329582319416
210
0
220
-0
230
1
100
AcDbArc
50
0.063497163549831967
51
82.520108643573465
0
LINE
5
105
100
AcDbEntity
8
0
100
AcDbLine
10
-0.62560743336860625
20
-0.51944045294139041
30
0
11
-0.62590349585975036
21
-0.51940158127775515
31
0
0
LINE
5
106
100
AcDbEntity
8
0
100
AcDbLine
10
-0.62590349585975036
20
-0.51940158127775515
30
0
11
-0.98084150509213586
21
-0.46588182368436826
31
0
0
ARC
5
107
100
AcDbEntity
8
0
100
AcDbCircle
10
-0.82708138259681196
20
0.55384087746191468
30
0
40
1.0312500000013811
210
0
220
0
230
1
100
AcDbArc
50
230.92957133331214
51
261.42518414556577
0
LINE
5
108
100
AcDbEntity
8
0
100
AcDbLine
10
-1.4770526749721948
20
-0.24679254776508835
30
0
11
-1.6870180272846773
21
-0.076338196127312533
31
0
0
LINE
5
109
100
AcDbEntity
8
0
100
AcDbLine
10
-1.6870180272846773
20
-0.076338196127312533
30
0
11
-1.6894560665613421
21
-0.072945192905266631
31
0
0
ARC
5
110
100
AcDbEntity
8
0
100
AcDbCircle
10
-1.5253884526200265
20
0.044945436911609224
30
0
40
0.20203064753402181
210
0
220
-0
230
1
100
AcDbArc
50
85.604493680593734
51
215.6990993634758
0
ELLIPSE
5
111
100
AcDbEntity
8
0
100
AcDbEllipse
10
-0.39840981526323571
20
0.27720322210733106
30
0
11
-1.1125146369640986
21
-1.9445601107780141e-16
31
0.0
40
0.64718252563163214
41
3.1853566203506207
42
6.326005830297861
0
LINE
5
112
100
AcDbEntity
8
0
100
AcDbLine
10
0.71303960055441939
20
0.30870322210733037
30
0
11
0.88873316980101424
21
0.30870322210733114
31
0
0
LINE
5
113
100
AcDbEntity
8
0
100
AcDbLine
10
0.88873316980101424
20
0.30870322210733114
30
0
11
0.88873316980101424
21
0.24570322210733112
31
0
0
LINE
5
114
100
AcDbEntity
8
0
100
AcDbLine
10
0.88873316980101424
20
0.24570322210733112
30
0
11
0.71303960055441973
21
0.24570322210733112
31
0
0
ELLIPSE
5
115
100
AcDbEntity
8
0
100
AcDbEllipse
10
-0.39840981526323571
20
0.27720322210733106
30
0
11
-1.1125146369640986
21
-1.9445601107780141e-16
31
0.0
40
0.64718252563163214
41
0.13057909304200069
42
3.0978286868289637
0
LINE
5
116
100
AcDbEntity
8
0
100
AcDbLine
10
-1.5014532337856272
20
0.18345322210857146
30
0
11
-1.5084376914356292
21
0.18345322210857121
31
0
0
LINE
5
117
100
AcDbEntity
8
0
100
AcDbLine
10
-1.5084376914356292
20
0.18345322210857121
30
0
11
-1.5101401109685513
21
0.18364038879574704
31
0
0
ARC
5
118
100
AcDbEntity
8
0
100
AcDbCircle
10
-1.525388452620027
20
0.044945436911609377
30
0
40
0.13953064753402167
210
0
220
-0
230
1
100
AcDbArc
50
83.726008936424506
51
214.06843959827305
0
LINE
5
119
100
AcDbEntity
8
0
100
AcDbLine
10
-1.6409713194102025
20
-0.033217230045371852
30
0
11
-1.4376604754343274
21
-0.19826930987262234
31
0
0
ARC
5
120
100
AcDbEntity
8
0
100
AcDbCircle
10
-0.82708138259681108
20
0.55384087746191635
30
0
40
0.96875000000138278
210
0
220
0
230
1
100
AcDbArc
50
230.92957133331359
51
261.42518414556707
0
LINE
5
121
100
AcDbEntity
8
0
100
AcDbLine
10
-0.97152270978937827
20
-0.40408044785740749
30
0
11
-0.60912804199248782
21
-0.45872456674332507
31
0
0
ARC
5
122
100
AcDbEntity
8
0
100
AcDbCircle
10
-0.64492810788159016
20
-0.74426234895660692
30
0
40
0.28777329582319422
210
0
220
-0
230
1
100
AcDbArc
50
0.34149707864793355
51
82.85367784972955
0
ELLIPSE
5
123
100
AcDbEntity
8
0
100
AcDbEllipse
10
-0.38840981526323676
20
0.27720322210733139
30
0
11
-1.4125146369640984
21
-4.0371352445378099e-16
31
0.0
40
0.72211643395416991
41
1.5929217198209435
42
4.6893783386571934
0
LINE
5
124
100
AcDbEntity
8
0
100
AcDbLine
10
0.57623316980101391
20
0.3087032221073312
30
0
11
0.66286654764737452
21
0.3087032221073312
31
0
0
SPLINE
5
125
100
AcDbEntity
8
0
100
AcDbSpline
70
0
71
3
72
23
73
19
74
0
42
0.000000001
43
0.0000000001
44
0.0000000001
40
-3.0914224666530958
40
-3.0914224666530958
40
-3.0914224666530958
40
-3.0914224666530958
40
-2.5650844057264681
40
-2.5650844057264681
40
-2.5650844057264681
40
-1.9661343155507356
40
-1.9661343155507356
40
-1.9661343155507356
40
-1.3244320490224117
40
-1.3244320490224117
40
-1.3244320490224117
40
-0.73350245742650444
40
-0.73350245742650444
40
-0.73350245742650444
40
-0.17266546564275553
40
-0.17266546564275553
40
-0.17266546564275553
40
-0.050000694793356282
40
-0.050000694793356282
40
-0.050000694793356282
40
-0.050000694793356282
10
0.66286654764737452
20
0.30870322210733114
30
0
10
0.65420946029766069
20
0.41892061849308704
30
0
10
0.60019560139475492
20
0.5293715516912979
30
0
10
0.50196234850949595
20
0.62715053670549081
30
0
10
0.3901771290057075
20
0.73841881889743066
30
0
10
0.22118872321403071
20
0.83059421083353313
30
0
10
0.024397973407157911
20
0.88374244299863403
30
0
10
-0.18643941063234959
20
0.94068431779209483
30
0
10
-0.42780058055264641
20
0.95241993735171693
30
0
10
-0.65009136301883996
20
0.91624238939781322
30
0
10
-0.85479408599493911
20
0.88292727621767619
30
0
10
-1.042263818934313
20
0.8092731401897022
30
0
10
-1.1798264633566096
20
0.71048962282514005
30
0
10
-1.3103838440950843
20
0.61673657423108075
30
0
10
-1.3950478298148559
20
0.5018169161852184
30
0
10
-1.4264483776865282
20
0.38529373839506076
30
0
10
-1.43331622175825
20
0.35980809976624367
30
0
10
-1.4377476401335958
20
0.33415456061712484
30
0
10
-1.4397379906351635
20
0.30845322210733123
30
0
0
LINE
5
126
100
AcDbEntity
8
0
100
AcDbLine
10
-1.4397379906351635
20
0.30845322210733123
30
0
11
-1.3801010720764919
21
0.30845322210733123
31
0
0
ARC
5
127
100
AcDbEntity
8
0
100
AcDbCircle
10
-1.3441425849074957
20
0.27720322210733123
30
0
40
0.047640059818212573
210
0
220
0
230
1
100
AcDbArc
50
-139.00747561549008
51
139.00747561549014
0
LINE
5
128
100
AcDbEntity
8
0
100
AcDbLine
10
-1.3801010720764919
20
0.24595322210733117
30
0
11
-1.4397661353761648
21
0.24595322210733117
31
0
0
SPLINE
5
129
100
AcDbEntity
8
0
100
AcDbSpline
70
0
71
3
72
23
73
19
74
0
42
0.000000001
43
0.0000000001
44
0.0000000001
40
0.049382414937372526
40
0.049382414937372526
40
0.049382414937372526
40
0.049382414937372526
40
0.45515577997770051
40
0.45515577997770051
40
0.45515577997770051
40
1.0360626101367063
40
1.0360626101367063
40
1.0360626101367063
40
1.6861469090025281
40
1.6861469090025281
40
1.6861469090025281
40
2.3045140256833498
40
2.3045140256833498
40
2.3045140256833498
40
2.8829704769408977
40
2.8829704769408977
40
2.8829704769408977
40
3.0913761040326828
40
3.0913761040326828
40
3.0913761040326828
40
3.0913761040326828
10
-1.4397661353761648
20
0.24595322210733217
30
0
10
-1.4332553318700072
20
0.16093812578714609
30
0
10
-1.3999913212024473
20
0.076464770118391645
30
0
10
-1.3398060633292499
20
-0.0031193582720766876
30
0
10
-1.2536445988626341
20
-0.11705232612392072
30
0
10
-1.1109664400630441
20
-0.21838373310862758
30
0
10
-0.93388495595803867
20
-0.28626296710031973
30
0
10
-0.73571566880227979
20
-0.36222562056913798
30
0
10
-0.49586957259922082
20
-0.39550308589393623
30
0
10
-0.26485155060482152
20
-0.37818002457242117
30
0
10
-0.045104744827147207
20
-0.3617021439342345
30
0
10
0.16536990793325104
20
-0.29963483700122739
30
0
10
0.32632974473209625
20
-0.20571116101127199
30
0
10
0.47690090784540445
20
-0.11784950919213605
30
0
10
0.58290659363077379
20
-0.0032755798726115228
30
0
10
0.63156710260807358
20
0.1157666338335349
30
0
10
0.64909845499592078
20
0.15865502611248616
30
0
10
0.65950399393969661
20
0.20213713798793484
30
0
10
0.66288390766480509
20
0.24570322210734574
30
0
0
LINE
5
130
100
AcDbEntity
8
0
100
AcDbLine
10
0.66288390766480521
20
0.2457032221073458
30
0
11
0.57623316980101391
21
0.2457032221073312
31
0
0
LINE
5
131
100
AcDbEntity
8
0
100
AcDbLine
10
0.57623316980101391
20
0.2457032221073312
30
0
11
0.57623316980101391
21
0.3087032221073312
31
0
0
ELLIPSE
5
132
100
AcDbEntity
8
0
100
AcDbEllipse
10
-0.38840981526323631
20
0.27720322210733117
30
0
11
-0.8725146369640987
21
-1.525065021832246e-16
31
0.0
40
0.55013407479642595
41
0
42
6.2831853071795862
0
LINE
5
133
100
AcDbEntity
8
0
100
AcDbLine
10
-0.39840981526323571
20
-1.2595240399371999
30
0
11
-0.39840981526323571
21
1.7412630132141651
31
0
0
LINE
5
134
100
AcDbEntity
8
0
100
AcDbLine
10
1.4386075430701382
20
0.27720322210733117
30
0
11
-2.6000000829771746
21
0.27720322210733117
31
0
0
CIRCLE
5
135
100
AcDbEntity
8
0
100
AcDbCircle
10
-1.5585839794300995
20
0.069082981959121936
30
0
40
0.024999999999999998
210
0
220
0
230
1
0
CIRCLE
5
136
100
AcDbEntity
8
0
100
AcDbCircle
10
-1.1428141924233644
20
-0.31878279249682534
30
0
40
0.024999999999999998
210
0
220
0
230
1
0
CIRCLE
5
137
100
AcDbEntity
8
0
100
AcDbCircle
10
-0.39840981526323571
20
-0.49864934197914357
30
0
40
0.024999999999999998
210
0
220
0
230
1
0
CIRCLE
5
138
100
AcDbEntity
8
0
100
AcDbCircle
10
-0.55810005364324977
20
-0.66458269897918598
30
0
40
0.024999999999999998
210
0
220
0
230
1
0
CIRCLE
5
139
100
AcDbEntity
8
0
100
AcDbCircle
10
-1.0000000319142979
20
-0.55000001755286387
30
0
40
0.024999999999999998
210
0
220
0
230
1
0
CIRCLE
5
140
100
AcDbEntity
8
0
100
AcDbCircle
10
-1.4549984574279622
20
-0.32127230518599459
30
0
40
0.024999999999999998
210
0
220
0
230
1
0
CIRCLE
5
141
100
AcDbEntity
8
0
100
AcDbCircle
10
-1.7514790247718039
20
0.27720322210733117
30
0
40
0.024999999999999998
210
0
220
0
230
1
0
CIRCLE
5
142
100
AcDbEntity
8
0
100
AcDbCircle
10
-1.3024362516516539
20
0.11920641179821936
30
0
40
0.024999999999999998
210
0
220
0
230
1
0
CIRCLE
5
143
100
AcDbEntity
8
0
100
AcDbCircle
10
-1.0000000319142979
20
-0.15000000478714468
30
0
40
0.024999999999999998
210
0
220
0
230
1
0
CIRCLE
5
144
100
AcDbEntity
8
0
100
AcDbCircle
10
-0.39840981526323571
20
-0.30085977421111737
30
0
40
0.024999999999999998
210
0
220
0
230
1
0
CIRCLE
5
145
100
AcDbEntity
8
0
100
AcDbCircle
10
-0.68193331223182763
20
-0.2603016596998709
30
0
40
0.024999999999999998
210
0
220
0
230
1
0
CIRCLE
5
146
100
AcDbEntity
8
0
100
AcDbCircle
10
-0.23871957688322168
20
-0.66458269897918598
30
0
40
0.024999999999999998
210
0
220
0
230
1
0
CIRCLE
5
147
100
AcDbEntity
8
0
100
AcDbCircle
10
-0.11488631829464378
20
-0.26030165969987096
30
0
40
0.024999999999999998
210
0
220
0
230
1
0
CIRCLE
5
148
100
AcDbEntity
8
0
100
AcDbCircle
10
0.20318040138782648
20
-0.55000001755286387
30
0
40
0.024999999999999998
210
0
220
0
230
1
0
CIRCLE
5
149
100
AcDbEntity
8
0
100
AcDbCircle
10
0.34599456189689298
20
-0.3187827924968254
30
0
40
0.024999999999999998
210
0
220
0
230
1
0
CIRCLE
5
150
100
AcDbEntity
8
0
100
AcDbCircle
10
0.20318040138782648
20
-0.15000000478714468
30
0
40
0.024999999999999998
210
0
220
0
230
1
0
CIRCLE
5
151
100
AcDbEntity
8
0
100
AcDbCircle
10
0.65817882690149065
20
-0.32127230518599459
30
0
40
0.024999999999999998
210
0
220
0
230
1
0
CIRCLE
5
152
100
AcDbEntity
8
0
100
AcDbCircle
10
0.76176434890362799
20
0.069082981959121895
30
0
40
0.024999999999999998
210
0
220
0
230
1
0
CIRCLE
5
153
100
AcDbEntity
8
0
100
AcDbCircle
10
0.50561662112518235
20
0.11920641179821936
30
0
40
0.024999999999999998
210
0
220
0
230
1
0
CIRCLE
5
154
100
AcDbEntity
8
0
100
AcDbCircle
10
0.95465939424533264
20
0.27720322210733123
30
0
40
0.024999999999999998
210
0
220
0
230
1
0
CIRCLE
5
155
100
AcDbEntity
8
0
100
AcDbCircle
10
0.76176434890362799
20
0.48532346225554041
30
0
40
0.024999999999999998
210
0
220
0
230
1
0
CIRCLE
5
156
100
AcDbEntity
8
0
100
AcDbCircle
10
0.50561662112518235
20
0.43520003241644295
30
0
40
0.024999999999999998
210
0
220
0
230
1
0
CIRCLE
5
157
100
AcDbEntity
8
0
100
AcDbCircle
10
0.65817882690149065
20
0.87567874940065693
30
0
40
0.024999999999999998
210
0
220
0
230
1
0
CIRCLE
5
158
100
AcDbEntity
8
0
100
AcDbCircle
10
0.34599456189689298
20
0.87318923671148774
30
0
40
0.024999999999999998
210
0
220
0
230
1
0
CIRCLE
5
159
100
AcDbEntity
8
0
100
AcDbCircle
10
0.20318040138782648
20
0.70440644900180704
30
0
40
0.024999999999999998
210
0
220
0
230
1
0
CIRCLE
5
160
100
AcDbEntity
8
0
100
AcDbCircle
10
0.20318040138782648
20
1.104406461767526
30
0
40
0.024999999999999998
210
0
220
0
230
1
0
CIRCLE
5
161
100
AcDbEntity
8
0
100
AcDbCircle
10
-0.11488631829464378
20
0.8147081039145333
30
0
40
0.024999999999999998
210
0
220
0
230
1
0
CIRCLE
5
162
100
AcDbEntity
8
0
100
AcDbCircle
10
-0.23871957688322148
20
1.2189891431938484
30
0
40
0.024999999999999998
210
0
220
0
230
1
0
CIRCLE
5
163
100
AcDbEntity
8
0
100
AcDbCircle
10
-0.39840981526323588
20
1.0530557861938059
30
0
40
0.024999999999999998
210
0
220
0
230
1
0
CIRCLE
5
164
100
AcDbEntity
8
0
100
AcDbCircle
10
-0.39840981526323588
20
0.85526621842577966
30
0
40
0.024999999999999998
210
0
220
0
230
1
0
CIRCLE
5
165
100
AcDbEntity
8
0
100
AcDbCircle
10
-0.55810005364324955
20
1.2189891431938484
30
0
40
0.024999999999999998
210
0
220
0
230
1
0
CIRCLE
5
166
100
AcDbEntity
8
0
100
AcDbCircle
10
-0.68193331223182752
20
0.8147081039145333
30
0
40
0.024999999999999998
210
0
220
0
230
1
0
CIRCLE
5
167
100
AcDbEntity
8
0
100
AcDbCircle
10
-1.0000000319142976
20
1.104406461767526
30
0
40
0.024999999999999998
210
0
220
0
230
1
0
CIRCLE
5
168
100
AcDbEntity
8
0
100
AcDbCircle
10
-1.0000000319142976
20
0.70440644900180704
30
0
40
0.024999999999999998
210
0
220
0
230
1
0
CIRCLE
5
169
100
AcDbEntity
8
0
100
AcDbCircle
10
-1.1428141924233644
20
0.87318923671148774
30
0
40
0.024999999999999998
210
0
220
0
230
1
0
CIRCLE
5
170
100
AcDbEntity
8
0
100
AcDbCircle
10
-1.4549984574279624
20
0.87567874940065704
30
0
40
0.024999999999999998
210
0
220
0
230
1
0
CIRCLE
5
171
100
AcDbEntity
8
0
100
AcDbCircle
10
-1.3024362516516537
20
0.43520003241644295
30
0
40
0.024999999999999998
210
0
220
0
230
1
0
CIRCLE
5
172
100
AcDbEntity
8
0
100
AcDbCircle
10
-1.5585839794300995
20
0.48532346225554041
30
0
40
0.024999999999999998
210
0
220
0
230
1
0
ENDSEC
0
SECTION
2
OBJECTS
0
DICTIONARY
5
C
100
AcDbDictionary
3
ACAD_GROUP
350
D
3
ACAD_MLINESTYLE
350
17
0
DICTIONARY
5
D
100
AcDbDictionary
0
DICTIONARY
5
1A
330
C
100
AcDbDictionary
0
DICTIONARY
5
17
100
AcDbDictionary
0
ENDSEC
0
EOF
