0
SECTION
2
HEADER
9
$INSUNITS
70
1
9
$ACADVER
1
AC1014
9
$HANDSEED
5
FFFF
0
ENDSEC
0
SECTION
2
TABLES
0
TABLE
2
VPORT
5
8
100
AcDbSymbolTable
0
ENDTAB
0
TABLE
2
LTYPE
5
5
100
AcDbSymbolTable
0
LTYPE
5
14
100
AcDbSymbolTableRecord
100
AcDbLinetypeTableRecord
2
BYBLOCK
70
0
0
LTYPE
5
15
100
AcDbSymbolTableRecord
100
AcDbLinetypeTableRecord
2
BYLAYER
70
0
0
ENDTAB
0
TABLE
2
LAYER
5
2
100
AcDbSymbolTable
70
2
0
LAYER
5
50
100
AcDbSymbolTableRecord
100
AcDbLayerTableRecord
2
0
70
0
6
CONTINUOUS
0
ENDTAB
0
TABLE
2
STYLE
5
3
100
AcDbSymbolTable
70
1
0
STYLE
5
11
100
AcDbSymbolTableRecord
100
AcDbTextStyleTableRecord
2
STANDARD
70
0
0
ENDTAB
0
TABLE
2
VIEW
5
6
100
AcDbSymbolTable
70
0
0
ENDTAB
0
TABLE
2
UCS
5
7
100
AcDbSymbolTable
70
0
0
ENDTAB
0
TABLE
2
APPID
5
9
100
AcDbSymbolTable
70
2
0
APPID
5
12
100
AcDbSymbolTableRecord
100
AcDbRegAppTableRecord
2
ACAD
70
0
0
ENDTAB
0
TABLE
2
DIMSTYLE
5
A
100
AcDbSymbolTable
70
1
0
ENDTAB
0
TABLE
2
BLOCK_RECORD
5
1
100
AcDbSymbolTable
70
1
0
BLOCK_RECORD
5
1F
100
AcDbSymbolTableRecord
100
AcDbBlockTableRecord
2
*MODEL_SPACE
0
BLOCK_RECORD
5
1B
100
AcDbSymbolTableRecord
100
AcDbBlockTableRecord
2
*PAPER_SPACE
0
ENDTAB
0
ENDSEC
0
SECTION
2
BLOCKS
0
BLOCK
5
20
100
AcDbEntity
100
AcDbBlockBegin
2
*MODEL_SPACE
0
ENDBLK
5
21
100
AcDbEntity
100
AcDbBlockEnd
0
BLOCK
5
1C
100
AcDbEntity
100
AcDbBlockBegin
2
*PAPER_SPACE
0
ENDBLK
5
1D
100
AcDbEntity
100
AcDbBlockEnd
0
ENDSEC
0
SECTION
2
ENTITIES
0
LINE
5
100
100
AcDbEntity
8
0
100
AcDbLine
10
-0.28029957904276309
20
-0.7993891847064124
30
0
11
-0.28029957904276331
21
-0.98400370721100572
31
0
0
LINE
5
101
100
AcDbEntity
8
0
100
AcDbLine
10
-0.28029957904276331
20
-0.98400370721100572
30
0
11
-0.51652005148370805
21
-0.98400370721100572
31
0
0
LINE
5
102
100
AcDbEntity
8
0
100
AcDbLine
10
-0.51652005148370805
20
-0.98400370721100572
30
0
11
-0.51652005148370805
21
-0.79938918470641263
31
0
0
LINE
5
103
100
AcDbEntity
8
0
100
AcDbLine
10
-0.62560743336860625
20
-0.51944045294139041
30
0
11
-0.62590349585975036
21
-0.51940158127775515
31
0
0
LWPOLYLINE
5
104
100
AcDbEntity
8
0
100
AcDbPolyline
90
8
70
1
43
0.0
10
-1.4770526749721953
20
-0.24679254776508835
42
0.13385312798539745
10
-0.98084150509213586
20
-0.46588182368436826
10
-0.80750206376642841
20
-0.49201902127892361
42
0.99999999999999989
10
-0.79818326846369314
20
-0.4302176454519589
10
-0.97152270978937794
20
-0.40408044785740693
42
-0.13385312798539717
10
-1.4376604754343274
20
-0.19826930987262234
10
-1.5185031647436344
20
-0.13263949028999014
42
0.99999999999999989
10
-1.5578953642814843
20
-0.18116272818247031
0
LINE
5
105
100
AcDbEntity
8
0
100
AcDbLine
10
-1.6870180272846773
20
-0.076338196127312533
30
0
11
-1.6894560665613421
21
-0.072945192905266631
31
0
0
ARC
5
106
100
AcDbEntity
8
0
100
AcDbCircle
10
-1.5253884526200265
20
0.044945436911609224
30
0
40
0.20203064753402172
210
0
220
-0
230
1
100
AcDbArc
50
85.604493680593734
51
215.6990993634758
0
LINE
5
107
100
AcDbEntity
8
0
100
AcDbLine
10
0.71303960055441917
20
0.30870322210733009
30
0
11
0.88873316980101424
21
0.30870322210733114
31
0
0
LINE
5
108
100
AcDbEntity
8
0
100
AcDbLine
10
0.88873316980101424
20
0.30870322210733114
30
0
11
0.88873316980101424
21
0.24570322210733112
31
0
0
LINE
5
109
100
AcDbEntity
8
0
100
AcDbLine
10
0.88873316980101424
20
0.24570322210733112
30
0
11
0.71303960055441973
21
0.24570322210733112
31
0
0
LINE
5
110
100
AcDbEntity
8
0
100
AcDbLine
10
-1.5014532337856272
20
0.18345322210857151
30
0
11
-1.5084376914356292
21
0.18345322210857121
31
0
0
LINE
5
111
100
AcDbEntity
8
0
100
AcDbLine
10
-1.5084376914356292
20
0.18345322210857121
30
0
11
-1.5101401109685513
21
0.18364038879574704
31
0
0
ARC
5
112
100
AcDbEntity
8
0
100
AcDbCircle
10
-1.525388452620027
20
0.044945436911609377
30
0
40
0.13953064753402167
210
0
220
-0
230
1
100
AcDbArc
50
83.726008936424506
51
214.06843959827307
0
ARC
5
113
100
AcDbEntity
8
0
100
AcDbCircle
10
-0.6549331104370868
20
-0.74279755782365608
30
0
40
0.28777329582319422
210
0
220
-0
230
1
100
AcDbArc
50
0.049854556396345145
51
82.450761712859816
0
LINE
5
114
100
AcDbEntity
8
0
100
AcDbLine
10
-0.36590981526323635
20
1.296933226853672
30
0
11
-0.36585892698811612
21
1.1525789091144907
31
0
0
LINE
5
115
100
AcDbEntity
8
0
100
AcDbLine
10
-0.36585892698811612
20
1.1525789091144907
30
0
11
-0.43090981526323568
21
1.1525789091144907
31
0
0
LINE
5
116
100
AcDbEntity
8
0
100
AcDbLine
10
-0.43090981526323568
20
1.1525789091144907
30
0
11
-0.43090981526323568
21
1.2969332268536733
31
0
0
ARC
5
117
100
AcDbEntity
8
0
100
AcDbCircle
10
-0.65493311108642982
20
-0.74279681044534562
30
0
40
0.22527329582319416
210
0
220
-0
230
1
100
AcDbArc
50
0.063497163549831967
51
82.520108643573465
0
LINE
5
118
100
AcDbEntity
8
0
100
AcDbLine
10
0.57623316980101391
20
0.2457032221073312
30
0
11
0.57623316980101391
21
0.3087032221073312
31
0
0
LINE
5
119
100
AcDbEntity
8
0
100
AcDbLine
10
0.57623316980101391
20
0.3087032221073312
30
0
11
0.66286654764737452
21
0.3087032221073312
31
0
0
LINE
5
120
100
AcDbEntity
8
0
100
AcDbLine
10
-1.4397379906351635
20
0.30845322210733123
30
0
11
-1.3358250337546043
21
0.30845322210733123
31
0
0
LINE
5
121
100
AcDbEntity
8
0
100
AcDbLine
10
-1.3358250337546043
20
0.24595322210733117
30
0
11
-1.4397661353761648
21
0.24595322210733117
31
0
0
LINE
5
122
100
AcDbEntity
8
0
100
AcDbLine
10
0.66288390766480521
20
0.2457032221073458
30
0
11
0.57623316980101391
21
0.2457032221073312
31
0
0
ELLIPSE
5
123
100
AcDbEntity
8
0
100
AcDbEllipse
10
-0.39840981526323571
20
0.27720322210733106
30
0
11
-0.8725146369640987
21
-2.0094079414722464e-16
31
0.0
40
0.55013407479642595
41
0
42
6.2831853071795862
0
LINE
5
124
100
AcDbEntity
8
0
100
AcDbLine
10
-1.3358250337546043
20
0.30845322210733123
30
0
11
-1.3358250337546043
21
0.24595322210733117
31
0
0
ARC
5
125
100
AcDbEntity
8
0
100
AcDbCircle
10
-0.35013342977467043
20
-0.41220156068629088
30
0
40
0.029917038276158481
210
0
220
-0
230
1
100
AcDbArc
50
89.999999999291646
51
269.99999999929162
0
ARC
5
126
100
AcDbEntity
8
0
100
AcDbCircle
10
-0.50761374396495418
20
-0.40874902496416099
30
0
40
0.030570682733081202
210
0
220
0
230
1
100
AcDbArc
50
-90.000001444481228
51
89.999998555518587
0
LINE
5
127
100
AcDbEntity
8
0
100
AcDbLine
10
-1.6801586408609617
20
-0.081906792339069043
30
0
11
-1.6870180272846773
21
-0.076338196127312533
31
0
0
LINE
5
128
100
AcDbEntity
8
0
100
AcDbLine
10
-1.6409713194102022
20
-0.033217230045371832
30
0
11
-1.640766441323112
21
-0.033383554446589095
31
0
0
ARC
5
129
100
AcDbEntity
8
0
100
AcDbCircle
10
-1.6604625410920371
20
-0.057645173392829069
30
0
40
0.031249999999999736
210
0
220
0
230
1
100
AcDbArc
50
-129.07042866668826
51
50.929571333311124
0
LINE
5
130
100
AcDbEntity
8
0
100
AcDbLine
10
-0.62590349585975036
20
-0.51940158127775515
30
0
11
-0.65178206168273822
21
-0.51549945038817768
31
0
0
LINE
5
131
100
AcDbEntity
8
0
100
AcDbLine
10
-0.64246326638000295
20
-0.45369807456121303
30
0
11
-0.61712598372621308
21
-0.45751858741256596
31
0
0
ARC
5
132
100
AcDbEntity
8
0
100
AcDbCircle
10
-0.64712266403137053
20
-0.48459876247469535
30
0
40
0.031250000000000076
210
0
220
-0
230
1
100
AcDbArc
50
81.425184145565083
51
261.42518414556486
0
ELLIPSE
5
133
100
AcDbEntity
8
0
100
AcDbEllipse
10
-0.39840981526323571
20
0.27720322210733106
30
0
11
-1.1125146369640984
21
-1.9445601107780149e-16
31
0.0
40
0.64718252563163225
41
0.13057909304200066
42
0.23475609952831028
0
ELLIPSE
5
134
100
AcDbEntity
8
0
100
AcDbEllipse
10
-0.39840981526323571
20
0.27720322210733106
30
0
11
-1.1125146369640984
21
-1.9445601107780149e-16
31
0.0
40
0.64718252563163225
41
0.44567935504186978
42
1.4724784626471867
0
SPLINE
5
135
100
AcDbEntity
8
0
100
AcDbSpline
70
4
71
3
72
8
73
4
74
0
42
0.000000001
43
0.0000000001
44
0.0000000001
40
0.049382414937372526
40
0.049382414937372526
40
0.049382414937372526
40
0.049382414937372526
40
0.20358441764896643
40
0.20358441764896643
40
0.20358441764896643
40
0.20358441764896643
41
1
41
1
41
1
41
1
10
-1.4397661353761648
20
0.24595322210733117
30
0
10
-1.4372918996909041
20
0.21364578341679835
30
0
10
-1.4309540938046956
20
0.18141658031966121
30
0
10
-1.4207434955667266
20
0.1495042058103051
30
0
0
SPLINE
5
136
100
AcDbEntity
8
0
100
AcDbSpline
70
4
71
3
72
14
73
10
74
0
42
0.000000001
43
0.0000000001
44
0.0000000001
40
0.44202276785466182
40
0.44202276785466182
40
0.44202276785466182
40
0.44202276785466182
40
0.45515577997770051
40
0.45515577997770051
40
0.45515577997770051
40
1.0360626101367063
40
1.0360626101367063
40
1.0360626101367063
40
1.4594481297350184
40
1.4594481297350184
40
1.4594481297350184
40
1.4594481297350184
41
1
41
1
41
1
41
1
41
1
41
1
41
1
41
1
41
1
41
1
10
-1.345565225075128
20
0.0046231724179870027
30
0
10
-1.3436737011940965
20
0.002037305562468584
30
0
10
-1.3417539825111764
20
-0.00054358713231837251
30
0
10
-1.3398060633292499
20
-0.0031193582720766876
30
0
10
-1.2536445988626341
20
-0.11705232612392072
30
0
10
-1.1109664400630441
20
-0.21838373310862758
30
0
10
-0.93388495595803867
20
-0.28626296710031973
30
0
10
-0.80482168407583987
20
-0.33573576249789067
30
0
10
-0.65808065733135801
20
-0.36710308606329617
30
0
10
-0.50761374319423802
20
-0.37817834223107982
30
0
0
SPLINE
5
137
100
AcDbEntity
8
0
100
AcDbSpline
70
4
71
3
72
14
73
10
74
0
42
0.000000001
43
0.0000000001
44
0.0000000001
40
-3.0914224666530958
40
-3.0914224666530958
40
-3.0914224666530958
40
-3.0914224666530958
40
-2.5650844057264681
40
-2.5650844057264681
40
-2.5650844057264681
40
-1.9661343155507356
40
-1.9661343155507356
40
-1.9661343155507356
40
-1.6271817868497345
40
-1.6271817868497345
40
-1.6271817868497345
40
-1.6271817868497345
41
1
41
1
41
1
41
1
41
1
41
1
41
1
41
1
41
1
41
1
10
0.66286654764737452
20
0.3087032221073312
30
0
10
0.65420946029766069
20
0.41892061849308704
30
0
10
0.60019560139475492
20
0.5293715516912979
30
0
10
0.50196234850949595
20
0.62715053670549081
30
0
10
0.3901771290057075
20
0.73841881889743066
30
0
10
0.22118872321403071
20
0.83059421083353313
30
0
10
0.024397973407157911
20
0.88374244299863403
30
0
10
-0.08696810427793758
20
0.91381961968469672
30
0
10
-0.20685044385484755
20
0.93128406509872297
30
0
10
-0.32794023703230729
20
0.93573685530301731
30
0
0
SPLINE
5
138
100
AcDbEntity
8
0
100
AcDbSpline
70
4
71
3
72
17
73
13
74
0
42
0.000000001
43
0.0000000001
44
0.0000000001
40
-1.480322842191087
40
-1.480322842191087
40
-1.480322842191087
40
-1.480322842191087
40
-1.3244320490224117
40
-1.3244320490224117
40
-1.3244320490224117
40
-0.73350245742650444
40
-0.73350245742650444
40
-0.73350245742650444
40
-0.17266546564275553
40
-0.17266546564275553
40
-0.17266546564275553
40
-0.050000694793356282
40
-0.050000694793356282
40
-0.050000694793356282
40
-0.050000694793356282
41
1
41
1
41
1
41
1
41
1
41
1
41
1
41
1
41
1
41
1
41
1
41
1
41
1
10
-0.48542055164229736
20
0.93416437352752979
30
0
10
-0.54096226677279435
20
0.93099217565261239
30
0
10
-0.59608954909317446
20
0.92503111734783816
30
0
10
-0.65009136301883996
20
0.91624238939781322
30
0
10
-0.85479408599493911
20
0.88292727621767619
30
0
10
-1.042263818934313
20
0.8092731401897022
30
0
10
-1.1798264633566096
20
0.71048962282514005
30
0
10
-1.3103838440950843
20
0.61673657423108075
30
0
10
-1.3950478298148559
20
0.5018169161852184
30
0
10
-1.4264483776865282
20
0.38529373839506076
30
0
10
-1.43331622175825
20
0.35980809976624367
30
0
10
-1.4377476401335958
20
0.33415456061712484
30
0
10
-1.4397379906351635
20
0.30845322210733123
30
0
0
ELLIPSE
5
139
100
AcDbEntity
8
0
100
AcDbEllipse
10
-0.39840981526323571
20
0.27720322210733106
30
0
11
-1.1125146369640984
21
-1.9445601107780144e-16
31
0.0
40
0.64718252563163225
41
3.1853566203506203
42
4.649003937883883
0
ELLIPSE
5
140
100
AcDbEntity
8
0
100
AcDbEllipse
10
-0.39840981526323571
20
0.27720322210733106
30
0
11
-1.1125146369640984
21
-1.9445601107780144e-16
31
0.0
40
0.64718252563163225
41
4.7906798050347943
42
6.326005830297861
0
ELLIPSE
5
141
100
AcDbEntity
8
0
100
AcDbEllipse
10
-0.39840981526323571
20
0.27720322210733106
30
0
11
1.4879940722353093
21
-5.9079706067924303e-17
31
0.0
40
0.72580936619259051
41
4.7918480429639434
42
5.6052816447130409
0
ELLIPSE
5
142
100
AcDbEntity
8
0
100
AcDbEllipse
10
-0.39840981526323571
20
0.27720322210733106
30
0
11
1.4879940722353093
21
-5.9079706067924303e-17
31
0.0
40
0.72580936619259051
41
5.7339538790948748
42
5.8845418267380225
0
ELLIPSE
5
143
100
AcDbEntity
8
0
100
AcDbEllipse
10
-0.39840981526323599
20
0.277203222107331
30
0
11
-1.4125146369640984
21
-8.7417540622705694e-16
31
0.0
40
0.72211643395416991
41
1.5929217198209435
42
2.46994722182649
0
ELLIPSE
5
144
100
AcDbEntity
8
0
100
AcDbEllipse
10
-0.39840981526323571
20
0.27720322210733106
30
0
11
1.4879940722353093
21
-5.9079706067924303e-17
31
0.0
40
0.72580936619259051
41
4.4696870663725159
42
4.6329299178054359
0
ELLIPSE
5
145
100
AcDbEntity
8
0
100
AcDbEllipse
10
-0.39840981526323571
20
0.27720322210733106
30
0
11
-1.4125146369640984
21
-2.4689289719602234e-16
31
0.0
40
0.72211643395416991
41
1.3223472020393494
42
1.5486707591236368
0
ELLIPSE
5
146
100
AcDbEntity
8
0
100
AcDbEllipse
10
-0.39840981526323571
20
0.27720322210733106
30
0
11
1.4879940722353093
21
-5.9079706067924303e-17
31
0.0
40
0.72580936619259051
41
3.2044063556594007
42
4.3614660788956856
0
ELLIPSE
5
147
100
AcDbEntity
8
0
100
AcDbEllipse
10
-0.39840981526323571
20
0.27720322210733106
30
0
11
-1.4125146369640984
21
-2.4689289719602234e-16
31
0.0
40
0.72211643395416991
41
0.066513931941095839
42
1.2081365696837547
0
ELLIPSE
5
148
100
AcDbEntity
8
0
100
AcDbEllipse
10
-0.39840981526323571
20
0.27720322210733106
30
0
11
1.4879940722353093
21
-5.9079706067924303e-17
31
0.0
40
0.72580936619259051
41
1.7861926294639607
42
3.058454213741348
0
ELLIPSE
5
149
100
AcDbEntity
8
0
100
AcDbEllipse
10
-0.39840981526323571
20
0.27720322210733106
30
0
11
-1.4125146369640984
21
-2.4689289719602234e-16
31
0.0
40
0.72211643395416991
41
4.7353996221121859
42
4.8228213207268125
0
ELLIPSE
5
150
100
AcDbEntity
8
0
100
AcDbEllipse
10
-0.39840981526323571
20
0.27720322210733106
30
0
11
-1.4125146369640984
21
-2.4689289719602234e-16
31
0.0
40
0.72211643395416991
41
4.9351367316313368
42
6.1951440507516944
0
ELLIPSE
5
151
100
AcDbEntity
8
0
100
AcDbEllipse
10
-0.39840981526323571
20
0.27720322210733106
30
0
11
1.4879940722353093
21
-5.9079706067924303e-17
31
0.0
40
0.72580936619259051
41
0.14456115687883117
42
0.3254808099874551
0
ELLIPSE
5
152
100
AcDbEntity
8
0
100
AcDbEllipse
10
-0.39840981526323571
20
0.27720322210733106
30
0
11
1.4879940722353093
21
-5.9079706067924303e-17
31
0.0
40
0.72580936619259051
41
0.46283028216626815
42
1.6796307068647283
0
ELLIPSE
5
153
100
AcDbEntity
8
0
100
AcDbEllipse
10
-0.39840981526323599
20
0.277203222107331
30
0
11
-1.4125146369640984
21
-8.7417540622705694e-16
31
0.0
40
0.72211643395416991
41
2.6062135452796276
42
3.4452590924946453
0
ELLIPSE
5
154
100
AcDbEntity
8
0
100
AcDbEllipse
10
-0.39840981526323599
20
0.277203222107331
30
0
11
-1.4125146369640984
21
-8.7417540622705694e-16
31
0.0
40
0.72211643395416991
41
3.5914217711606855
42
4.6893783386571934
0
ARC
5
155
100
AcDbEntity
8
0
100
AcDbCircle
10
0.98046883062122747
20
0.60237665911635685
30
0
40
0.03697812223310136
210
0
220
-0
230
1
100
AcDbArc
50
16.114878685552373
51
213.05985219100594
0
ARC
5
156
100
AcDbEntity
8
0
100
AcDbCircle
10
0.90331292844585032
20
0.74005768174285635
30
0
40
0.035464764980439094
210
0
220
0
230
1
100
AcDbArc
50
-146.94014780899374
51
36.076915907984478
0
ARC
5
157
100
AcDbEntity
8
0
100
AcDbCircle
10
-0.55705773321840368
20
1.3209016391248949
30
0
40
0.030059497764978821
210
0
220
0
230
1
100
AcDbArc
50
95.684633255359785
51
275.68463325535976
0
ARC
5
158
100
AcDbEntity
8
0
100
AcDbCircle
10
-0.71344724639658885
20
1.3021248130746417
30
0
40
0.03027041613158634
210
0
220
0
230
1
100
AcDbArc
50
-84.315366744640627
51
102.46949386071333
0
ARC
5
159
100
AcDbEntity
8
0
100
AcDbCircle
10
-0.32794023702641079
20
0.96574711759036147
30
0
40
0.030010262287344158
210
0
220
-0
230
1
100
AcDbArc
50
89.999999988742374
51
269.99999998874239
0
ARC
5
160
100
AcDbEntity
8
0
100
AcDbCircle
10
-0.48542055181172078
20
0.96458107590129716
30
0
40
0.03041670237376732
210
0
220
0
230
1
100
AcDbArc
50
-89.999999680857997
51
90.000000319141876
0
ARC
5
161
100
AcDbEntity
8
0
100
AcDbCircle
10
-1.8456352077585052
20
0.20940902326339622
30
0
40
0.037834158976764579
210
0
220
0
230
1
100
AcDbArc
50
0
51
180
0
ARC
5
162
100
AcDbEntity
8
0
100
AcDbCircle
10
-1.8433589712900675
20
0.36688933822402608
30
0
40
0.03790537044938521
210
0
220
0
230
1
100
AcDbArc
50
-193.75602903001112
51
0
0
ARC
5
163
100
AcDbEntity
8
0
100
AcDbCircle
10
-1.3739085242833691
20
-0.01427236040328465
30
0
40
0.034064406212462067
210
0
220
-0
230
1
100
AcDbArc
50
33.690067548060462
51
219.47730081810622
0
ARC
5
164
100
AcDbEntity
8
0
100
AcDbCircle
10
-1.4505764491583237
20
0.1296156286951311
30
0
40
0.035854716532694265
210
0
220
0
230
1
100
AcDbArc
50
-175.10708637249218
51
33.689989593839819
0
ARC
5
165
100
AcDbEntity
8
0
100
AcDbCircle
10
-0.7508811969483481
20
-0.7413110105302243
30
0
40
0.030271902090148437
210
0
220
-0
230
1
100
AcDbArc
50
78.97642462796388
51
260.2382252249576
0
LWPOLYLINE
5
166
100
AcDbEntity
8
0
100
AcDbPolyline
90
1
70
1
43
0.0
10
-0.75601381683519164
20
-0.77114436362250194
0
ARC
5
167
100
AcDbEntity
8
0
100
AcDbCircle
10
-0.90472309616343816
20
-0.70671481008497594
30
0
40
0.030706989411742637
210
0
220
0
230
1
100
AcDbArc
50
249.83107565564674
51
249.83486711064447
0
ARC
5
168
100
AcDbEntity
8
0
100
AcDbCircle
10
-0.90472309616343816
20
-0.70671481008497594
30
0
40
0.030706918513738635
210
0
220
0
230
1
100
AcDbArc
50
-99.761774775042085
51
80.238225224957503
0
ARC
5
169
100
AcDbEntity
8
0
100
AcDbCircle
10
0.84359905821949943
20
-0.26487923349073716
30
0
40
0.034756297634674277
210
0
220
0
230
1
100
AcDbArc
50
139.88188298426627
51
321.34019174590992
0
ARC
5
170
100
AcDbEntity
8
0
100
AcDbCircle
10
0.73393881202611122
20
-0.37882424086462063
30
0
40
0.034107961848321378
210
0
220
0
230
1
100
AcDbArc
50
-57.802109871055904
51
141.34019174590995
0
ELLIPSE
5
171
100
AcDbEntity
8
0
100
AcDbEllipse
10
-0.39840981526323571
20
0.27720322210733106
30
0
11
-1.1125146369640984
21
-1.9445601107780149e-16
31
0.0
40
0.64718252563163225
41
1.6142038899354823
42
2.7188274163080095
0
ELLIPSE
5
172
100
AcDbEntity
8
0
100
AcDbEllipse
10
-0.39840981526323571
20
0.27720322210733106
30
0
11
-1.1125146369640984
21
-1.9445601107780149e-16
31
0.0
40
0.64718252563163225
41
2.9244148421646572
42
3.0978286868289637
0
SPLINE
5
173
100
AcDbEntity
8
0
100
AcDbSpline
70
4
71
3
72
14
73
10
74
0
42
0.000000001
43
0.0000000001
44
0.0000000001
40
1.60643870360312
40
1.60643870360312
40
1.60643870360312
40
1.60643870360312
40
1.6861469090025281
40
1.6861469090025281
40
1.6861469090025281
40
2.3045140256833498
40
2.3045140256833498
40
2.3045140256833498
40
2.7041622468651947
40
2.7041622468651947
40
2.7041622468651947
40
2.7041622468651947
41
1
41
1
41
1
41
1
41
1
41
1
41
1
41
1
41
1
41
1
10
-0.35013342977430056
20
-0.38228452241013239
30
0
10
-0.32163548219007476
20
-0.3816673440679299
30
0
10
-0.29317715696113689
20
-0.38030404161508913
30
0
10
-0.26485155060482152
20
-0.37818002457242117
30
0
10
-0.045104744827147207
20
-0.3617021439342345
30
0
10
0.16536990793325104
20
-0.29963483700122739
30
0
10
0.32632974473209625
20
-0.20571116101127199
30
0
10
0.43035745048020441
20
-0.14500866079145427
30
0
10
0.51311292754235616
20
-0.07155571538893099
30
0
10
0.57038171251078051
20
0.007312096205067696
30
0
0
SPLINE
5
174
100
AcDbEntity
8
0
100
AcDbSpline
70
4
71
3
72
8
73
4
74
0
42
0.000000001
43
0.0000000001
44
0.0000000001
40
2.9335426529468647
40
2.9335426529468647
40
2.9335426529468647
40
2.9335426529468647
40
3.0913761040326828
40
3.0913761040326828
40
3.0913761040326828
40
3.0913761040326828
41
1
41
1
41
1
41
1
10
0.64307231609896764
20
0.14708641328194122
30
0
10
0.6537348140693876
20
0.17976290402798675
30
0
10
0.66032417137049082
20
0.21270898148718587
30
0
10
0.66288390766480521
20
0.2457032221073458
30
0
0
ARC
5
175
100
AcDbEntity
8
0
100
AcDbCircle
10
0.66552177703187854
20
0.13457396141536596
30
0
40
0.025700967839590298
210
0
220
0
230
1
100
AcDbArc
50
150.86641354067328
51
352.56710975597076
0
ARC
5
176
100
AcDbEntity
8
0
100
AcDbCircle
10
0.59326920262173377
20
-0.0054445149616687005
30
0
40
0.026202454116711273
210
0
220
0
230
1
100
AcDbArc
50
-40.960375844584675
51
150.86637732486727
0
ENDSEC
0
SECTION
2
OBJECTS
0
DICTIONARY
5
C
100
AcDbDictionary
3
ACAD_GROUP
350
D
3
ACAD_MLINESTYLE
350
17
0
DICTIONARY
5
D
100
AcDbDictionary
0
DICTIONARY
5
1A
330
C
100
AcDbDictionary
0
DICTIONARY
5
17
100
AcDbDictionary
0
ENDSEC
0
EOF
