0
SECTION
2
HEADER
9
$INSUNITS
70
1
9
$ACADVER
1
AC1014
9
$HANDSEED
5
FFFF
0
ENDSEC
0
SECTION
2
TABLES
0
TABLE
2
VPORT
5
8
100
AcDbSymbolTable
0
ENDTAB
0
TABLE
2
LTYPE
5
5
100
AcDbSymbolTable
0
LTYPE
5
14
100
AcDbSymbolTableRecord
100
AcDbLinetypeTableRecord
2
BYBLOCK
70
0
0
LTYPE
5
15
100
AcDbSymbolTableRecord
100
AcDbLinetypeTableRecord
2
BYLAYER
70
0
0
ENDTAB
0
TABLE
2
LAYER
5
2
100
AcDbSymbolTable
70
2
0
LAYER
5
50
100
AcDbSymbolTableRecord
100
AcDbLayerTableRecord
2
0
70
0
6
CONTINUOUS
0
ENDTAB
0
TABLE
2
STYLE
5
3
100
AcDbSymbolTable
70
1
0
STYLE
5
11
100
AcDbSymbolTableRecord
100
AcDbTextStyleTableRecord
2
STANDARD
70
0
0
ENDTAB
0
TABLE
2
VIEW
5
6
100
AcDbSymbolTable
70
0
0
ENDTAB
0
TABLE
2
UCS
5
7
100
AcDbSymbolTable
70
0
0
ENDTAB
0
TABLE
2
APPID
5
9
100
AcDbSymbolTable
70
2
0
APPID
5
12
100
AcDbSymbolTableRecord
100
AcDbRegAppTableRecord
2
ACAD
70
0
0
ENDTAB
0
TABLE
2
DIMSTYLE
5
A
100
AcDbSymbolTable
70
1
0
ENDTAB
0
TABLE
2
BLOCK_RECORD
5
1
100
AcDbSymbolTable
70
1
0
BLOCK_RECORD
5
1F
100
AcDbSymbolTableRecord
100
AcDbBlockTableRecord
2
*MODEL_SPACE
0
BLOCK_RECORD
5
1B
100
AcDbSymbolTableRecord
100
AcDbBlockTableRecord
2
*PAPER_SPACE
0
ENDTAB
0
ENDSEC
0
SECTION
2
BLOCKS
0
BLOCK
5
20
100
AcDbEntity
100
AcDbBlockBegin
2
*MODEL_SPACE
0
ENDBLK
5
21
100
AcDbEntity
100
AcDbBlockEnd
0
BLOCK
5
1C
100
AcDbEntity
100
AcDbBlockBegin
2
*PAPER_SPACE
0
ENDBLK
5
1D
100
AcDbEntity
100
AcDbBlockEnd
0
ENDSEC
0
SECTION
2
ENTITIES
0
LINE
5
100
100
AcDbEntity
8
0
100
AcDbLine
10
3.5383871486727618
20
-0.84283296792010443
30
0
11
3.5742816079744366
21
-0.82789882611063303
31
0
0
LINE
5
101
100
AcDbEntity
8
0
100
AcDbLine
10
3.5742816079744366
20
-0.82789882611063303
30
0
11
3.9302674177202097
21
-0.70625792356513306
31
0
0
LINE
5
102
100
AcDbEntity
8
0
100
AcDbLine
10
3.9302674177202097
20
-0.70625792356513306
30
0
11
4.5221165751445112
21
-0.58870172269135201
31
0
0
LINE
5
103
100
AcDbEntity
8
0
100
AcDbLine
10
4.5221165751445112
20
-0.58870172269135201
30
0
11
4.5482201898180215
21
-0.57065538058872467
31
0
0
LINE
5
104
100
AcDbEntity
8
0
100
AcDbLine
10
4.5482201898180215
20
-0.57065538058872467
30
0
11
4.6838043133606782
21
-0.47617571441352324
31
0
0
LINE
5
105
100
AcDbEntity
8
0
100
AcDbLine
10
4.6838043133606782
20
-0.47617571441352324
30
0
11
5.3055108237692972
21
-0.4282093176799826
31
0
0
LINE
5
106
100
AcDbEntity
8
0
100
AcDbLine
10
5.3055108237692972
20
-0.4282093176799826
30
0
11
5.3524126003749615
21
0.45435928522932156
31
0
0
LINE
5
107
100
AcDbEntity
8
0
100
AcDbLine
10
5.2204772507351445
20
0.53828642409803262
30
0
11
5.3524126003749615
21
0.45435928522932156
31
0
0
LINE
5
108
100
AcDbEntity
8
0
100
AcDbLine
10
5.2204772507351445
20
0.53828642409803262
30
0
11
4.835379545311806
21
0.6231954330534093
31
0
0
LINE
5
109
100
AcDbEntity
8
0
100
AcDbLine
10
4.8175929832795408
20
0.62609419237199904
30
0
11
4.835379545311806
21
0.6231954330534093
31
0
0
LINE
5
110
100
AcDbEntity
8
0
100
AcDbLine
10
4.8175929832795408
20
0.62609419237199904
30
0
11
4.1477546925248712
21
0.76915264797098537
31
0
0
LINE
5
111
100
AcDbEntity
8
0
100
AcDbLine
10
4.0988136102580457
20
0.77642122010322234
30
0
11
4.1477546925248712
21
0.76915264797098537
31
0
0
LINE
5
112
100
AcDbEntity
8
0
100
AcDbLine
10
4.0988136102580457
20
0.77642122010322234
30
0
11
3.4400424610204809
21
0.93578470134127867
31
0
0
LINE
5
113
100
AcDbEntity
8
0
100
AcDbLine
10
3.3423923481139881
20
0.97191596095649913
30
0
11
3.4400424610204809
21
0.93578470134127867
31
0
0
LINE
5
114
100
AcDbEntity
8
0
100
AcDbLine
10
3.3423923481139881
20
0.97191596095649913
30
0
11
3.0922939049723417
21
1.0506128816673073
31
0
0
LINE
5
115
100
AcDbEntity
8
0
100
AcDbLine
10
3.0922939049723417
20
1.0506128816673073
30
0
11
2.6405889938635903
21
1.2629144274168307
31
0
0
LINE
5
116
100
AcDbEntity
8
0
100
AcDbLine
10
2.5213415769897627
20
1.3196531177038391
30
0
11
2.6405889938635903
21
1.2629144274168307
31
0
0
ARC
5
117
100
AcDbEntity
8
0
100
AcDbCircle
10
0.34184051343470767
20
-2.4547096525098535
30
0
40
4.3584445857682761
210
0
220
-0
230
1
100
AcDbArc
50
59.995768281088054
51
117.47992021633705
0
ARC
5
118
100
AcDbEntity
8
0
100
AcDbCircle
10
-3.555014594765872
20
7.3471547468577079
30
0
40
6.2275312046610107
210
-0
220
0
230
1
100
AcDbArc
50
271.63243720231338
51
287.6259318208385
0
LINE
5
119
100
AcDbEntity
8
0
100
AcDbLine
10
-3.3776074914886642
20
1.1221510019003269
30
0
11
-3.9642638537271604
21
1.1053303912816592
31
0
0
LINE
5
120
100
AcDbEntity
8
0
100
AcDbLine
10
-4.1659503782632212
20
1.022406322125986
30
0
11
-3.9642638537271604
21
1.1053303912816592
31
0
0
LINE
5
121
100
AcDbEntity
8
0
100
AcDbLine
10
-4.1659503782632212
20
1.022406322125986
30
0
11
-4.4263271748749027
21
0.85205880584458638
31
0
0
LINE
5
122
100
AcDbEntity
8
0
100
AcDbLine
10
-4.7857591125201067
20
0.57611572236293718
30
0
11
-4.4263271748749027
21
0.85205880584458638
31
0
0
LINE
5
123
100
AcDbEntity
8
0
100
AcDbLine
10
-4.7857591125201067
20
0.57611572236293718
30
0
11
-5.4628485931640851
21
0.57636591303131146
31
0
0
LINE
5
124
100
AcDbEntity
8
0
100
AcDbLine
10
-5.4628485931640851
20
0.57636591303131146
30
0
11
-5.4916412285746361
21
0.50403749075162918
31
0
0
LINE
5
125
100
AcDbEntity
8
0
100
AcDbLine
10
-5.4916412285746361
20
0.50403749075162918
30
0
11
-3.8241548823759728
21
0.48241937479479025
31
0
0
SPLINE
5
126
100
AcDbEntity
8
0
100
AcDbSpline
70
4
71
3
72
32
73
28
74
0
42
0.000000001
43
0.0000000001
44
0.0000000001
40
1.6748186586346636
40
1.6748186586346636
40
1.6748186586346636
40
1.6748186586346636
40
2.2265366238294746
40
2.2265366238294746
40
2.2265366238294746
40
2.7588073405406082
40
2.7588073405406082
40
2.7588073405406082
40
3.2639067350907478
40
3.2639067350907478
40
3.2639067350907478
40
3.8035813835379342
40
3.8035813835379342
40
3.8035813835379342
40
4.3940538955916155
40
4.3940538955916155
40
4.3940538955916155
40
4.9866100593805918
40
4.9866100593805918
40
4.9866100593805918
40
5.5626171048406734
40
5.5626171048406734
40
5.5626171048406734
40
6.0968050069854725
40
6.0968050069854725
40
6.0968050069854725
40
6.1102335123821021
40
6.1102335123821021
40
6.1102335123821021
40
6.1102335123821021
41
1
41
1
41
1
41
1
41
1
41
1
41
1
41
1
41
1
41
1
41
1
41
1
41
1
41
1
41
1
41
1
41
1
41
1
41
1
41
1
41
1
41
1
41
1
41
1
41
1
41
1
41
1
41
1
10
0.55589013081052574
20
-0.83621646906608738
30
0
10
0.83329101680126083
20
-0.81519672552129652
30
0
10
1.1024392727889205
20
-0.7373916258837635
30
0
10
1.3249020908135454
20
-0.61317583941859855
30
0
10
1.539523421024779
20
-0.49333847710739515
30
0
10
1.7103857648383527
20
-0.33050989968958971
30
0
10
1.813141982350237
20
-0.14528161383192859
30
0
10
1.9106527069157646
20
0.030491150107365302
30
0
10
1.9461760146093943
20
0.22618470286677142
30
0
10
1.9141042945747884
20
0.4155476401480252
30
0
10
1.8798371890871883
20
0.61787292049647102
30
0
10
1.7687985045641175
20
0.8116648520332006
30
0
10
1.598929502968556
20
0.96987487651712578
30
0
10
1.4130712708266813
20
1.1429767089969221
30
0
10
1.1571836242661664
20
1.2733283960949253
30
0
10
0.87328913228456229
20
1.3412317441618948
30
0
10
0.5883928371050402
20
1.4093747086820334
30
0
10
0.27624336626592733
20
1.414361048888781
30
0
10
-0.012410747213591256
20
1.3554248391148842
30
0
10
-0.29300322641772003
20
1.2981346206731308
30
0
10
-0.55052031673642798
20
1.180733884103693
30
0
10
-0.74479817010940674
20
1.0201452149685113
30
0
10
-0.92497110331304866
20
0.87121557087877965
30
0
10
-1.0504660984123597
20
0.68527621409820549
30
0
10
-1.1019193605361159
20
0.48723046387979396
30
0
10
-1.1032128012998039
20
0.48225195647648211
30
0
10
-1.1044603756911724
20
0.47726641725096058
30
0
10
-1.1056619344699941
20
0.47227433440821165
30
0
0
LINE
5
127
100
AcDbEntity
8
0
100
AcDbLine
10
0.55589013081052574
20
-0.83621646906608738
30
0
11
0.55589013081052541
21
-1.0233737865378232
31
0
0
LINE
5
128
100
AcDbEntity
8
0
100
AcDbLine
10
0.55589013081052541
20
-1.0233737865378232
30
0
11
0.24092949971594596
21
-1.0233737865378232
31
0
0
LINE
5
129
100
AcDbEntity
8
0
100
AcDbLine
10
0.24092949971594596
20
-1.0233737865378232
30
0
11
0.24092949971570363
21
-0.8362164690717262
31
0
0
SPLINE
5
130
100
AcDbEntity
8
0
100
AcDbSpline
70
4
71
3
72
11
73
7
74
0
42
0.000000001
43
0.0000000001
44
0.0000000001
40
0.41764315053352735
40
0.41764315053352735
40
0.41764315053352735
40
0.41764315053352735
40
0.97588528516768624
40
0.97588528516768624
40
0.97588528516768624
40
1.4667739949551297
40
1.4667739949551297
40
1.4667739949551297
40
1.4667739949551297
41
1
41
1
41
1
41
1
41
1
41
1
41
1
10
-0.99527703231645814
20
-0.18138890604898752
30
0
10
-0.87839086100098818
20
-0.37257163602639887
30
0
10
-0.68779368403548469
20
-0.53720653700119902
30
0
10
-0.45287044178033009
20
-0.6525889193458585
30
0
10
-0.24629132482864036
20
-0.754050104923771
30
0
10
-0.0058961692412497326
20
-0.81751352858823778
30
0
10
0.24092949971570363
20
-0.8362164690717262
30
0
0
LINE
5
131
100
AcDbEntity
8
0
100
AcDbLine
10
-5.4798188006961208
20
-0.18138896287077486
30
0
11
-5.3554829267698336
21
-0.77560657397928967
31
0
0
LINE
5
132
100
AcDbEntity
8
0
100
AcDbLine
10
-5.3554829267698336
20
-0.77560657397928967
30
0
11
-4.6485427909002608
21
-0.81063591341691454
31
0
0
LINE
5
133
100
AcDbEntity
8
0
100
AcDbLine
10
-4.6485427909002608
20
-0.81063591341691454
30
0
11
-4.362617195379741
21
-1.0756638318912932
31
0
0
LINE
5
134
100
AcDbEntity
8
0
100
AcDbLine
10
-4.362617195379741
20
-1.0756638318912932
30
0
11
-3.9268937843527003
21
-1.121522537864599
31
0
0
LINE
5
135
100
AcDbEntity
8
0
100
AcDbLine
10
-3.9268937843527003
20
-1.121522537864599
30
0
11
-3.5812695619658861
21
-1.3013246078330263
31
0
0
ARC
5
136
100
AcDbEntity
8
0
100
AcDbCircle
10
0.55991291314026859
20
1.3253152852522332
30
0
40
3.6840433791508382
210
0
220
0
230
1
100
AcDbArc
50
226.62506220836573
51
323.94765750593371
0
ARC
5
137
100
AcDbEntity
8
0
100
AcDbCircle
10
-5.0930750837776246
20
0.21987594951152156
30
-2.841121913410834e-16
40
0.089999999999998942
210
-4.3978861099473935e-17
220
2.0588278787616654e-16
230
1
100
AcDbArc
50
-8.0000000000002149
51
90.166739710345126
0
LINE
5
138
100
AcDbEntity
8
0
100
AcDbLine
10
-5.0039509575908845
20
0.20735037042511548
30
-2.7761381263283209e-16
11
-5.0134520651837233
21
0.1397464771299097
31
-2.7061156120930014e-16
0
LINE
5
139
100
AcDbEntity
8
0
100
AcDbLine
10
-5.0134520651837233
20
0.1397464771299097
30
-2.7061156120930014e-16
11
-4.9471742810553518
21
0.1304317420262836
31
-2.7927962624745818e-16
0
LINE
5
140
100
AcDbEntity
8
0
100
AcDbLine
10
-4.9471742810553518
20
0.1304317420262836
30
-2.7927962624745818e-16
11
-4.9271849270467865
21
0.27266338630884973
31
-3.1251612976677841e-16
0
ARC
5
141
100
AcDbEntity
8
0
100
AcDbCircle
10
-4.838060800860104
20
0.26013780722246138
30
-3.0596697529040546e-16
40
0.089999999999939004
210
-4.3978861099453696e-17
220
2.0588278787615927e-16
230
1
100
AcDbArc
50
156.9896981037349
51
172.00000000000585
0
SPLINE
5
142
100
AcDbEntity
8
0
100
AcDbSpline
70
4
71
5
72
18
73
12
74
0
42
0.000000001
43
0.0000000001
44
0.0000000001
40
0
40
0
40
0
40
0
40
0
40
0
40
0.066666666666666666
40
0.13333333333333333
40
0.20000000000000001
40
0.26666666666666666
40
0.33333333333333331
40
0.39999999999999997
40
0.40458493088798425
40
0.40458493088798425
40
0.40458493088798425
40
0.40458493088798425
40
0.40458493088798425
40
0.40458493088798425
41
1
41
1
41
1
41
1
41
1
41
1
41
1
41
1
41
1
41
1
41
1
41
1
10
-4.9208999134498859
20
0.2953185039939355
30
0
10
-4.9196002060099371
20
0.29837889281031149
30
0
10
-4.9171437652443588
20
0.3044271382761391
30
0
10
-4.9138895010266683
20
0.31328277424495293
30
0
10
-4.9092682814503634
20
0.32396936647573193
30
0
10
-4.8975365493025285
20
0.33212109278642699
30
0
10
-4.8743715707765496
20
0.33166286670470119
30
0
10
-4.8445661611405182
20
0.32311306568005121
30
0
10
-4.8166849960545726
20
0.31234777626907151
30
0
10
-4.7960747775476724
20
0.3034600674167835
30
0
10
-4.7850466692291613
20
0.29848839373068037
30
0
10
-4.7843354801164004
20
0.29816691514744681
30
0
0
LINE
5
143
100
AcDbEntity
8
0
100
AcDbLine
10
-4.7843354801164004
20
0.29816691514744681
30
-3.0596697529039742e-16
11
-4.7994748305724926
21
0.19044483929560532
31
-2.8445466538905719e-16
0
LINE
5
144
100
AcDbEntity
8
0
100
AcDbLine
10
-4.7994748305724926
20
0.19044483929560532
30
-2.8445466538905719e-16
11
-4.7331970464441211
21
0.18113010419197922
31
-2.5742484229814402e-16
0
LINE
5
145
100
AcDbEntity
8
0
100
AcDbLine
10
-4.7331970464441211
20
0.18113010419197922
30
-2.5742484229814402e-16
11
-4.7210958551961539
21
0.26723455400254326
31
-2.5759785100896506e-16
0
SPLINE
5
146
100
AcDbEntity
8
0
100
AcDbSpline
70
4
71
5
72
19
73
13
74
0
42
0.000000001
43
0.0000000001
44
0.0000000001
40
0.48225690204643051
40
0.48225690204643051
40
0.48225690204643051
40
0.48225690204643051
40
0.48225690204643051
40
0.48225690204643051
40
0.53333333333333333
40
0.59999999999999998
40
0.66666666666666663
40
0.73333333333333328
40
0.79999999999999993
40
0.86666666666666659
40
0.93333333333333324
40
1
40
1
40
1
40
1
40
1
40
1
41
1
41
1
41
1
41
1
41
1
41
1
41
1
41
1
41
1
41
1
41
1
41
1
41
1
10
-4.7210958551961539
20
0.26723455400254326
30
0
10
-4.7125819715648483
20
0.26278631655619006
30
0
10
-4.6929604603644002
20
0.25232783389341829
30
0
10
-4.6626181714477601
20
0.23541343112335525
30
0
10
-4.6239653412111563
20
0.21225525754321048
30
0
10
-4.5840456643730976
20
0.18522551502048692
30
0
10
-4.5556459147269184
20
0.16149710848986848
30
0
10
-4.5413294312255346
20
0.1430431558913155
30
0
10
-4.5371609495800342
20
0.12819890711463669
30
0
10
-4.5367490923994565
20
0.11680568217486782
30
0
10
-4.5353637463262348
20
0.10724289590282755
30
0
10
-4.5335645810668446
20
0.10022453557841601
30
0
10
-4.5324462110427834
20
0.096554619445311796
30
0
0
ARC
5
147
100
AcDbEntity
8
0
100
AcDbCircle
10
-4.4463549704205896
20
0.12279005899053783
30
-2.1854783949314103e-16
40
0.089999999999998706
210
-2.9343104386904392e-16
220
1.298647445400768e-16
230
1
100
AcDbArc
50
196.94807271935849
51
270.26302899193064
0
LINE
5
148
100
AcDbEntity
8
0
100
AcDbLine
10
-4.4459418068974461
20
0.032791007351629278
30
-2.0000041337431574e-16
11
-3.375728724040933
21
0.037704092542812206
31
-1.5063782270227371e-16
0
LINE
5
149
100
AcDbEntity
8
0
100
AcDbLine
10
-3.375728724040933
20
0.037704092542812206
30
-1.5063782270227371e-16
11
-3.375728724040933
21
-0.063278664709048832
31
-1.5404766000407751e-16
0
SPLINE
5
150
100
AcDbEntity
8
0
100
AcDbSpline
70
4
71
5
72
21
73
15
74
0
42
0.000000001
43
0.0000000001
44
0.0000000001
40
-1
40
-1
40
-1
40
-1
40
-1
40
-1
40
-0.89999999999999991
40
-0.79999999999999993
40
-0.69999999999999996
40
-0.59999999999999998
40
-0.5
40
-0.40000000000000002
40
-0.30000000000000004
40
-0.20000000000000001
40
-0.10000000000000001
40
0
40
0
40
0
40
0
40
0
40
0
41
1
41
1
41
1
41
1
41
1
41
1
41
1
41
1
41
1
41
1
41
1
41
1
41
1
41
1
41
1
10
-5.3757287240408989
20
-0.063278664709051566
30
0
10
-5.3716727893674614
20
-0.046283374612620602
30
0
10
-5.3633798124811713
20
-0.013161751574124485
30
0
10
-5.3503970334481448
20
0.033913863935701657
30
0
10
-5.331982076331208
20
0.09138148649820374
30
0
10
-5.307021451926623
20
0.15378676791219387
30
0
10
-5.2800175682760617
20
0.20593450512496178
30
0
10
-5.250945379168237
20
0.24700833955236609
30
0
10
-5.2199698576969018
20
0.2766050310985973
30
0
10
-5.1875761767379007
20
0.29522858643667316
30
0
10
-5.1547870824697766
20
0.30514248648767572
30
0
10
-5.1292205877276951
20
0.30849227901367665
30
0
10
-5.1108918980544082
20
0.3095919453355041
30
0
10
-5.0991149344868267
20
0.30985875365539456
30
0
10
-5.0933369975324734
20
0.30987556840618591
30
0
0
ARC
5
151
100
AcDbEntity
8
0
100
AcDbCircle
10
-1.3898078921197592
20
0.072067082710720612
30
8.741913579725645e-17
40
0.089999999999999622
210
5.0919865931203241e-17
220
-2.0770696186998877e-16
230
1
100
AcDbArc
50
171.78618105328897
51
269.95292076363359
0
LINE
5
152
100
AcDbEntity
8
0
100
AcDbLine
10
-1.4788846542998575
20
0.084925171196577512
30
9.4625627079905555e-17
11
-1.46913132622619
21
0.15249313716898003
31
1.0095683457122475e-16
0
LINE
5
153
100
AcDbEntity
8
0
100
AcDbLine
10
-1.46913132622619
20
0.15249313716898003
30
1.0095683457122475e-16
11
-1.5353738877774439
21
0.16205514522932879
31
9.2778293793977122e-17
0
LINE
5
154
100
AcDbEntity
8
0
100
AcDbLine
10
-1.5353738877774439
20
0.16205514522932879
30
9.2778293793977122e-17
11
-1.5558938877586197
21
0.01989908834192456
31
5.8937208757706135e-17
0
ARC
5
155
100
AcDbEntity
8
0
100
AcDbCircle
10
-1.6449706499386496
20
0.032757176827762205
30
6.5564351847934434e-17
40
0.08999999999992922
210
5.0919865931199278e-17
220
-2.0770696186998756e-16
230
1
100
AcDbArc
50
336.7758791570223
51
351.78618105329485
0
SPLINE
5
156
100
AcDbEntity
8
0
100
AcDbSpline
70
4
71
5
72
18
73
12
74
0
42
0.000000001
43
0.0000000001
44
0.0000000001
40
0
40
0
40
0
40
0
40
0
40
0
40
0.066666666666666666
40
0.13333333333333333
40
0.20000000000000001
40
0.26666666666666666
40
0.33333333333333331
40
0.39999999999999997
40
0.40458493088798425
40
0.40458493088798425
40
0.40458493088798425
40
0.40458493088798425
40
0.40458493088798425
40
0.40458493088798425
41
1
41
1
41
1
41
1
41
1
41
1
41
1
41
1
41
1
41
1
41
1
41
1
10
-1.5622634027738167
20
-0.0027324169484772829
30
0
10
-1.5635745220325221
20
-0.0057879341594103354
30
0
10
-1.5660535167530392
20
-0.011826970475359211
30
0
10
-1.5693408060910021
20
-0.020670400399275562
30
0
10
-1.5740018740974469
20
-0.031339672582449532
30
0
10
-1.5857639454588219
20
-0.039447561230115988
30
0
10
-1.6089270526549786
20
-0.038902890439262108
30
0
10
-1.638700348291358
20
-0.030241920050127911
30
0
10
-1.6665411449375584
20
-0.019372657666838052
30
0
10
-1.6871180524573204
20
-0.010408096747954249
30
0
10
-1.69812753051289
20
-0.0053953025900186479
30
0
10
-1.6988375149680728
20
-0.0050711722042381556
30
0
0
LINE
5
157
100
AcDbEntity
8
0
100
AcDbLine
10
-1.6988375149680728
20
-0.0050711722042381556
30
8.7419135797256413e-17
11
-1.6832962688157007
21
0.10259365597141885
31
1.0899051198739389e-16
0
LINE
5
158
100
AcDbEntity
8
0
100
AcDbLine
10
-1.6832962688157007
20
0.10259365597141885
30
1.0899051198739389e-16
11
-1.7495388303669543
21
0.11215566403176749
31
1.1463307774329123e-16
0
LINE
5
159
100
AcDbEntity
8
0
100
AcDbLine
10
-1.7495388303669543
20
0.11215566403176749
30
1.1463307774329123e-16
11
-1.7619612650326308
21
0.026096973455063552
31
1.1388626324140337e-16
0
SPLINE
5
160
100
AcDbEntity
8
0
100
AcDbSpline
70
4
71
5
72
19
73
13
74
0
42
0.000000001
43
0.0000000001
44
0.0000000001
40
0.48225690204643051
40
0.48225690204643051
40
0.48225690204643051
40
0.48225690204643051
40
0.48225690204643051
40
0.48225690204643051
40
0.53333333333333333
40
0.59999999999999998
40
0.66666666666666663
40
0.73333333333333328
40
0.79999999999999993
40
0.86666666666666659
40
0.93333333333333324
40
1
40
1
40
1
40
1
40
1
40
1
41
1
41
1
41
1
41
1
41
1
41
1
41
1
41
1
41
1
41
1
41
1
41
1
41
1
10
-1.7619612650326308
20
0.026096973455063552
30
0
10
-1.7704584892865394
20
0.030576952344002786
30
0
10
-1.7900408345143464
20
0.041108586442082665
30
0
10
-1.8203197903712747
20
0.058136103876603173
30
0
10
-1.8588859289507336
20
0.08143836222076116
30
0
10
-1.8987044572499761
20
0.10861689021221405
30
0
10
-1.9270154586187012
20
0.13245111472126816
30
0
10
-1.9412629753058364
20
0.15095836558693779
30
0
10
-1.945376031623447
20
0.16581806708801045
30
0
10
-1.9457453682895842
20
0.17721274967649916
30
0
10
-1.9470950179664925
20
0.18678063924405508
30
0
10
-1.9488679793282646
20
0.19380566488696427
30
0
10
-1.949972646039752
20
0.19747972903872676
30
0
0
ARC
5
161
100
AcDbEntity
8
0
100
AcDbCircle
10
-2.0361611935374935
20
0.17156575056707019
30
1.5298348764519871e-16
40
0.089999999999999594
210
2.9404167419476652e-16
220
-1.3460846458417156e-16
230
1
100
AcDbArc
50
16.734253772646785
51
90.049210045219681
0
LINE
5
162
100
AcDbEntity
8
0
100
AcDbLine
10
-2.0362384924862624
20
0.26156571737191059
30
1.7168104337073988e-16
11
-3.1064624579302622
21
0.26064652606092548
31
2.2914300999670035e-16
0
LINE
5
163
100
AcDbEntity
8
0
100
AcDbLine
10
-3.1064624579302622
20
0.26064652606092548
30
2.2914300999670035e-16
11
-3.106085606845284
21
0.36162858013712312
31
2.3950332594197589e-16
0
SPLINE
5
164
100
AcDbEntity
8
0
100
AcDbSpline
70
4
71
5
72
21
73
15
74
0
42
0.000000001
43
0.0000000001
44
0.0000000001
40
-1
40
-1
40
-1
40
-1
40
-1
40
-1
40
-0.89999999999999991
40
-0.79999999999999993
40
-0.69999999999999996
40
-0.59999999999999998
40
-0.5
40
-0.40000000000000002
40
-0.30000000000000004
40
-0.20000000000000001
40
-0.10000000000000001
40
0
40
0
40
0
40
0
40
0
40
0
41
1
41
1
41
1
41
1
41
1
41
1
41
1
41
1
41
1
41
1
41
1
41
1
41
1
41
1
41
1
10
-1.1060995334934394
20
0.35416490821464514
30
0
10
-1.1102188635588428
20
0.33718487254479745
30
0
10
-1.1186353871623975
20
0.30409442817226601
30
0
10
-1.1317937542669831
20
0.2570675900668784
30
0
10
-1.1504230428950923
20
0.19966908926924881
30
0
10
-1.1756163797641124
20
0.13735739135922462
30
0
10
-1.202814682178909
20
0.085310791332149971
30
0
10
-1.232039949660042
20
0.044345735555950054
30
0
10
-1.2631257054366296
20
0.014864845666017961
30
0
10
-1.2955886608814686
20
-0.0036376920866871636
30
0
10
-1.3284145238772305
20
-0.013429159582864305
30
0
10
-1.3539933414677352
20
-0.016683518818693358
30
0
10
-1.3723260072867418
20
-0.01771477781994283
30
0
10
-1.3841038845323927
20
-0.017937634585804791
30
0
10
-1.3898818440029901
20
-0.017932886906601459
30
0
0
ARC
5
165
100
AcDbEntity
8
0
100
AcDbCircle
10
-2.1690273767178372
20
-1.5866450475444798
30
0
40
0.16499999999999992
210
-0
220
0
230
1
100
AcDbArc
50
-89.891906000382434
51
75.858889766069581
0
LINE
5
166
100
AcDbEntity
8
0
100
AcDbLine
10
-2.1687160885303247
20
-1.7516447539068374
30
0
11
-2.1690273767178372
21
-1.7516450475444794
31
0
0
LINE
5
167
100
AcDbEntity
8
0
100
AcDbLine
10
-2.1690273767178372
20
-1.7516450475444794
30
0
11
-4.7134774688277892
21
-1.7516450475444794
31
0
0
LINE
5
168
100
AcDbEntity
8
0
100
AcDbLine
10
-4.7134774688277892
20
-1.7516450475444794
30
0
11
-4.7137887575692821
21
-1.7516450475444794
31
0
0
ARC
5
169
100
AcDbEntity
8
0
100
AcDbCircle
10
-4.7134774688277892
20
-1.5866450475444793
30
0
40
0.16500000000000001
210
0
220
0
230
1
100
AcDbArc
50
104.14111023393201
51
269.89190600038103
0
LINE
5
170
100
AcDbEntity
8
0
100
AcDbLine
10
-4.753788757569283
20
-1.4266450475444794
30
0
11
-4.7537887575692821
21
-1.5516450475444794
31
0
0
LINE
5
171
100
AcDbEntity
8
0
100
AcDbLine
10
-4.7537887575692821
20
-1.5516450475444794
30
0
11
-4.6907966315850311
21
-1.5516450475444794
31
0
0
LINE
5
172
100
AcDbEntity
8
0
100
AcDbLine
10
-4.6907966315850311
20
-1.5516450475444794
30
0
11
-4.6907966315850311
21
-1.4266450475444794
31
0
0
LINE
5
173
100
AcDbEntity
8
0
100
AcDbLine
10
-2.1917082139605992
20
-1.4266450475444794
30
0
11
-2.1917082139605997
21
-1.5516450475444794
31
0
0
LINE
5
174
100
AcDbEntity
8
0
100
AcDbLine
10
-2.1917082139605997
20
-1.5516450475444794
30
0
11
-2.1287160879763478
21
-1.5516450475444794
31
0
0
LINE
5
175
100
AcDbEntity
8
0
100
AcDbLine
10
-2.1287160879763478
20
-1.5516450475444794
30
0
11
-2.1287160879763478
21
-1.4266450475444787
31
0
0
LINE
5
176
100
AcDbEntity
8
0
100
AcDbLine
10
-4.6907966315850311
20
-1.4266450475444794
30
0
11
-3.4999199988402512
21
-1.4266450475444794
31
0
0
SPLINE
5
177
100
AcDbEntity
8
0
100
AcDbSpline
70
4
71
3
72
8
73
4
74
0
42
0.000000001
43
0.0000000001
44
0.0000000001
40
0.02439273187830255
40
0.02439273187830255
40
0.02439273187830255
40
0.02439273187830255
40
0.22668581876290111
40
0.22668581876290111
40
0.22668581876290111
40
0.22668581876290111
41
1
41
1
41
1
41
1
10
-3.5812695619658861
20
-1.3013246078330263
30
0
10
-3.5545941281788478
20
-1.3013246078330263
30
0
10
-3.5274492624595748
20
-1.3013398964574341
30
0
10
-3.4999199988402525
20
-1.3013719458786757
30
0
0
LINE
5
178
100
AcDbEntity
8
0
100
AcDbLine
10
-3.3030696051394637
20
-1.4266450475444794
30
0
11
-2.6466116151056616
21
-1.4266450475444794
31
0
0
LINE
5
179
100
AcDbEntity
8
0
100
AcDbLine
10
-2.4497612214048741
20
-1.4266450475444794
30
0
11
-2.1917082139605992
21
-1.4266450475444794
31
0
0
SPLINE
5
180
100
AcDbEntity
8
0
100
AcDbSpline
70
4
71
3
72
11
73
7
74
0
42
0.000000001
43
0.0000000001
44
0.0000000001
40
0.69624321314006909
40
0.69624321314006909
40
0.69624321314006909
40
0.69624321314006909
40
2.2099673217554554
40
2.2099673217554554
40
2.2099673217554554
40
2.2422496235212259
40
2.2422496235212259
40
2.2422496235212259
40
2.2422496235212259
41
1
41
1
41
1
41
1
41
1
41
1
41
1
10
-3.3030696051638677
20
-1.3018844477254594
30
0
10
-3.087147988144646
20
-1.3027658551441654
30
0
10
-2.8607546654056879
20
-1.3047770811931532
30
0
10
-2.6595175047398247
20
-1.3085349420245733
30
0
10
-2.6552260709566844
20
-1.3086150701991719
30
0
10
-2.6509237378111083
20
-1.3086963706182577
30
0
10
-2.6466116156423722
20
-1.3087788675281111
30
0
0
SPLINE
5
181
100
AcDbEntity
8
0
100
AcDbSpline
70
4
71
3
72
20
73
16
74
0
42
0.000000001
43
0.0000000001
44
0.0000000001
40
2.7263475431297488
40
2.7263475431297488
40
2.7263475431297488
40
2.7263475431297488
40
3.2793038309128546
40
3.2793038309128546
40
3.2793038309128546
40
3.8139720854915544
40
3.8139720854915544
40
3.8139720854915544
40
4.1518585811031912
40
4.1518585811031912
40
4.1518585811031912
40
4.3486403400702542
40
4.3486403400702542
40
4.3486403400702542
40
4.4365814465366729
40
4.4365814465366729
40
4.4365814465366729
40
4.4365814465366729
41
1
41
1
41
1
41
1
41
1
41
1
41
1
41
1
41
1
41
1
41
1
41
1
41
1
41
1
41
1
41
1
10
-2.4497612214045126
20
-1.3133791187931358
30
0
10
-2.3751478552742569
20
-1.3155002408285845
30
0
10
-2.3025475796108519
20
-1.3180790831335429
30
0
10
-2.2375403999042396
20
-1.3212374952901995
30
0
10
-2.174684434251358
20
-1.3242913128474358
30
0
10
-2.1189769892551364
20
-1.3278742878590299
30
0
10
-2.0749288329214663
20
-1.3321901729698025
30
0
10
-2.0470941215898213
20
-1.3349174375880535
30
0
10
-2.0240722087442378
20
-1.3378662424629351
30
0
10
-2.0057174419618811
20
-1.3415313626390843
30
0
10
-1.9950296248600936
20
-1.3436655276676281
30
0
10
-1.9861836366427128
20
-1.3457362453416719
30
0
10
-1.9766776859923136
20
-1.3497672918767494
30
0
10
-1.9745102624534463
20
-1.3506863984420023
30
0
10
-1.9723428389063771
20
-1.351605504987913
30
0
10
-1.9701761886474765
20
-1.352524283594267
30
0
0
LINE
5
182
100
AcDbEntity
8
0
100
AcDbLine
10
-5.0716138754152729
20
-0.18138895769857785
30
0
11
-5.4798188006961208
21
-0.18138896287077486
31
0
0
LINE
5
183
100
AcDbEntity
8
0
100
AcDbLine
10
-5.0716138754152729
20
-0.063278664709051122
30
0
11
-5.3757287240408989
21
-0.063278664709051566
31
-2.4094120984414584e-16
0
LINE
5
184
100
AcDbEntity
8
0
100
AcDbLine
10
-0.99527703231645814
20
-0.18138890604898752
30
0
11
-3.792362717883865
21
-0.18138894148971171
31
0
0
LWPOLYLINE
5
185
100
AcDbEntity
8
0
100
AcDbPolyline
90
4
70
1
43
0.0
10
-3.9892131115846525
20
-0.18138894398392222
10
-4.8747634817144858
20
-0.18138895520436735
42
-0.99999999999999989
10
-4.8747634817144858
20
-0.063278664709050844
10
-3.9892131115846525
20
-0.063278664709049665
42
-0.99999999999999989
0
LINE
5
186
100
AcDbEntity
8
0
100
AcDbLine
10
-3.375728724040933
20
-0.063278664709048832
30
-1.5404766000407751e-16
11
-3.792362717883865
21
-0.063278664709049373
31
0
0
LINE
5
187
100
AcDbEntity
8
0
100
AcDbLine
10
-3.106085606845284
20
0.36162858013712312
30
2.3950332594197589e-16
11
-2.8416557121135422
21
0.36064176427521794
31
0
0
LINE
5
188
100
AcDbEntity
8
0
100
AcDbLine
10
-3.8241548823759728
20
0.48241937479479025
30
0
11
-2.841214944084435
21
0.47875117864249567
31
0
0
LWPOLYLINE
5
189
100
AcDbEntity
8
0
100
AcDbPolyline
90
4
70
1
43
0.0
10
-2.6448066891458382
20
0.35990715089702124
10
-1.4621231434243518
20
0.35549353917692339
42
0.99999999999999989
10
-1.4616823753952444
20
0.47360295354419885
10
-2.644365921116731
20
0.4780165652642987
42
0.99999999999999989
0
LINE
5
190
100
AcDbEntity
8
0
100
AcDbLine
10
-1.265274120456648
20
0.3547589257987267
30
0
11
-1.1060995334934394
21
0.35416490821464514
31
1.3701334410369281e-16
0
LINE
5
191
100
AcDbEntity
8
0
100
AcDbLine
10
-1.2648333524275408
20
0.47286834016600193
30
0
11
-1.1056619344699941
21
0.47227433440821165
31
0
0
ARC
5
192
100
AcDbEntity
8
0
100
AcDbCircle
10
-5.0716138754152729
20
-0.12233381120381449
30
-6.7246564244842963e-32
40
0.059055146494763365
210
0
220
1.1387079405654503e-30
230
1
100
AcDbArc
50
-90
51
90
0
ARC
5
193
100
AcDbEntity
8
0
100
AcDbCircle
10
-3.792362717883865
20
-0.12233380309938052
30
3.8821894941978924e-32
40
0.059055138390331149
210
0
220
6.5738386193224248e-31
230
1
100
AcDbArc
50
90
51
270
0
ARC
5
194
100
AcDbEntity
8
0
100
AcDbCircle
10
-3.4999199988402516
20
-1.3640084967115775
30
0
40
0.062636550832901844
210
0
220
0
230
1
100
AcDbArc
50
-89.999999999999588
51
90.113542287135246
0
ARC
5
195
100
AcDbEntity
8
0
100
AcDbCircle
10
-3.3030696051516659
20
-1.3642647476349694
30
0
40
0.062380299909597786
210
0
220
0
230
1
100
AcDbArc
50
90.000000030948414
51
270.00000001120765
0
LINE
5
196
100
AcDbEntity
8
0
100
AcDbLine
10
-3.4999199988402525
20
-1.3013719458786757
30
0
11
-3.4999199988402512
21
-1.2114035122209126
31
0
0
ARC
5
197
100
AcDbEntity
8
0
100
AcDbCircle
10
-2.4497612214046933
20
-1.3700120831688076
30
0
40
0.056632964375671821
210
0
220
-0
230
1
100
AcDbArc
50
89.999999999817149
51
269.99999999981708
0
ARC
5
198
100
AcDbEntity
8
0
100
AcDbCircle
10
-2.6466116153740171
20
-1.3677119575362953
30
0
40
0.058933090008184225
210
0
220
0
230
1
100
AcDbArc
50
-89.999999739100062
51
90.00000026089954
0
ARC
5
199
100
AcDbEntity
8
0
100
AcDbCircle
10
-2.8414353280989886
20
0.4196964714588568
30
0
40
0.059055118403566011
210
0
220
0
230
1
100
AcDbArc
50
-90.213818946711214
51
89.786181053288814
0
ARC
5
200
100
AcDbEntity
8
0
100
AcDbCircle
10
-1.2650537364420944
20
0.41381363298236429
30
0
40
0.059055118403564782
210
0
220
-0
230
1
100
AcDbArc
50
89.786181053288814
51
269.78618105328877
0
ENDSEC
0
SECTION
2
OBJECTS
0
DICTIONARY
5
C
100
AcDbDictionary
3
ACAD_GROUP
350
D
3
ACAD_MLINESTYLE
350
17
0
DICTIONARY
5
D
100
AcDbDictionary
0
DICTIONARY
5
1A
330
C
100
AcDbDictionary
0
DICTIONARY
5
17
100
AcDbDictionary
0
ENDSEC
0
EOF
