  0
SECTION
  2
HEADER
  9
$ACADVER
  1
AC1009
  9
$DWGCODEPAGE
  3
ansi_1252
  9
$INSBASE
 10
0.0
 20
0.0
 30
0.0
  9
$EXTMIN
 10
7.811807086614174
 20
-58.72104724409449
 30
0.0
  9
$EXTMAX
 10
18.75462598425197
 20
-54.39875984251969
 30
0.0
  9
$LIMMIN
 10
0.0
 20
0.0
  9
$LIMMAX
 10
12.0
 20
9.0
  9
$ORTHOMODE
 70
     0
  9
$REGENMODE
 70
     1
  9
$FILLMODE
 70
     1
  9
$QTEXTMODE
 70
     0
  9
$MIRRTEXT
 70
     1
  9
$DRAGMODE
 70
     2
  9
$LTSCALE
 40
1.0
  9
$OSMODE
 70
    37
  9
$ATTMODE
 70
     1
  9
$TEXTSIZE
 40
0.2
  9
$TRACEWID
 40
0.05
  9
$TEXTSTYLE
  7
STANDARD
  9
$CLAYER
  8
0
  9
$CELTYPE
  6
BYLAYER
  9
$CECOLOR
 62
   256
  9
$DIMSCALE
 40
1.0
  9
$DIMASZ
 40
0.18
  9
$DIMEXO
 40
0.0625
  9
$DIMDLI
 40
0.38
  9
$DIMRND
 40
0.0
  9
$DIMDLE
 40
0.0
  9
$DIMEXE
 40
0.18
  9
$DIMTP
 40
0.0
  9
$DIMTM
 40
0.0
  9
$DIMTXT
 40
0.18
  9
$DIMCEN
 40
0.09
  9
$DIMTSZ
 40
0.0
  9
$DIMTOL
 70
     0
  9
$DIMLIM
 70
     0
  9
$DIMTIH
 70
     1
  9
$DIMTOH
 70
     1
  9
$DIMSE1
 70
     0
  9
$DIMSE2
 70
     0
  9
$DIMTAD
 70
     0
  9
$DIMZIN
 70
     0
  9
$DIMBLK
  1

  9
$DIMASO
 70
     1
  9
$DIMSHO
 70
     1
  9
$DIMPOST
  1

  9
$DIMAPOST
  1

  9
$DIMALT
 70
     0
  9
$DIMALTD
 70
     2
  9
$DIMALTF
 40
25.4
  9
$DIMLFAC
 40
1.0
  9
$DIMTOFL
 70
     0
  9
$DIMTVP
 40
0.0
  9
$DIMTIX
 70
     0
  9
$DIMSOXD
 70
     0
  9
$DIMSAH
 70
     0
  9
$DIMBLK1
  1

  9
$DIMBLK2
  1

  9
$DIMSTYLE
  2
STANDARD
  9
$DIMCLRD
 70
     0
  9
$DIMCLRE
 70
     0
  9
$DIMCLRT
 70
     0
  9
$DIMTFAC
 40
1.0
  9
$DIMGAP
 40
0.09
  9
$LUNITS
 70
     2
  9
$LUPREC
 70
     4
  9
$SKETCHINC
 40
0.1
  9
$FILLETRAD
 40
0.5
  9
$AUNITS
 70
     0
  9
$AUPREC
 70
     0
  9
$MENU
  1
.
  9
$ELEVATION
 40
0.0
  9
$PELEVATION
 40
0.0
  9
$THICKNESS
 40
0.0
  9
$LIMCHECK
 70
     0
  9
$CHAMFERA
 40
0.0
  9
$CHAMFERB
 40
0.0
  9
$SKPOLY
 70
     0
  9
$TDCREATE
 40
2460136.332292488
  9
$TDUPDATE
 40
2460136.332292512
  9
$TDINDWG
 40
0.0000000116
  9
$TDUSRTIMER
 40
0.0000000116
  9
$USRTIMER
 70
     1
  9
$ANGBASE
 50
0.0
  9
$ANGDIR
 70
     0
  9
$PDMODE
 70
     0
  9
$PDSIZE
 40
0.0
  9
$PLINEWID
 40
0.0
  9
$COORDS
 70
     1
  9
$SPLFRAME
 70
     0
  9
$SPLINETYPE
 70
     6
  9
$SPLINESEGS
 70
     8
  9
$ATTDIA
 70
     0
  9
$ATTREQ
 70
     1
  9
$HANDLING
 70
     1
  9
$HANDSEED
  5
5DE
  9
$SURFTAB1
 70
     6
  9
$SURFTAB2
 70
     6
  9
$SURFTYPE
 70
     6
  9
$SURFU
 70
     6
  9
$SURFV
 70
     6
  9
$UCSNAME
  2

  9
$UCSORG
 10
0.0
 20
0.0
 30
0.0
  9
$UCSXDIR
 10
1.0
 20
0.0
 30
0.0
  9
$UCSYDIR
 10
0.0
 20
1.0
 30
0.0
  9
$PUCSNAME
  2

  9
$PUCSORG
 10
0.0
 20
0.0
 30
0.0
  9
$PUCSXDIR
 10
1.0
 20
0.0
 30
0.0
  9
$PUCSYDIR
 10
0.0
 20
1.0
 30
0.0
  9
$USERI1
 70
     0
  9
$USERI2
 70
     0
  9
$USERI3
 70
     0
  9
$USERI4
 70
     0
  9
$USERI5
 70
     0
  9
$USERR1
 40
0.0
  9
$USERR2
 40
0.0
  9
$USERR3
 40
0.0
  9
$USERR4
 40
0.0
  9
$USERR5
 40
0.0
  9
$WORLDVIEW
 70
     1
  9
$SHADEDGE
 70
     3
  9
$SHADEDIF
 70
    70
  9
$TILEMODE
 70
     1
  9
$MAXACTVP
 70
    64
  9
$PLIMCHECK
 70
     0
  9
$PEXTMIN
 10
1.000000000000000E+20
 20
1.000000000000000E+20
 30
1.000000000000000E+20
  9
$PEXTMAX
 10
-1.000000000000000E+20
 20
-1.000000000000000E+20
 30
-1.000000000000000E+20
  9
$PLIMMIN
 10
0.0
 20
0.0
  9
$PLIMMAX
 10
12.0
 20
9.0
  9
$UNITMODE
 70
     0
  9
$VISRETAIN
 70
     1
  9
$PLINEGEN
 70
     0
  9
$PSLTSCALE
 70
     1
  0
ENDSEC
  0
SECTION
  2
TABLES
  0
TABLE
  2
VPORT
 70
     1
  0
VPORT
  2
*ACTIVE
 70
     0
 10
0.0
 20
0.0
 11
1.0
 21
1.0
 12
10.42990654205607
 22
4.5
 13
0.0
 23
0.0
 14
0.5
 24
0.5
 15
0.5
 25
0.5
 16
0.0
 26
0.0
 36
1.0
 17
0.0
 27
0.0
 37
0.0
 40
9.0
 41
1.972972972850329
 42
50.0
 43
0.0
 44
0.0
 50
0.0
 51
0.0
 71
     0
 72
   100
 73
     1
 74
     3
 75
     0
 76
     0
 77
     0
 78
     0
  0
ENDTAB
  0
TABLE
  2
LTYPE
 70
     1
  0
LTYPE
  2
CONTINUOUS
 70
     0
  3
Solid line
 72
    65
 73
     0
 40
0.0
  0
ENDTAB
  0
TABLE
  2
LAYER
 70
     1
  0
LAYER
  2
0
 70
     0
 62
     7
  6
CONTINUOUS
  0
ENDTAB
  0
TABLE
  2
STYLE
 70
     1
  0
STYLE
  2
STANDARD
 70
     0
 40
0.0
 41
1.0
 50
0.0
 71
     0
 42
0.2
  3
txt
  4

  0
ENDTAB
  0
TABLE
  2
VIEW
 70
     0
  0
ENDTAB
  0
TABLE
  2
UCS
 70
     0
  0
ENDTAB
  0
TABLE
  2
APPID
 70
     2
  0
APPID
  2
ACAD
 70
     0
  0
APPID
  2
ODA
 70
     0
  0
ENDTAB
  0
TABLE
  2
DIMSTYLE
 70
     1
  0
DIMSTYLE
  2
STANDARD
 70
     0
  3

  4

  5

  6

  7

 40
1.0
 41
0.18
 42
0.0625
 43
0.38
 44
0.18
 45
0.0
 46
0.0
 47
0.0
 48
0.0
140
0.18
141
0.09
142
0.0
143
25.4
144
1.0
145
0.0
146
1.0
147
0.09
 71
     0
 72
     0
 73
     1
 74
     1
 75
     0
 76
     0
 77
     0
 78
     0
170
     0
171
     2
172
     0
173
     0
174
     0
175
     0
176
     0
177
     0
178
     0
  0
ENDTAB
  0
ENDSEC
  0
SECTION
  2
BLOCKS
  0
BLOCK
  8
0
  2
$MODEL_SPACE
 70
     0
 10
0.0
 20
0.0
 30
0.0
  3
$MODEL_SPACE
  1

  0
ENDBLK
  5
21
  8
0
  0
BLOCK
 67
     1
  8
0
  2
$PAPER_SPACE
 70
     0
 10
0.0
 20
0.0
 30
0.0
  3
$PAPER_SPACE
  1

  0
ENDBLK
  5
1D
 67
     1
  8
0
  0
ENDSEC
  0
SECTION
  2
ENTITIES
  0
POLYLINE
  5
6F
  8
0
 66
     1
 10
0.0
 20
0.0
 30
0.0
 70
     1
  0
VERTEX
  5
83
  8
0
 10
14.83964566929134
 20
-56.53656299212599
 30
0.0
  0
VERTEX
  5
84
  8
0
 10
14.78475590551181
 20
-56.49496456692913
 30
0.0
  0
VERTEX
  5
85
  8
0
 10
14.72741338582677
 20
-56.45724803149606
 30
0.0
  0
VERTEX
  5
86
  8
0
 10
14.66782677165354
 20
-56.42349606299213
 30
0.0
  0
VERTEX
  5
87
  8
0
 10
14.60620472440945
 20
-56.3938031496063
 30
0.0
  0
VERTEX
  5
88
  8
0
 10
14.54274409448819
 20
-56.36826377952756
 30
0.0
  0
VERTEX
  5
89
  8
0
 10
14.47765748031496
 20
-56.34696850393701
 30
0.0
  0
VERTEX
  5
8A
  8
0
 10
14.41115354330709
 20
-56.33000787401575
 30
0.0
  0
VERTEX
  5
8B
  8
0
 10
14.34343307086614
 20
-56.31747637795276
 30
0.0
  0
VERTEX
  5
8C
  8
0
 10
14.17009448818898
 20
-56.29133858267716
 30
0.0
  0
VERTEX
  5
8D
  8
0
 10
14.16596062992126
 20
-56.29099212598425
 30
0.0
  0
VERTEX
  5
8E
  8
0
 10
14.16187007874016
 20
-56.29119291338583
 30
0.0
  0
VERTEX
  5
8F
  8
0
 10
14.15787401574803
 20
-56.29191732283464
 30
0.0
  0
VERTEX
  5
90
  8
0
 10
14.15401968503937
 20
-56.29314960629921
 30
0.0
  0
VERTEX
  5
91
  8
0
 10
14.15035826771654
 20
-56.29486614173229
 30
0.0
  0
VERTEX
  5
92
  8
0
 10
14.14693307086614
 20
-56.29705118110236
 30
0.0
  0
VERTEX
  5
93
  8
0
 10
14.14379921259843
 20
-56.29968897637795
 30
0.0
  0
VERTEX
  5
94
  8
0
 10
14.14100393700787
 20
-56.30275196850393
 30
0.0
  0
VERTEX
  5
95
  8
0
 10
14.13863779527559
 20
-56.30616141732283
 30
0.0
  0
VERTEX
  5
96
  8
0
 10
14.13676771653543
 20
-56.30979921259843
 30
0.0
  0
VERTEX
  5
97
  8
0
 10
14.13539763779528
 20
-56.31362598425197
 30
0.0
  0
VERTEX
  5
98
  8
0
 10
14.13453543307087
 20
-56.31757874015748
 30
0.0
  0
VERTEX
  5
99
  8
0
 10
14.13419291338583
 20
-56.32161023622047
 30
0.0
  0
VERTEX
  5
9A
  8
0
 10
14.13437401574803
 20
-56.32566929133858
 30
0.0
  0
VERTEX
  5
9B
  8
0
 10
14.13508661417323
 20
-56.32970078740158
 30
0.0
  0
VERTEX
  5
9C
  8
0
 10
14.13634251968504
 20
-56.33365354330709
 30
0.0
  0
VERTEX
  5
9D
  8
0
 10
14.13811023622047
 20
-56.33740551181102
 30
0.0
  0
VERTEX
  5
9E
  8
0
 10
14.14032677165354
 20
-56.34085039370079
 30
0.0
  0
VERTEX
  5
9F
  8
0
 10
14.14295669291339
 20
-56.34394881889764
 30
0.0
  0
VERTEX
  5
A0
  8
0
 10
14.14594881889764
 20
-56.34666929133859
 30
0.0
  0
VERTEX
  5
A1
  8
0
 10
14.14926771653543
 20
-56.3489842519685
 30
0.0
  0
VERTEX
  5
A2
  8
0
 10
14.15287401574803
 20
-56.35085433070866
 30
0.0
  0
VERTEX
  5
A3
  8
0
 10
14.15672440944882
 20
-56.35224803149606
 30
0.0
  0
VERTEX
  5
A4
  8
0
 10
14.16077559055118
 20
-56.35313779527559
 30
0.0
  0
VERTEX
  5
A5
  8
0
 10
14.33411417322835
 20
-56.37927559055118
 30
0.0
  0
VERTEX
  5
A6
  8
0
 10
14.39771653543307
 20
-56.39104724409449
 30
0.0
  0
VERTEX
  5
A7
  8
0
 10
14.46018503937008
 20
-56.4069842519685
 30
0.0
  0
VERTEX
  5
A8
  8
0
 10
14.52133070866142
 20
-56.42699212598425
 30
0.0
  0
VERTEX
  5
A9
  8
0
 10
14.58095275590551
 20
-56.45098818897637
 30
0.0
  0
VERTEX
  5
AA
  8
0
 10
14.63885433070866
 20
-56.47888582677165
 30
0.0
  0
VERTEX
  5
AB
  8
0
 10
14.69483464566929
 20
-56.5105905511811
 30
0.0
  0
VERTEX
  5
AC
  8
0
 10
14.74870078740157
 20
-56.54601968503937
 30
0.0
  0
VERTEX
  5
AD
  8
0
 10
14.80025196850394
 20
-56.58508661417323
 30
0.0
  0
VERTEX
  5
AE
  8
0
 10
14.88109448818898
 20
-56.65071653543307
 30
0.0
  0
VERTEX
  5
AF
  8
0
 10
14.88448031496063
 20
-56.65311417322835
 30
0.0
  0
VERTEX
  5
B0
  8
0
 10
14.8881062992126
 20
-56.6550157480315
 30
0.0
  0
VERTEX
  5
B1
  8
0
 10
14.89191732283465
 20
-56.65642125984252
 30
0.0
  0
VERTEX
  5
B2
  8
0
 10
14.89586614173228
 20
-56.65731496062992
 30
0.0
  0
VERTEX
  5
B3
  8
0
 10
14.8998937007874
 20
-56.65769291338583
 30
0.0
  0
VERTEX
  5
B4
  8
0
 10
14.90395275590551
 20
-56.65754724409449
 30
0.0
  0
VERTEX
  5
B5
  8
0
 10
14.90798818897638
 20
-56.65686614173228
 30
0.0
  0
VERTEX
  5
B6
  8
0
 10
14.91195275590551
 20
-56.65564566929134
 30
0.0
  0
VERTEX
  5
B7
  8
0
 10
14.91572047244095
 20
-56.6539094488189
 30
0.0
  0
VERTEX
  5
B8
  8
0
 10
14.9191811023622
 20
-56.65172047244094
 30
0.0
  0
VERTEX
  5
B9
  8
0
 10
14.9223031496063
 20
-56.64912204724409
 30
0.0
  0
VERTEX
  5
BA
  8
0
 10
14.92505118110236
 20
-56.64615354330709
 30
0.0
  0
VERTEX
  5
BB
  8
0
 10
14.9273937007874
 20
-56.64285039370079
 30
0.0
  0
VERTEX
  5
BC
  8
0
 10
14.92929527559055
 20
-56.63926377952756
 30
0.0
  0
VERTEX
  5
BD
  8
0
 10
14.93072440944882
 20
-56.63542519685039
 30
0.0
  0
VERTEX
  5
BE
  8
0
 10
14.93164960629921
 20
-56.63138188976378
 30
0.0
  0
VERTEX
  5
BF
  8
0
 10
14.93203149606299
 20
-56.62725196850393
 30
0.0
  0
VERTEX
  5
C0
  8
0
 10
14.93186614173228
 20
-56.62316141732283
 30
0.0
  0
VERTEX
  5
C1
  8
0
 10
14.93117716535433
 20
-56.61915748031496
 30
0.0
  0
VERTEX
  5
C2
  8
0
 10
14.92998031496063
 20
-56.61529527559055
 30
0.0
  0
VERTEX
  5
C3
  8
0
 10
14.92829133858268
 20
-56.61161417322835
 30
0.0
  0
VERTEX
  5
C4
  8
0
 10
14.92613385826772
 20
-56.60817322834646
 30
0.0
  0
VERTEX
  5
C5
  8
0
 10
14.92352755905512
 20
-56.6050157480315
 30
0.0
  0
VERTEX
  5
C6
  8
0
 10
14.92048818897638
 20
-56.60219291338583
 30
0.0
  0
VERTEX
  5
C7
  8
0
 10
14.83964566929134
 20
-56.53656299212599
 30
0.0
  0
SEQEND
  5
5D1
  8
0
  0
POLYLINE
  5
70
  8
0
 66
     1
 10
0.0
 20
0.0
 30
0.0
 70
     1
  0
VERTEX
  5
C8
  8
0
 10
12.67462204724409
 20
-56.90541732283464
 30
0.0
  0
VERTEX
  5
C9
  8
0
 10
12.6696811023622
 20
-56.92070078740157
 30
0.0
  0
VERTEX
  5
CA
  8
0
 10
12.66525196850394
 20
-56.93604330708661
 30
0.0
  0
VERTEX
  5
CB
  8
0
 10
12.66133858267717
 20
-56.95144094488189
 30
0.0
  0
VERTEX
  5
CC
  8
0
 10
12.65794094488189
 20
-56.96688582677165
 30
0.0
  0
VERTEX
  5
CD
  8
0
 10
12.65506299212598
 20
-56.9823779527559
 30
0.0
  0
VERTEX
  5
CE
  8
0
 10
12.65270472440945
 20
-56.99790551181103
 30
0.0
  0
VERTEX
  5
CF
  8
0
 10
12.65086614173228
 20
-57.01346850393701
 30
0.0
  0
VERTEX
  5
D0
  8
0
 10
12.64955118110236
 20
-57.02905905511811
 30
0.0
  0
VERTEX
  5
D1
  8
0
 10
12.47385826771654
 20
-57.02905905511811
 30
0.0
  0
VERTEX
  5
D2
  8
0
 10
12.47385826771654
 20
-57.09205905511811
 30
0.0
  0
VERTEX
  5
D3
  8
0
 10
12.64955118110236
 20
-57.09205905511811
 30
0.0
  0
VERTEX
  5
D4
  8
0
 10
12.67815354330709
 20
-57.22613385826772
 30
0.0
  0
VERTEX
  5
D5
  8
0
 10
12.74292913385827
 20
-57.35116929133859
 30
0.0
  0
VERTEX
  5
D6
  8
0
 10
12.8402874015748
 20
-57.46479921259842
 30
0.0
  0
VERTEX
  5
D7
  8
0
 10
12.96665748031496
 20
-57.56465748031496
 30
0.0
  0
VERTEX
  5
D8
  8
0
 10
13.11844488188976
 20
-57.64838188976378
 30
0.0
  0
VERTEX
  5
D9
  8
0
 10
13.29207480314961
 20
-57.71361023622048
 30
0.0
  0
VERTEX
  5
DA
  8
0
 10
13.48396456692913
 20
-57.75797637795276
 30
0.0
  0
VERTEX
  5
DB
  8
0
 10
13.69053149606299
 20
-57.77911417322834
 30
0.0
  0
VERTEX
  5
DC
  8
0
 10
13.69450787401575
 20
-57.77885039370079
 30
0.0
  0
VERTEX
  5
DD
  8
0
 10
13.69836220472441
 20
-57.77807480314961
 30
0.0
  0
VERTEX
  5
DE
  8
0
 10
13.70205511811024
 20
-57.77681496062992
 30
0.0
  0
VERTEX
  5
DF
  8
0
 10
13.70553937007874
 20
-57.77509448818898
 30
0.0
  0
VERTEX
  5
E0
  8
0
 10
13.70877165354331
 20
-57.77293700787401
 30
0.0
  0
VERTEX
  5
E1
  8
0
 10
13.71170866141732
 20
-57.77037007874016
 30
0.0
  0
VERTEX
  5
E2
  8
0
 10
13.71430708661417
 20
-57.76742125984252
 30
0.0
  0
VERTEX
  5
E3
  8
0
 10
13.71652362204724
 20
-57.76411023622047
 30
0.0
  0
VERTEX
  5
E4
  8
0
 10
13.71828346456693
 20
-57.76053543307086
 30
0.0
  0
VERTEX
  5
E5
  8
0
 10
13.71953937007874
 20
-57.75680708661417
 30
0.0
  0
VERTEX
  5
E6
  8
0
 10
13.72029133858268
 20
-57.75298031496063
 30
0.0
  0
VERTEX
  5
E7
  8
0
 10
13.72054330708661
 20
-57.7491062992126
 30
0.0
  0
VERTEX
  5
E8
  8
0
 10
13.72029133858268
 20
-57.74522834645669
 30
0.0
  0
VERTEX
  5
E9
  8
0
 10
13.71953937007874
 20
-57.74140157480315
 30
0.0
  0
VERTEX
  5
EA
  8
0
 10
13.71828346456693
 20
-57.73767322834646
 30
0.0
  0
VERTEX
  5
EB
  8
0
 10
13.71652362204724
 20
-57.73409842519685
 30
0.0
  0
VERTEX
  5
EC
  8
0
 10
13.71430708661417
 20
-57.7307874015748
 30
0.0
  0
VERTEX
  5
ED
  8
0
 10
13.71170866141732
 20
-57.72783858267717
 30
0.0
  0
VERTEX
  5
EE
  8
0
 10
13.70877165354331
 20
-57.72527165354331
 30
0.0
  0
VERTEX
  5
EF
  8
0
 10
13.70553937007874
 20
-57.72311417322835
 30
0.0
  0
VERTEX
  5
F0
  8
0
 10
13.70205511811024
 20
-57.7213937007874
 30
0.0
  0
VERTEX
  5
F1
  8
0
 10
13.69836220472441
 20
-57.72013385826772
 30
0.0
  0
VERTEX
  5
F2
  8
0
 10
13.69450787401575
 20
-57.71935826771654
 30
0.0
  0
VERTEX
  5
F3
  8
0
 10
13.69053149606299
 20
-57.71909448818898
 30
0.0
  0
VERTEX
  5
F4
  8
0
 10
13.64519291338583
 20
-57.71681496062992
 30
0.0
  0
VERTEX
  5
F5
  8
0
 10
13.60005511811024
 20
-57.71332283464567
 30
0.0
  0
VERTEX
  5
F6
  8
0
 10
13.55520078740157
 20
-57.70861811023622
 30
0.0
  0
VERTEX
  5
F7
  8
0
 10
13.51071653543307
 20
-57.70270472440945
 30
0.0
  0
VERTEX
  5
F8
  8
0
 10
13.46668897637795
 20
-57.69559448818897
 30
0.0
  0
VERTEX
  5
F9
  8
0
 10
13.42320078740157
 20
-57.6872874015748
 30
0.0
  0
VERTEX
  5
FA
  8
0
 10
13.38033858267717
 20
-57.6777874015748
 30
0.0
  0
VERTEX
  5
FB
  8
0
 10
13.33819291338583
 20
-57.66709842519685
 30
0.0
  0
VERTEX
  5
FC
  8
0
 10
13.26575590551181
 20
-57.64537795275591
 30
0.0
  0
VERTEX
  5
FD
  8
0
 10
13.19627165354331
 20
-57.62023228346457
 30
0.0
  0
VERTEX
  5
FE
  8
0
 10
13.13008267716535
 20
-57.5918937007874
 30
0.0
  0
VERTEX
  5
FF
  8
0
 10
13.06753543307087
 20
-57.56059842519685
 30
0.0
  0
VERTEX
  5
100
  8
0
 10
13.00896850393701
 20
-57.52657874015748
 30
0.0
  0
VERTEX
  5
101
  8
0
 10
12.95473228346457
 20
-57.49006692913386
 30
0.0
  0
VERTEX
  5
102
  8
0
 10
12.90517322834646
 20
-57.45129921259843
 30
0.0
  0
VERTEX
  5
103
  8
0
 10
12.86062992125984
 20
-57.41050787401575
 30
0.0
  0
VERTEX
  5
104
  8
0
 10
12.82586614173228
 20
-57.37327165354331
 30
0.0
  0
VERTEX
  5
105
  8
0
 10
12.79526377952756
 20
-57.335
 30
0.0
  0
VERTEX
  5
106
  8
0
 10
12.76883070866142
 20
-57.29583858267716
 30
0.0
  0
VERTEX
  5
107
  8
0
 10
12.74658661417323
 20
-57.25594881889764
 30
0.0
  0
VERTEX
  5
108
  8
0
 10
12.72853937007874
 20
-57.21547244094488
 30
0.0
  0
VERTEX
  5
109
  8
0
 10
12.71470472440945
 20
-57.17456299212598
 30
0.0
  0
VERTEX
  5
10A
  8
0
 10
12.70509448818898
 20
-57.13337795275591
 30
0.0
  0
VERTEX
  5
10B
  8
0
 10
12.69972440944882
 20
-57.09205905511811
 30
0.0
  0
VERTEX
  5
10C
  8
0
 10
12.78635826771654
 20
-57.09205905511811
 30
0.0
  0
VERTEX
  5
10D
  8
0
 10
12.78635826771654
 20
-57.02905905511811
 30
0.0
  0
VERTEX
  5
10E
  8
0
 10
12.69970866141732
 20
-57.02905905511811
 30
0.0
  0
VERTEX
  5
10F
  8
0
 10
12.70238582677165
 20
-57.00432677165355
 30
0.0
  0
VERTEX
  5
110
  8
0
 10
12.70657480314961
 20
-56.97963385826772
 30
0.0
  0
VERTEX
  5
111
  8
0
 10
12.7122874015748
 20
-56.95499606299212
 30
0.0
  0
VERTEX
  5
112
  8
0
 10
12.71951968503937
 20
-56.93044488188976
 30
0.0
  0
VERTEX
  5
113
  8
0
 10
12.72113385826772
 20
-56.92696456692914
 30
0.0
  0
VERTEX
  5
114
  8
0
 10
12.7221968503937
 20
-56.92334251968504
 30
0.0
  0
VERTEX
  5
115
  8
0
 10
12.7227125984252
 20
-56.91964173228347
 30
0.0
  0
VERTEX
  5
116
  8
0
 10
12.72269291338583
 20
-56.91592125984252
 30
0.0
  0
VERTEX
  5
117
  8
0
 10
12.72213385826772
 20
-56.91224409448819
 30
0.0
  0
VERTEX
  5
118
  8
0
 10
12.72104724409449
 20
-56.90866929133858
 30
0.0
  0
VERTEX
  5
119
  8
0
 10
12.71942913385827
 20
-56.90525590551181
 30
0.0
  0
VERTEX
  5
11A
  8
0
 10
12.71729527559055
 20
-56.90207086614173
 30
0.0
  0
VERTEX
  5
11B
  8
0
 10
12.71470866141732
 20
-56.89923622047244
 30
0.0
  0
VERTEX
  5
11C
  8
0
 10
12.71178346456693
 20
-56.89685433070866
 30
0.0
  0
VERTEX
  5
11D
  8
0
 10
12.70857086614173
 20
-56.89494488188976
 30
0.0
  0
VERTEX
  5
11E
  8
0
 10
12.70513385826772
 20
-56.89352755905512
 30
0.0
  0
VERTEX
  5
11F
  8
0
 10
12.70152755905512
 20
-56.89261811023622
 30
0.0
  0
VERTEX
  5
120
  8
0
 10
12.69781102362205
 20
-56.89224015748032
 30
0.0
  0
VERTEX
  5
121
  8
0
 10
12.69403937007874
 20
-56.8924094488189
 30
0.0
  0
VERTEX
  5
122
  8
0
 10
12.69027559055118
 20
-56.89314566929134
 30
0.0
  0
VERTEX
  5
123
  8
0
 10
12.68543307086614
 20
-56.8950157480315
 30
0.0
  0
VERTEX
  5
124
  8
0
 10
12.68114173228346
 20
-56.89775984251968
 30
0.0
  0
VERTEX
  5
125
  8
0
 10
12.67750393700787
 20
-56.90126771653544
 30
0.0
  0
VERTEX
  5
126
  8
0
 10
12.67462204724409
 20
-56.90541732283464
 30
0.0
  0
SEQEND
  5
5D2
  8
0
  0
POLYLINE
  5
71
  8
0
 66
     1
 10
0.0
 20
0.0
 30
0.0
 70
     1
  0
VERTEX
  5
127
  8
0
 10
14.84299606299213
 20
-56.89307874015748
 30
0.0
  0
VERTEX
  5
128
  8
0
 10
14.84937007874016
 20
-56.91137401574803
 30
0.0
  0
VERTEX
  5
129
  8
0
 10
14.85500787401575
 20
-56.92976771653543
 30
0.0
  0
VERTEX
  5
12A
  8
0
 10
14.85990157480315
 20
-56.94825196850394
 30
0.0
  0
VERTEX
  5
12B
  8
0
 10
14.86404724409449
 20
-56.96681102362205
 30
0.0
  0
VERTEX
  5
12C
  8
0
 10
14.87103149606299
 20
-56.96681102362205
 30
0.0
  0
VERTEX
  5
12D
  8
0
 10
14.87273228346457
 20
-56.96699606299212
 30
0.0
  0
VERTEX
  5
12E
  8
0
 10
14.89288582677165
 20
-56.96775196850394
 30
0.0
  0
VERTEX
  5
12F
  8
0
 10
14.91263385826772
 20
-56.96564173228347
 30
0.0
  0
VERTEX
  5
130
  8
0
 10
14.93170472440945
 20
-56.96080708661417
 30
0.0
  0
VERTEX
  5
131
  8
0
 10
14.94982677165354
 20
-56.95337795275591
 30
0.0
  0
VERTEX
  5
132
  8
0
 10
14.96673228346457
 20
-56.94348818897637
 30
0.0
  0
VERTEX
  5
133
  8
0
 10
14.98215354330709
 20
-56.93126771653543
 30
0.0
  0
VERTEX
  5
134
  8
0
 10
14.99581496062992
 20
-56.91685433070866
 30
0.0
  0
VERTEX
  5
135
  8
0
 10
15.00745275590551
 20
-56.90038188976378
 30
0.0
  0
VERTEX
  5
136
  8
0
 10
15.01659842519685
 20
-56.88240551181102
 30
0.0
  0
VERTEX
  5
137
  8
0
 10
15.02298031496063
 20
-56.86359842519685
 30
0.0
  0
VERTEX
  5
138
  8
0
 10
15.02659842519685
 20
-56.84425984251968
 30
0.0
  0
VERTEX
  5
139
  8
0
 10
15.02746456692913
 20
-56.82469291338582
 30
0.0
  0
VERTEX
  5
13A
  8
0
 10
15.02558661417323
 20
-56.80519291338582
 30
0.0
  0
VERTEX
  5
13B
  8
0
 10
15.02097244094488
 20
-56.78607086614173
 30
0.0
  0
VERTEX
  5
13C
  8
0
 10
15.01362598425197
 20
-56.76761811023622
 30
0.0
  0
VERTEX
  5
13D
  8
0
 10
15.00356299212598
 20
-56.75013779527559
 30
0.0
  0
VERTEX
  5
13E
  8
0
 10
15.00335826771654
 20
-56.74997244094488
 30
0.0
  0
VERTEX
  5
13F
  8
0
 10
15.0003188976378
 20
-56.74714960629921
 30
0.0
  0
VERTEX
  5
140
  8
0
 10
14.99770866141732
 20
-56.74399606299212
 30
0.0
  0
VERTEX
  5
141
  8
0
 10
14.99555118110236
 20
-56.74055118110236
 30
0.0
  0
VERTEX
  5
142
  8
0
 10
14.99386614173228
 20
-56.73687401574803
 30
0.0
  0
VERTEX
  5
143
  8
0
 10
14.99266929133858
 20
-56.73301181102362
 30
0.0
  0
VERTEX
  5
144
  8
0
 10
14.99198031496063
 20
-56.72900787401575
 30
0.0
  0
VERTEX
  5
145
  8
0
 10
14.99181496062992
 20
-56.72491338582677
 30
0.0
  0
VERTEX
  5
146
  8
0
 10
14.9921968503937
 20
-56.72078346456693
 30
0.0
  0
VERTEX
  5
147
  8
0
 10
14.99312204724409
 20
-56.71674015748032
 30
0.0
  0
VERTEX
  5
148
  8
0
 10
14.99455118110236
 20
-56.71290157480315
 30
0.0
  0
VERTEX
  5
149
  8
0
 10
14.99645275590551
 20
-56.70931496062992
 30
0.0
  0
VERTEX
  5
14A
  8
0
 10
14.99879527559055
 20
-56.7060157480315
 30
0.0
  0
VERTEX
  5
14B
  8
0
 10
15.00154330708661
 20
-56.70304724409448
 30
0.0
  0
VERTEX
  5
14C
  8
0
 10
15.00466141732283
 20
-56.70044488188977
 30
0.0
  0
VERTEX
  5
14D
  8
0
 10
15.0081220472441
 20
-56.69825984251968
 30
0.0
  0
VERTEX
  5
14E
  8
0
 10
15.01188976377953
 20
-56.69652362204724
 30
0.0
  0
VERTEX
  5
14F
  8
0
 10
15.01585433070866
 20
-56.6953031496063
 30
0.0
  0
VERTEX
  5
150
  8
0
 10
15.0198937007874
 20
-56.6946220472441
 30
0.0
  0
VERTEX
  5
151
  8
0
 10
15.02395275590551
 20
-56.69447244094489
 30
0.0
  0
VERTEX
  5
152
  8
0
 10
15.02798031496063
 20
-56.69485433070866
 30
0.0
  0
VERTEX
  5
153
  8
0
 10
15.03192519685039
 20
-56.69574803149607
 30
0.0
  0
VERTEX
  5
154
  8
0
 10
15.03574015748032
 20
-56.69714960629921
 30
0.0
  0
VERTEX
  5
155
  8
0
 10
15.03936614173228
 20
-56.69905511811024
 30
0.0
  0
VERTEX
  5
156
  8
0
 10
15.04275196850394
 20
-56.70144881889764
 30
0.0
  0
VERTEX
  5
157
  8
0
 10
15.04961023622047
 20
-56.70701968503937
 30
0.0
  0
VERTEX
  5
158
  8
0
 10
15.05204724409449
 20
-56.71041338582677
 30
0.0
  0
VERTEX
  5
159
  8
0
 10
15.06730708661417
 20
-56.73524409448819
 30
0.0
  0
VERTEX
  5
15A
  8
0
 10
15.07868503937008
 20
-56.76159448818898
 30
0.0
  0
VERTEX
  5
15B
  8
0
 10
15.08615748031496
 20
-56.78902755905512
 30
0.0
  0
VERTEX
  5
15C
  8
0
 10
15.08970078740158
 20
-56.81711417322835
 30
0.0
  0
VERTEX
  5
15D
  8
0
 10
15.0892874015748
 20
-56.84541732283465
 30
0.0
  0
VERTEX
  5
15E
  8
0
 10
15.08489763779528
 20
-56.87350787401575
 30
0.0
  0
VERTEX
  5
15F
  8
0
 10
15.07650393700787
 20
-56.90095275590551
 30
0.0
  0
VERTEX
  5
160
  8
0
 10
15.06408267716535
 20
-56.9273188976378
 30
0.0
  0
VERTEX
  5
161
  8
0
 10
15.04800787401575
 20
-56.95162992125984
 30
0.0
  0
VERTEX
  5
162
  8
0
 10
15.02891732283465
 20
-56.97306299212598
 30
0.0
  0
VERTEX
  5
163
  8
0
 10
15.0071968503937
 20
-56.99141338582677
 30
0.0
  0
VERTEX
  5
164
  8
0
 10
14.98322834645669
 20
-57.00647244094488
 30
0.0
  0
VERTEX
  5
165
  8
0
 10
14.95738976377953
 20
-57.01803937007874
 30
0.0
  0
VERTEX
  5
166
  8
0
 10
14.93006692913386
 20
-57.0259094488189
 30
0.0
  0
VERTEX
  5
167
  8
0
 10
14.90164173228346
 20
-57.0298779527559
 30
0.0
  0
VERTEX
  5
168
  8
0
 10
14.87249606299213
 20
-57.02974015748031
 30
0.0
  0
VERTEX
  5
169
  8
0
 10
14.86033464566929
 20
-57.17187401574803
 30
0.0
  0
VERTEX
  5
16A
  8
0
 10
14.80722440944882
 20
-57.30586220472441
 30
0.0
  0
VERTEX
  5
16B
  8
0
 10
14.71708661417323
 20
-57.42883464566929
 30
0.0
  0
VERTEX
  5
16C
  8
0
 10
14.59383464566929
 20
-57.53793307086614
 30
0.0
  0
VERTEX
  5
16D
  8
0
 10
14.44138582677165
 20
-57.63029527559055
 30
0.0
  0
VERTEX
  5
16E
  8
0
 10
14.26365354330709
 20
-57.70306299212599
 30
0.0
  0
VERTEX
  5
16F
  8
0
 10
14.06455511811024
 20
-57.75337007874015
 30
0.0
  0
VERTEX
  5
170
  8
0
 10
13.84801181102362
 20
-57.77835433070866
 30
0.0
  0
VERTEX
  5
171
  8
0
 10
13.8439842519685
 20
-57.77808661417323
 30
0.0
  0
VERTEX
  5
172
  8
0
 10
13.84007480314961
 20
-57.7773031496063
 30
0.0
  0
VERTEX
  5
173
  8
0
 10
13.83633464566929
 20
-57.77602362204724
 30
0.0
  0
VERTEX
  5
174
  8
0
 10
13.8328031496063
 20
-57.77427952755905
 30
0.0
  0
VERTEX
  5
175
  8
0
 10
13.82952755905512
 20
-57.77209448818898
 30
0.0
  0
VERTEX
  5
176
  8
0
 10
13.82655118110236
 20
-57.76949212598425
 30
0.0
  0
VERTEX
  5
177
  8
0
 10
13.82391732283465
 20
-57.7665
 30
0.0
  0
VERTEX
  5
178
  8
0
 10
13.82166929133858
 20
-57.76314566929134
 30
0.0
  0
VERTEX
  5
179
  8
0
 10
13.81988582677165
 20
-57.75952362204725
 30
0.0
  0
VERTEX
  5
17A
  8
0
 10
13.81861417322835
 20
-57.75574803149606
 30
0.0
  0
VERTEX
  5
17B
  8
0
 10
13.81785039370079
 20
-57.75187007874015
 30
0.0
  0
VERTEX
  5
17C
  8
0
 10
13.81759448818898
 20
-57.74793700787401
 30
0.0
  0
VERTEX
  5
17D
  8
0
 10
13.81785039370079
 20
-57.74400787401575
 30
0.0
  0
VERTEX
  5
17E
  8
0
 10
13.81861417322835
 20
-57.74012992125984
 30
0.0
  0
VERTEX
  5
17F
  8
0
 10
13.81988582677165
 20
-57.73635039370079
 30
0.0
  0
VERTEX
  5
180
  8
0
 10
13.82166929133858
 20
-57.7327283464567
 30
0.0
  0
VERTEX
  5
181
  8
0
 10
13.82391732283465
 20
-57.72937401574803
 30
0.0
  0
VERTEX
  5
182
  8
0
 10
13.82655118110236
 20
-57.72638188976378
 30
0.0
  0
VERTEX
  5
183
  8
0
 10
13.82952755905512
 20
-57.72377952755905
 30
0.0
  0
VERTEX
  5
184
  8
0
 10
13.8328031496063
 20
-57.72159448818898
 30
0.0
  0
VERTEX
  5
185
  8
0
 10
13.83633464566929
 20
-57.71985039370079
 30
0.0
  0
VERTEX
  5
186
  8
0
 10
13.84007480314961
 20
-57.71857480314961
 30
0.0
  0
VERTEX
  5
187
  8
0
 10
13.8439842519685
 20
-57.7177874015748
 30
0.0
  0
VERTEX
  5
188
  8
0
 10
13.84801181102362
 20
-57.71751968503937
 30
0.0
  0
VERTEX
  5
189
  8
0
 10
13.86881889763779
 20
-57.71620078740158
 30
0.0
  0
VERTEX
  5
18A
  8
0
 10
13.88957874015748
 20
-57.71461811023622
 30
0.0
  0
VERTEX
  5
18B
  8
0
 10
13.91028346456693
 20
-57.71277559055118
 30
0.0
  0
VERTEX
  5
18C
  8
0
 10
13.93092519685039
 20
-57.71066929133858
 30
0.0
  0
VERTEX
  5
18D
  8
0
 10
13.95149606299213
 20
-57.70829527559055
 30
0.0
  0
VERTEX
  5
18E
  8
0
 10
13.9719842519685
 20
-57.70566141732284
 30
0.0
  0
VERTEX
  5
18F
  8
0
 10
13.99238188976378
 20
-57.70276377952756
 30
0.0
  0
VERTEX
  5
190
  8
0
 10
14.01268503937008
 20
-57.69959842519685
 30
0.0
  0
VERTEX
  5
191
  8
0
 10
14.08857480314961
 20
-57.68524409448819
 30
0.0
  0
VERTEX
  5
192
  8
0
 10
14.16246850393701
 20
-57.6672874015748
 30
0.0
  0
VERTEX
  5
193
  8
0
 10
14.23398031496063
 20
-57.64590157480315
 30
0.0
  0
VERTEX
  5
194
  8
0
 10
14.30272834645669
 20
-57.62127165354331
 30
0.0
  0
VERTEX
  5
195
  8
0
 10
14.36832677165354
 20
-57.59357480314961
 30
0.0
  0
VERTEX
  5
196
  8
0
 10
14.43039763779528
 20
-57.5629842519685
 30
0.0
  0
VERTEX
  5
197
  8
0
 10
14.48855511811024
 20
-57.5296811023622
 30
0.0
  0
VERTEX
  5
198
  8
0
 10
14.54241732283465
 20
-57.49384645669291
 30
0.0
  0
VERTEX
  5
199
  8
0
 10
14.5892125984252
 20
-57.45773622047244
 30
0.0
  0
VERTEX
  5
19A
  8
0
 10
14.63161811023622
 20
-57.41987007874016
 30
0.0
  0
VERTEX
  5
19B
  8
0
 10
14.66954724409449
 20
-57.38047637795275
 30
0.0
  0
VERTEX
  5
19C
  8
0
 10
14.70291338582677
 20
-57.3397874015748
 30
0.0
  0
VERTEX
  5
19D
  8
0
 10
14.73163385826772
 20
-57.29803149606299
 30
0.0
  0
VERTEX
  5
19E
  8
0
 10
14.75561811023622
 20
-57.25543700787401
 30
0.0
  0
VERTEX
  5
19F
  8
0
 10
14.77478346456693
 20
-57.21223228346457
 30
0.0
  0
VERTEX
  5
1A0
  8
0
 10
14.78903937007874
 20
-57.16864960629921
 30
0.0
  0
VERTEX
  5
1A1
  8
0
 10
14.79373622047244
 20
-57.14950787401575
 30
0.0
  0
VERTEX
  5
1A2
  8
0
 10
14.7975157480315
 20
-57.13031102362205
 30
0.0
  0
VERTEX
  5
1A3
  8
0
 10
14.80037795275591
 20
-57.11107480314961
 30
0.0
  0
VERTEX
  5
1A4
  8
0
 10
14.80233070866142
 20
-57.09181102362205
 30
0.0
  0
VERTEX
  5
1A5
  8
0
 10
14.69841732283465
 20
-57.09181102362205
 30
0.0
  0
VERTEX
  5
1A6
  8
0
 10
14.69841732283465
 20
-57.02931102362205
 30
0.0
  0
VERTEX
  5
1A7
  8
0
 10
14.80235826771654
 20
-57.02931102362205
 30
0.0
  0
VERTEX
  5
1A8
  8
0
 10
14.79977952755906
 20
-57.00509842519685
 30
0.0
  0
VERTEX
  5
1A9
  8
0
 10
14.79574803149606
 20
-56.98093700787402
 30
0.0
  0
VERTEX
  5
1AA
  8
0
 10
14.79026771653543
 20
-56.95685039370079
 30
0.0
  0
VERTEX
  5
1AB
  8
0
 10
14.78333464566929
 20
-56.93286220472441
 30
0.0
  0
VERTEX
  5
1AC
  8
0
 10
14.78062204724409
 20
-56.92802362204724
 30
0.0
  0
VERTEX
  5
1AD
  8
0
 10
14.77872047244094
 20
-56.92291732283464
 30
0.0
  0
VERTEX
  5
1AE
  8
0
 10
14.77761811023622
 20
-56.91763779527559
 30
0.0
  0
VERTEX
  5
1AF
  8
0
 10
14.77732283464567
 20
-56.91227952755906
 30
0.0
  0
VERTEX
  5
1B0
  8
0
 10
14.77782677165354
 20
-56.90693700787401
 30
0.0
  0
VERTEX
  5
1B1
  8
0
 10
14.77912992125984
 20
-56.90170472440945
 30
0.0
  0
VERTEX
  5
1B2
  8
0
 10
14.78123228346457
 20
-56.89667716535433
 30
0.0
  0
VERTEX
  5
1B3
  8
0
 10
14.78412992125984
 20
-56.89194488188976
 30
0.0
  0
VERTEX
  5
1B4
  8
0
 10
14.78772047244095
 20
-56.88771653543307
 30
0.0
  0
VERTEX
  5
1B5
  8
0
 10
14.79184251968504
 20
-56.88414960629921
 30
0.0
  0
VERTEX
  5
1B6
  8
0
 10
14.79640551181102
 20
-56.88127952755905
 30
0.0
  0
VERTEX
  5
1B7
  8
0
 10
14.80132283464567
 20
-56.87912992125985
 30
0.0
  0
VERTEX
  5
1B8
  8
0
 10
14.80650787401575
 20
-56.87774015748032
 30
0.0
  0
VERTEX
  5
1B9
  8
0
 10
14.81186614173228
 20
-56.87713779527559
 30
0.0
  0
VERTEX
  5
1BA
  8
0
 10
14.81731102362205
 20
-56.87735433070866
 30
0.0
  0
VERTEX
  5
1BB
  8
0
 10
14.82275590551181
 20
-56.87842125984252
 30
0.0
  0
VERTEX
  5
1BC
  8
0
 10
14.82883858267716
 20
-56.88072047244094
 30
0.0
  0
VERTEX
  5
1BD
  8
0
 10
14.83430708661417
 20
-56.88400787401575
 30
0.0
  0
VERTEX
  5
1BE
  8
0
 10
14.83905511811024
 20
-56.88816535433071
 30
0.0
  0
VERTEX
  5
1BF
  8
0
 10
14.84299606299213
 20
-56.89307874015748
 30
0.0
  0
SEQEND
  5
5D3
  8
0
  0
POLYLINE
  5
72
  8
0
 66
     1
 10
0.0
 20
0.0
 30
0.0
 70
     1
  0
VERTEX
  5
1C0
  8
0
 10
12.60202362204724
 20
-56.38322047244095
 30
0.0
  0
VERTEX
  5
1C1
  8
0
 10
12.70368897637795
 20
-56.30062992125984
 30
0.0
  0
VERTEX
  5
1C2
  8
0
 10
12.81555511811024
 20
-56.22658267716535
 30
0.0
  0
VERTEX
  5
1C3
  8
0
 10
12.93658661417323
 20
-56.16147244094488
 30
0.0
  0
VERTEX
  5
1C4
  8
0
 10
13.06574409448819
 20
-56.10570472440945
 30
0.0
  0
VERTEX
  5
1C5
  8
0
 10
13.20198818897638
 20
-56.05966929133858
 30
0.0
  0
VERTEX
  5
1C6
  8
0
 10
13.3442874015748
 20
-56.02377165354331
 30
0.0
  0
VERTEX
  5
1C7
  8
0
 10
13.49160236220473
 20
-55.99840551181102
 30
0.0
  0
VERTEX
  5
1C8
  8
0
 10
13.6428937007874
 20
-55.98396850393701
 30
0.0
  0
VERTEX
  5
1C9
  8
0
 10
13.6428937007874
 20
-55.79935433070866
 30
0.0
  0
VERTEX
  5
1CA
  8
0
 10
13.87911417322835
 20
-55.79935433070866
 30
0.0
  0
VERTEX
  5
1CB
  8
0
 10
13.87911417322835
 20
-55.98396850393701
 30
0.0
  0
VERTEX
  5
1CC
  8
0
 10
13.90936614173228
 20
-55.98594094488189
 30
0.0
  0
VERTEX
  5
1CD
  8
0
 10
13.93954724409449
 20
-55.98836220472441
 30
0.0
  0
VERTEX
  5
1CE
  8
0
 10
13.96964566929134
 20
-55.99122834645669
 30
0.0
  0
VERTEX
  5
1CF
  8
0
 10
13.99965354330709
 20
-55.99454330708662
 30
0.0
  0
VERTEX
  5
1D0
  8
0
 10
14.02956299212598
 20
-55.99829527559055
 30
0.0
  0
VERTEX
  5
1D1
  8
0
 10
14.05936614173228
 20
-56.00249606299212
 30
0.0
  0
VERTEX
  5
1D2
  8
0
 10
14.08905118110236
 20
-56.00713385826771
 30
0.0
  0
VERTEX
  5
1D3
  8
0
 10
14.1186062992126
 20
-56.01221259842519
 30
0.0
  0
VERTEX
  5
1D4
  8
0
 10
14.12253937007874
 20
-56.01316141732283
 30
0.0
  0
VERTEX
  5
1D5
  8
0
 10
14.12626377952756
 20
-56.01461023622047
 30
0.0
  0
VERTEX
  5
1D6
  8
0
 10
14.12973622047244
 20
-56.01651574803149
 30
0.0
  0
VERTEX
  5
1D7
  8
0
 10
14.13292125984252
 20
-56.01884645669291
 30
0.0
  0
VERTEX
  5
1D8
  8
0
 10
14.13577559055118
 20
-56.0215748031496
 30
0.0
  0
VERTEX
  5
1D9
  8
0
 10
14.13825590551181
 20
-56.02466141732283
 30
0.0
  0
VERTEX
  5
1DA
  8
0
 10
14.14033070866142
 20
-56.02807480314961
 30
0.0
  0
VERTEX
  5
1DB
  8
0
 10
14.14195275590551
 20
-56.03178346456693
 30
0.0
  0
VERTEX
  5
1DC
  8
0
 10
14.14306692913386
 20
-56.03567322834645
 30
0.0
  0
VERTEX
  5
1DD
  8
0
 10
14.14364960629921
 20
-56.03962598425197
 30
0.0
  0
VERTEX
  5
1DE
  8
0
 10
14.14370472440945
 20
-56.04358661417323
 30
0.0
  0
VERTEX
  5
1DF
  8
0
 10
14.14324803149606
 20
-56.04750787401575
 30
0.0
  0
VERTEX
  5
1E0
  8
0
 10
14.14228346456693
 20
-56.05133464566929
 30
0.0
  0
VERTEX
  5
1E1
  8
0
 10
14.14082677165354
 20
-56.05501574803149
 30
0.0
  0
VERTEX
  5
1E2
  8
0
 10
14.13888188976378
 20
-56.05850787401575
 30
0.0
  0
VERTEX
  5
1E3
  8
0
 10
14.13645669291339
 20
-56.06174803149607
 30
0.0
  0
VERTEX
  5
1E4
  8
0
 10
14.13370078740157
 20
-56.06457086614173
 30
0.0
  0
VERTEX
  5
1E5
  8
0
 10
14.13064566929134
 20
-56.06698031496063
 30
0.0
  0
VERTEX
  5
1E6
  8
0
 10
14.12733070866142
 20
-56.06896062992126
 30
0.0
  0
VERTEX
  5
1E7
  8
0
 10
14.12380708661417
 20
-56.0705
 30
0.0
  0
VERTEX
  5
1E8
  8
0
 10
14.12011811023622
 20
-56.07157874015748
 30
0.0
  0
VERTEX
  5
1E9
  8
0
 10
14.11631102362205
 20
-56.07218503937008
 30
0.0
  0
VERTEX
  5
1EA
  8
0
 10
14.11242913385827
 20
-56.07229921259842
 30
0.0
  0
VERTEX
  5
1EB
  8
0
 10
14.1085157480315
 20
-56.0719094488189
 30
0.0
  0
VERTEX
  5
1EC
  8
0
 10
14.10834251968504
 20
-56.07187795275591
 30
0.0
  0
VERTEX
  5
1ED
  8
0
 10
14.06944881889764
 20
-56.06517322834646
 30
0.0
  0
VERTEX
  5
1EE
  8
0
 10
14.03032677165354
 20
-56.05927165354331
 30
0.0
  0
VERTEX
  5
1EF
  8
0
 10
13.99101181102362
 20
-56.05417322834646
 30
0.0
  0
VERTEX
  5
1F0
  8
0
 10
13.9515157480315
 20
-56.04988188976378
 30
0.0
  0
VERTEX
  5
1F1
  8
0
 10
13.91187007874016
 20
-56.04639763779527
 30
0.0
  0
VERTEX
  5
1F2
  8
0
 10
13.87209448818898
 20
-56.04372047244095
 30
0.0
  0
VERTEX
  5
1F3
  8
0
 10
13.8322125984252
 20
-56.04185826771653
 30
0.0
  0
VERTEX
  5
1F4
  8
0
 10
13.79225196850394
 20
-56.04081102362205
 30
0.0
  0
VERTEX
  5
1F5
  8
0
 10
13.79611417322835
 20
-56.08223228346457
 30
0.0
  0
VERTEX
  5
1F6
  8
0
 10
13.80716929133858
 20
-56.12126771653543
 30
0.0
  0
VERTEX
  5
1F7
  8
0
 10
13.82476771653543
 20
-56.15717716535433
 30
0.0
  0
VERTEX
  5
1F8
  8
0
 10
13.84826377952756
 20
-56.18921653543307
 30
0.0
  0
VERTEX
  5
1F9
  8
0
 10
13.87700393700787
 20
-56.21665354330709
 30
0.0
  0
VERTEX
  5
1FA
  8
0
 10
13.91034251968504
 20
-56.23874015748031
 30
0.0
  0
VERTEX
  5
1FB
  8
0
 10
13.94762204724409
 20
-56.25474015748031
 30
0.0
  0
VERTEX
  5
1FC
  8
0
 10
13.98820078740157
 20
-56.26391732283464
 30
0.0
  0
VERTEX
  5
1FD
  8
0
 10
13.98849606299213
 20
-56.26395669291339
 30
0.0
  0
VERTEX
  5
1FE
  8
0
 10
14.01437401574803
 20
-56.26785826771653
 30
0.0
  0
VERTEX
  5
1FF
  8
0
 10
14.01842519685039
 20
-56.26874803149606
 30
0.0
  0
VERTEX
  5
200
  8
0
 10
14.02227559055118
 20
-56.27014173228346
 30
0.0
  0
VERTEX
  5
201
  8
0
 10
14.02588188976378
 20
-56.2720157480315
 30
0.0
  0
VERTEX
  5
202
  8
0
 10
14.02920078740157
 20
-56.27432677165354
 30
0.0
  0
VERTEX
  5
203
  8
0
 10
14.03219291338583
 20
-56.27704724409449
 30
0.0
  0
VERTEX
  5
204
  8
0
 10
14.03482283464567
 20
-56.28014566929134
 30
0.0
  0
VERTEX
  5
205
  8
0
 10
14.03703937007874
 20
-56.2835905511811
 30
0.0
  0
VERTEX
  5
206
  8
0
 10
14.03880708661417
 20
-56.28734251968504
 30
0.0
  0
VERTEX
  5
207
  8
0
 10
14.04006299212598
 20
-56.29129527559055
 30
0.0
  0
VERTEX
  5
208
  8
0
 10
14.04077559055118
 20
-56.29532677165354
 30
0.0
  0
VERTEX
  5
209
  8
0
 10
14.04095669291339
 20
-56.29938582677165
 30
0.0
  0
VERTEX
  5
20A
  8
0
 10
14.04061417322835
 20
-56.30341732283465
 30
0.0
  0
VERTEX
  5
20B
  8
0
 10
14.03975196850394
 20
-56.30737007874016
 30
0.0
  0
VERTEX
  5
20C
  8
0
 10
14.03838188976378
 20
-56.3111968503937
 30
0.0
  0
VERTEX
  5
20D
  8
0
 10
14.03651181102362
 20
-56.31483464566929
 30
0.0
  0
VERTEX
  5
20E
  8
0
 10
14.03414566929134
 20
-56.31824409448819
 30
0.0
  0
VERTEX
  5
20F
  8
0
 10
14.03135039370079
 20
-56.32130708661418
 30
0.0
  0
VERTEX
  5
210
  8
0
 10
14.02821653543307
 20
-56.32394488188977
 30
0.0
  0
VERTEX
  5
211
  8
0
 10
14.02479133858268
 20
-56.32612992125984
 30
0.0
  0
VERTEX
  5
212
  8
0
 10
14.02112992125984
 20
-56.32785039370079
 30
0.0
  0
VERTEX
  5
213
  8
0
 10
14.01727559055118
 20
-56.32907874015748
 30
0.0
  0
VERTEX
  5
214
  8
0
 10
14.01327952755905
 20
-56.3298031496063
 30
0.0
  0
VERTEX
  5
215
  8
0
 10
14.00918897637795
 20
-56.33000393700787
 30
0.0
  0
VERTEX
  5
216
  8
0
 10
14.00505511811024
 20
-56.32965748031496
 30
0.0
  0
VERTEX
  5
217
  8
0
 10
13.97971653543307
 20
-56.32583858267716
 30
0.0
  0
VERTEX
  5
218
  8
0
 10
13.92793307086614
 20
-56.31406692913386
 30
0.0
  0
VERTEX
  5
219
  8
0
 10
13.88036220472441
 20
-56.2935905511811
 30
0.0
  0
VERTEX
  5
21A
  8
0
 10
13.83783070866142
 20
-56.26535433070866
 30
0.0
  0
VERTEX
  5
21B
  8
0
 10
13.80116535433071
 20
-56.2303031496063
 30
0.0
  0
VERTEX
  5
21C
  8
0
 10
13.77120078740158
 20
-56.1893779527559
 30
0.0
  0
VERTEX
  5
21D
  8
0
 10
13.74875590551181
 20
-56.14352755905512
 30
0.0
  0
VERTEX
  5
21E
  8
0
 10
13.73466535433071
 20
-56.09368897637795
 30
0.0
  0
VERTEX
  5
21F
  8
0
 10
13.72975196850394
 20
-56.04081102362205
 30
0.0
  0
VERTEX
  5
220
  8
0
 10
13.57383070866142
 20
-56.04955118110236
 30
0.0
  0
VERTEX
  5
221
  8
0
 10
13.42158267716535
 20
-56.07043700787401
 30
0.0
  0
VERTEX
  5
222
  8
0
 10
13.27425590551181
 20
-56.10303149606299
 30
0.0
  0
VERTEX
  5
223
  8
0
 10
13.13311023622047
 20
-56.14687401574803
 30
0.0
  0
VERTEX
  5
224
  8
0
 10
12.99938976377953
 20
-56.20152755905512
 30
0.0
  0
VERTEX
  5
225
  8
0
 10
12.87434645669291
 20
-56.26653543307086
 30
0.0
  0
VERTEX
  5
226
  8
0
 10
12.75922834645669
 20
-56.34145669291338
 30
0.0
  0
VERTEX
  5
227
  8
0
 10
12.6552874015748
 20
-56.42583858267717
 30
0.0
  0
VERTEX
  5
228
  8
0
 10
12.65186614173228
 20
-56.42951968503937
 30
0.0
  0
VERTEX
  5
229
  8
0
 10
12.64801181102362
 20
-56.43261417322834
 30
0.0
  0
VERTEX
  5
22A
  8
0
 10
12.6437874015748
 20
-56.43509842519685
 30
0.0
  0
VERTEX
  5
22B
  8
0
 10
12.63927559055118
 20
-56.43694094488189
 30
0.0
  0
VERTEX
  5
22C
  8
0
 10
12.63454724409449
 20
-56.43812598425197
 30
0.0
  0
VERTEX
  5
22D
  8
0
 10
12.62967716535433
 20
-56.43862598425197
 30
0.0
  0
VERTEX
  5
22E
  8
0
 10
12.62473622047244
 20
-56.43841732283465
 30
0.0
  0
VERTEX
  5
22F
  8
0
 10
12.6198031496063
 20
-56.43747244094488
 30
0.0
  0
VERTEX
  5
230
  8
0
 10
12.61505905511811
 20
-56.43581496062992
 30
0.0
  0
VERTEX
  5
231
  8
0
 10
12.61067716535433
 20
-56.43352362204725
 30
0.0
  0
VERTEX
  5
232
  8
0
 10
12.6067125984252
 20
-56.43064960629921
 30
0.0
  0
VERTEX
  5
233
  8
0
 10
12.6032125984252
 20
-56.42725590551181
 30
0.0
  0
VERTEX
  5
234
  8
0
 10
12.60023622047244
 20
-56.42339763779528
 30
0.0
  0
VERTEX
  5
235
  8
0
 10
12.59782677165354
 20
-56.41913385826771
 30
0.0
  0
VERTEX
  5
236
  8
0
 10
12.59603937007874
 20
-56.41452362204724
 30
0.0
  0
VERTEX
  5
237
  8
0
 10
12.59492519685039
 20
-56.40962204724409
 30
0.0
  0
VERTEX
  5
238
  8
0
 10
12.5946062992126
 20
-56.4024842519685
 30
0.0
  0
VERTEX
  5
239
  8
0
 10
12.59574409448819
 20
-56.39557086614173
 30
0.0
  0
VERTEX
  5
23A
  8
0
 10
12.59824803149606
 20
-56.38907874015748
 30
0.0
  0
VERTEX
  5
23B
  8
0
 10
12.60202362204724
 20
-56.38322047244095
 30
0.0
  0
SEQEND
  5
5D4
  8
0
  0
POLYLINE
  5
73
  8
0
 66
     1
 10
0.0
 20
0.0
 30
0.0
 70
     1
  0
VERTEX
  5
23C
  8
0
 10
14.6335157480315
 20
-57.06055905511811
 30
0.0
  0
VERTEX
  5
23D
  8
0
 10
14.61579133858268
 20
-56.96382283464567
 30
0.0
  0
VERTEX
  5
23E
  8
0
 10
14.56494881889764
 20
-56.87372047244094
 30
0.0
  0
VERTEX
  5
23F
  8
0
 10
14.48450393700787
 20
-56.79218897637795
 30
0.0
  0
VERTEX
  5
240
  8
0
 10
14.37796456692913
 20
-56.72114960629921
 30
0.0
  0
VERTEX
  5
241
  8
0
 10
14.24883464566929
 20
-56.66253543307086
 30
0.0
  0
VERTEX
  5
242
  8
0
 10
14.10062598425197
 20
-56.61827952755905
 30
0.0
  0
VERTEX
  5
243
  8
0
 10
13.93684645669291
 20
-56.59031102362205
 30
0.0
  0
VERTEX
  5
244
  8
0
 10
13.76100393700787
 20
-56.58055905511811
 30
0.0
  0
VERTEX
  5
245
  8
0
 10
13.58516141732284
 20
-56.59031102362205
 30
0.0
  0
VERTEX
  5
246
  8
0
 10
13.42138188976378
 20
-56.61827952755905
 30
0.0
  0
VERTEX
  5
247
  8
0
 10
13.27317322834646
 20
-56.66253543307086
 30
0.0
  0
VERTEX
  5
248
  8
0
 10
13.14404330708661
 20
-56.72114566929134
 30
0.0
  0
VERTEX
  5
249
  8
0
 10
13.0375
 20
-56.79218503937008
 30
0.0
  0
VERTEX
  5
24A
  8
0
 10
12.95705511811024
 20
-56.87372047244094
 30
0.0
  0
VERTEX
  5
24B
  8
0
 10
12.90621653543307
 20
-56.96382283464567
 30
0.0
  0
VERTEX
  5
24C
  8
0
 10
12.88848818897638
 20
-57.06055905511811
 30
0.0
  0
VERTEX
  5
24D
  8
0
 10
12.9062125984252
 20
-57.15729527559055
 30
0.0
  0
VERTEX
  5
24E
  8
0
 10
12.95705118110236
 20
-57.24739763779527
 30
0.0
  0
VERTEX
  5
24F
  8
0
 10
13.03749606299213
 20
-57.32892913385827
 30
0.0
  0
VERTEX
  5
250
  8
0
 10
13.14403937007874
 20
-57.39996850393701
 30
0.0
  0
VERTEX
  5
251
  8
0
 10
13.27316929133858
 20
-57.45858267716535
 30
0.0
  0
VERTEX
  5
252
  8
0
 10
13.42137795275591
 20
-57.50283858267716
 30
0.0
  0
VERTEX
  5
253
  8
0
 10
13.58515748031496
 20
-57.53080708661417
 30
0.0
  0
VERTEX
  5
254
  8
0
 10
13.761
 20
-57.54055905511811
 30
0.0
  0
VERTEX
  5
255
  8
0
 10
13.93684251968504
 20
-57.53080708661417
 30
0.0
  0
VERTEX
  5
256
  8
0
 10
14.10062204724409
 20
-57.50283858267716
 30
0.0
  0
VERTEX
  5
257
  8
0
 10
14.24883070866142
 20
-57.45858661417323
 30
0.0
  0
VERTEX
  5
258
  8
0
 10
14.37796062992126
 20
-57.39997244094488
 30
0.0
  0
VERTEX
  5
259
  8
0
 10
14.48450393700787
 20
-57.32893307086614
 30
0.0
  0
VERTEX
  5
25A
  8
0
 10
14.56494881889764
 20
-57.24739763779527
 30
0.0
  0
VERTEX
  5
25B
  8
0
 10
14.6157874015748
 20
-57.15729527559055
 30
0.0
  0
VERTEX
  5
25C
  8
0
 10
14.6335157480315
 20
-57.06055905511811
 30
0.0
  0
SEQEND
  5
5D5
  8
0
  0
POLYLINE
  5
74
  8
0
 66
     1
 10
0.0
 20
0.0
 30
0.0
 70
     1
  0
VERTEX
  5
25D
  8
0
 10
12.74954330708661
 20
-56.76072834645669
 30
0.0
  0
VERTEX
  5
25E
  8
0
 10
12.74731102362205
 20
-56.76370078740158
 30
0.0
  0
VERTEX
  5
25F
  8
0
 10
12.74554330708661
 20
-56.7669094488189
 30
0.0
  0
VERTEX
  5
260
  8
0
 10
12.74425196850394
 20
-56.77029921259842
 30
0.0
  0
VERTEX
  5
261
  8
0
 10
12.74344488188976
 20
-56.7738188976378
 30
0.0
  0
VERTEX
  5
262
  8
0
 10
12.74312598425197
 20
-56.77741338582677
 30
0.0
  0
VERTEX
  5
263
  8
0
 10
12.74330708661417
 20
-56.78103543307087
 30
0.0
  0
VERTEX
  5
264
  8
0
 10
12.74399606299213
 20
-56.78462992125984
 30
0.0
  0
VERTEX
  5
265
  8
0
 10
12.74520078740158
 20
-56.78814173228346
 30
0.0
  0
VERTEX
  5
266
  8
0
 10
12.74688976377953
 20
-56.79144881889763
 30
0.0
  0
VERTEX
  5
267
  8
0
 10
12.74899212598425
 20
-56.79444488188977
 30
0.0
  0
VERTEX
  5
268
  8
0
 10
12.75146850393701
 20
-56.7970905511811
 30
0.0
  0
VERTEX
  5
269
  8
0
 10
12.75427559055118
 20
-56.79936614173229
 30
0.0
  0
VERTEX
  5
26A
  8
0
 10
12.75736614173228
 20
-56.8012283464567
 30
0.0
  0
VERTEX
  5
26B
  8
0
 10
12.76070078740157
 20
-56.80265748031496
 30
0.0
  0
VERTEX
  5
26C
  8
0
 10
12.76423228346457
 20
-56.80361811023622
 30
0.0
  0
VERTEX
  5
26D
  8
0
 10
12.76791732283464
 20
-56.80407874015748
 30
0.0
  0
VERTEX
  5
26E
  8
0
 10
12.77162992125984
 20
-56.8040157480315
 30
0.0
  0
VERTEX
  5
26F
  8
0
 10
12.77524409448819
 20
-56.80343700787402
 30
0.0
  0
VERTEX
  5
270
  8
0
 10
12.77870866141732
 20
-56.80237401574803
 30
0.0
  0
VERTEX
  5
271
  8
0
 10
12.7819842519685
 20
-56.80085433070866
 30
0.0
  0
VERTEX
  5
272
  8
0
 10
12.7850157480315
 20
-56.7988937007874
 30
0.0
  0
VERTEX
  5
273
  8
0
 10
12.78776377952756
 20
-56.79652755905512
 30
0.0
  0
VERTEX
  5
274
  8
0
 10
12.79017716535433
 20
-56.79377559055118
 30
0.0
  0
VERTEX
  5
275
  8
0
 10
12.79220866141732
 20
-56.79066929133858
 30
0.0
  0
VERTEX
  5
276
  8
0
 10
12.81487007874016
 20
-56.76136220472441
 30
0.0
  0
VERTEX
  5
277
  8
0
 10
12.83987401574803
 20
-56.73264960629921
 30
0.0
  0
VERTEX
  5
278
  8
0
 10
12.86716929133858
 20
-56.70461417322834
 30
0.0
  0
VERTEX
  5
279
  8
0
 10
12.89670472440945
 20
-56.67734645669292
 30
0.0
  0
VERTEX
  5
27A
  8
0
 10
12.92842913385827
 20
-56.65092913385827
 30
0.0
  0
VERTEX
  5
27B
  8
0
 10
12.96229921259843
 20
-56.62544881889764
 30
0.0
  0
VERTEX
  5
27C
  8
0
 10
12.99825984251969
 20
-56.60099212598425
 30
0.0
  0
VERTEX
  5
27D
  8
0
 10
13.03626377952756
 20
-56.57764566929134
 30
0.0
  0
VERTEX
  5
27E
  8
0
 10
13.09886614173228
 20
-56.54394488188976
 30
0.0
  0
VERTEX
  5
27F
  8
0
 10
13.16563779527559
 20
-56.51338976377953
 30
0.0
  0
VERTEX
  5
280
  8
0
 10
13.23611023622047
 20
-56.48614566929134
 30
0.0
  0
VERTEX
  5
281
  8
0
 10
13.30980708661417
 20
-56.46237007874016
 30
0.0
  0
VERTEX
  5
282
  8
0
 10
13.38626377952756
 20
-56.44222440944882
 30
0.0
  0
VERTEX
  5
283
  8
0
 10
13.465
 20
-56.42587007874016
 30
0.0
  0
VERTEX
  5
284
  8
0
 10
13.54555118110236
 20
-56.41346456692914
 30
0.0
  0
VERTEX
  5
285
  8
0
 10
13.62744488188976
 20
-56.40517716535433
 30
0.0
  0
VERTEX
  5
286
  8
0
 10
13.71272440944882
 20
-56.40107086614173
 30
0.0
  0
VERTEX
  5
287
  8
0
 10
13.71668897637795
 20
-56.40080708661417
 30
0.0
  0
VERTEX
  5
288
  8
0
 10
13.72053149606299
 20
-56.40003543307087
 30
0.0
  0
VERTEX
  5
289
  8
0
 10
13.7242125984252
 20
-56.39877952755906
 30
0.0
  0
VERTEX
  5
28A
  8
0
 10
13.72768503937008
 20
-56.39706299212598
 30
0.0
  0
VERTEX
  5
28B
  8
0
 10
13.73090551181102
 20
-56.39491338582677
 30
0.0
  0
VERTEX
  5
28C
  8
0
 10
13.73383464566929
 20
-56.39235433070866
 30
0.0
  0
VERTEX
  5
28D
  8
0
 10
13.73642519685039
 20
-56.38941338582677
 30
0.0
  0
VERTEX
  5
28E
  8
0
 10
13.73863385826772
 20
-56.38611417322835
 30
0.0
  0
VERTEX
  5
28F
  8
0
 10
13.74038976377953
 20
-56.38255118110236
 30
0.0
  0
VERTEX
  5
290
  8
0
 10
13.74164173228347
 20
-56.37883464566929
 30
0.0
  0
VERTEX
  5
291
  8
0
 10
13.7423937007874
 20
-56.37501968503937
 30
0.0
  0
VERTEX
  5
292
  8
0
 10
13.74264566929134
 20
-56.37115748031496
 30
0.0
  0
VERTEX
  5
293
  8
0
 10
13.7423937007874
 20
-56.36729133858267
 30
0.0
  0
VERTEX
  5
294
  8
0
 10
13.74164173228347
 20
-56.36347637795276
 30
0.0
  0
VERTEX
  5
295
  8
0
 10
13.74038976377953
 20
-56.35975984251969
 30
0.0
  0
VERTEX
  5
296
  8
0
 10
13.73863385826772
 20
-56.3561968503937
 30
0.0
  0
VERTEX
  5
297
  8
0
 10
13.73642519685039
 20
-56.35289763779527
 30
0.0
  0
VERTEX
  5
298
  8
0
 10
13.73383464566929
 20
-56.34995669291339
 30
0.0
  0
VERTEX
  5
299
  8
0
 10
13.73090551181102
 20
-56.34739763779528
 30
0.0
  0
VERTEX
  5
29A
  8
0
 10
13.72768503937008
 20
-56.34524803149606
 30
0.0
  0
VERTEX
  5
29B
  8
0
 10
13.7242125984252
 20
-56.34353149606299
 30
0.0
  0
VERTEX
  5
29C
  8
0
 10
13.72053149606299
 20
-56.34227559055118
 30
0.0
  0
VERTEX
  5
29D
  8
0
 10
13.71668897637795
 20
-56.34150393700787
 30
0.0
  0
VERTEX
  5
29E
  8
0
 10
13.71272440944882
 20
-56.34124015748031
 30
0.0
  0
VERTEX
  5
29F
  8
0
 10
13.5586062992126
 20
-56.35255905511811
 30
0.0
  0
VERTEX
  5
2A0
  8
0
 10
13.41055118110236
 20
-56.37719291338583
 30
0.0
  0
VERTEX
  5
2A1
  8
0
 10
13.27034251968504
 20
-56.41435826771654
 30
0.0
  0
VERTEX
  5
2A2
  8
0
 10
13.13977165354331
 20
-56.46327165354331
 30
0.0
  0
VERTEX
  5
2A3
  8
0
 10
13.02061811023622
 20
-56.52314566929134
 30
0.0
  0
VERTEX
  5
2A4
  8
0
 10
12.91467322834646
 20
-56.59320472440945
 30
0.0
  0
VERTEX
  5
2A5
  8
0
 10
12.82372047244094
 20
-56.67265748031496
 30
0.0
  0
VERTEX
  5
2A6
  8
0
 10
12.74955118110236
 20
-56.76072047244094
 30
0.0
  0
SEQEND
  5
5D6
  8
0
  0
POLYLINE
  5
75
  8
0
 66
     1
 10
0.0
 20
0.0
 30
0.0
 70
     1
  0
VERTEX
  5
2A7
  8
0
 10
14.76485039370079
 20
-56.75020078740157
 30
0.0
  0
VERTEX
  5
2A8
  8
0
 10
14.69411023622047
 20
-56.66847637795276
 30
0.0
  0
VERTEX
  5
2A9
  8
0
 10
14.60874015748031
 20
-56.5942874015748
 30
0.0
  0
VERTEX
  5
2AA
  8
0
 10
14.51018503937008
 20
-56.52828346456693
 30
0.0
  0
VERTEX
  5
2AB
  8
0
 10
14.3998937007874
 20
-56.47112204724409
 30
0.0
  0
VERTEX
  5
2AC
  8
0
 10
14.2793031496063
 20
-56.42346456692913
 30
0.0
  0
VERTEX
  5
2AD
  8
0
 10
14.14986220472441
 20
-56.38595669291339
 30
0.0
  0
VERTEX
  5
2AE
  8
0
 10
14.01301181102362
 20
-56.35926377952756
 30
0.0
  0
VERTEX
  5
2AF
  8
0
 10
13.87020472440945
 20
-56.34403543307086
 30
0.0
  0
VERTEX
  5
2B0
  8
0
 10
13.86615748031496
 20
-56.3443031496063
 30
0.0
  0
VERTEX
  5
2B1
  8
0
 10
13.86222834645669
 20
-56.34509448818898
 30
0.0
  0
VERTEX
  5
2B2
  8
0
 10
13.85846850393701
 20
-56.34637795275591
 30
0.0
  0
VERTEX
  5
2B3
  8
0
 10
13.85492125984252
 20
-56.34812992125984
 30
0.0
  0
VERTEX
  5
2B4
  8
0
 10
13.85162992125984
 20
-56.35032677165354
 30
0.0
  0
VERTEX
  5
2B5
  8
0
 10
13.84863779527559
 20
-56.35294488188976
 30
0.0
  0
VERTEX
  5
2B6
  8
0
 10
13.84598818897638
 20
-56.35594881889764
 30
0.0
  0
VERTEX
  5
2B7
  8
0
 10
13.84373228346457
 20
-56.35932283464567
 30
0.0
  0
VERTEX
  5
2B8
  8
0
 10
13.84194094488189
 20
-56.36296456692914
 30
0.0
  0
VERTEX
  5
2B9
  8
0
 10
13.84066141732283
 20
-56.36675984251968
 30
0.0
  0
VERTEX
  5
2BA
  8
0
 10
13.8398937007874
 20
-56.37065748031496
 30
0.0
  0
VERTEX
  5
2BB
  8
0
 10
13.83963779527559
 20
-56.3746062992126
 30
0.0
  0
VERTEX
  5
2BC
  8
0
 10
13.8398937007874
 20
-56.37855511811023
 30
0.0
  0
VERTEX
  5
2BD
  8
0
 10
13.84066141732283
 20
-56.38245669291339
 30
0.0
  0
VERTEX
  5
2BE
  8
0
 10
13.84194094488189
 20
-56.38625196850393
 30
0.0
  0
VERTEX
  5
2BF
  8
0
 10
13.84373228346457
 20
-56.3898937007874
 30
0.0
  0
VERTEX
  5
2C0
  8
0
 10
13.84598818897638
 20
-56.39326377952756
 30
0.0
  0
VERTEX
  5
2C1
  8
0
 10
13.84863779527559
 20
-56.39627165354331
 30
0.0
  0
VERTEX
  5
2C2
  8
0
 10
13.85162992125984
 20
-56.39888582677165
 30
0.0
  0
VERTEX
  5
2C3
  8
0
 10
13.85492125984252
 20
-56.40108267716536
 30
0.0
  0
VERTEX
  5
2C4
  8
0
 10
13.85846850393701
 20
-56.40283464566929
 30
0.0
  0
VERTEX
  5
2C5
  8
0
 10
13.86222834645669
 20
-56.40411811023622
 30
0.0
  0
VERTEX
  5
2C6
  8
0
 10
13.86615748031496
 20
-56.4049094488189
 30
0.0
  0
VERTEX
  5
2C7
  8
0
 10
13.87020472440945
 20
-56.40517716535433
 30
0.0
  0
VERTEX
  5
2C8
  8
0
 10
13.92642913385827
 20
-56.41027559055118
 30
0.0
  0
VERTEX
  5
2C9
  8
0
 10
13.98213779527559
 20
-56.41725590551181
 30
0.0
  0
VERTEX
  5
2CA
  8
0
 10
14.03717322834646
 20
-56.42608267716535
 30
0.0
  0
VERTEX
  5
2CB
  8
0
 10
14.09136614173228
 20
-56.43673622047244
 30
0.0
  0
VERTEX
  5
2CC
  8
0
 10
14.14455905511811
 20
-56.44918897637795
 30
0.0
  0
VERTEX
  5
2CD
  8
0
 10
14.19658267716535
 20
-56.46341732283464
 30
0.0
  0
VERTEX
  5
2CE
  8
0
 10
14.24727559055118
 20
-56.4793937007874
 30
0.0
  0
VERTEX
  5
2CF
  8
0
 10
14.29647637795276
 20
-56.49709448818898
 30
0.0
  0
VERTEX
  5
2D0
  8
0
 10
14.36122834645669
 20
-56.52407480314961
 30
0.0
  0
VERTEX
  5
2D1
  8
0
 10
14.42249212598425
 20
-56.55394881889764
 30
0.0
  0
VERTEX
  5
2D2
  8
0
 10
14.48001181102362
 20
-56.58647244094488
 30
0.0
  0
VERTEX
  5
2D3
  8
0
 10
14.53353149606299
 20
-56.6213937007874
 30
0.0
  0
VERTEX
  5
2D4
  8
0
 10
14.58279133858268
 20
-56.65847637795276
 30
0.0
  0
VERTEX
  5
2D5
  8
0
 10
14.62752362204724
 20
-56.69747637795275
 30
0.0
  0
VERTEX
  5
2D6
  8
0
 10
14.66748031496063
 20
-56.73814173228347
 30
0.0
  0
VERTEX
  5
2D7
  8
0
 10
14.70239763779528
 20
-56.78023622047244
 30
0.0
  0
VERTEX
  5
2D8
  8
0
 10
14.70815748031496
 20
-56.78798031496063
 30
0.0
  0
VERTEX
  5
2D9
  8
0
 10
14.71100787401575
 20
-56.7916811023622
 30
0.0
  0
VERTEX
  5
2DA
  8
0
 10
14.71429133858268
 20
-56.79491338582677
 30
0.0
  0
VERTEX
  5
2DB
  8
0
 10
14.71794488188976
 20
-56.79765354330709
 30
0.0
  0
VERTEX
  5
2DC
  8
0
 10
14.72191732283465
 20
-56.79987007874016
 30
0.0
  0
VERTEX
  5
2DD
  8
0
 10
14.72614960629921
 20
-56.80153937007874
 30
0.0
  0
VERTEX
  5
2DE
  8
0
 10
14.73058661417323
 20
-56.80263385826772
 30
0.0
  0
VERTEX
  5
2DF
  8
0
 10
14.73516535433071
 20
-56.80312204724409
 30
0.0
  0
VERTEX
  5
2E0
  8
0
 10
14.73983464566929
 20
-56.8029842519685
 30
0.0
  0
VERTEX
  5
2E1
  8
0
 10
14.74444094488189
 20
-56.80220866141732
 30
0.0
  0
VERTEX
  5
2E2
  8
0
 10
14.74883858267717
 20
-56.80083464566929
 30
0.0
  0
VERTEX
  5
2E3
  8
0
 10
14.75297637795276
 20
-56.79889763779528
 30
0.0
  0
VERTEX
  5
2E4
  8
0
 10
14.7568031496063
 20
-56.79643700787402
 30
0.0
  0
VERTEX
  5
2E5
  8
0
 10
14.76026771653543
 20
-56.79348818897638
 30
0.0
  0
VERTEX
  5
2E6
  8
0
 10
14.7633188976378
 20
-56.7900905511811
 30
0.0
  0
VERTEX
  5
2E7
  8
0
 10
14.7659094488189
 20
-56.78627952755905
 30
0.0
  0
VERTEX
  5
2E8
  8
0
 10
14.7679842519685
 20
-56.78209448818897
 30
0.0
  0
VERTEX
  5
2E9
  8
0
 10
14.76935826771654
 20
-56.77807874015748
 30
0.0
  0
VERTEX
  5
2EA
  8
0
 10
14.7702125984252
 20
-56.77398031496063
 30
0.0
  0
VERTEX
  5
2EB
  8
0
 10
14.77055511811024
 20
-56.76984251968504
 30
0.0
  0
VERTEX
  5
2EC
  8
0
 10
14.77039763779528
 20
-56.7657125984252
 30
0.0
  0
VERTEX
  5
2ED
  8
0
 10
14.76974015748032
 20
-56.76163779527559
 30
0.0
  0
VERTEX
  5
2EE
  8
0
 10
14.76859448818898
 20
-56.75766535433071
 30
0.0
  0
VERTEX
  5
2EF
  8
0
 10
14.76696456692913
 20
-56.75384251968504
 30
0.0
  0
VERTEX
  5
2F0
  8
0
 10
14.76485826771654
 20
-56.7502125984252
 30
0.0
  0
SEQEND
  5
5D7
  8
0
  0
POLYLINE
  5
76
  8
0
 66
     1
 10
0.0
 20
0.0
 30
0.0
 70
     1
  0
VERTEX
  5
2F1
  8
0
 10
14.26211023622047
 20
-56.10690551181102
 30
0.0
  0
VERTEX
  5
2F2
  8
0
 10
14.44796850393701
 20
-56.16928346456693
 30
0.0
  0
VERTEX
  5
2F3
  8
0
 10
14.61683070866142
 20
-56.24905118110236
 30
0.0
  0
VERTEX
  5
2F4
  8
0
 10
14.76686220472441
 20
-56.34442519685039
 30
0.0
  0
VERTEX
  5
2F5
  8
0
 10
14.89622834645669
 20
-56.45361417322835
 30
0.0
  0
VERTEX
  5
2F6
  8
0
 10
15.00309448818898
 20
-56.57482677165354
 30
0.0
  0
VERTEX
  5
2F7
  8
0
 10
15.08563385826772
 20
-56.70628346456693
 30
0.0
  0
VERTEX
  5
2F8
  8
0
 10
15.14201181102362
 20
-56.84619291338583
 30
0.0
  0
VERTEX
  5
2F9
  8
0
 10
15.1703937007874
 20
-56.99276771653543
 30
0.0
  0
VERTEX
  5
2FA
  8
0
 10
15.17072834645669
 20
-56.99777952755905
 30
0.0
  0
VERTEX
  5
2FB
  8
0
 10
15.17170472440945
 20
-57.00263779527559
 30
0.0
  0
VERTEX
  5
2FC
  8
0
 10
15.17329133858268
 20
-57.00729133858268
 30
0.0
  0
VERTEX
  5
2FD
  8
0
 10
15.17546456692913
 20
-57.01168503937008
 30
0.0
  0
VERTEX
  5
2FE
  8
0
 10
15.1781811023622
 20
-57.01575984251969
 30
0.0
  0
VERTEX
  5
2FF
  8
0
 10
15.18141732283465
 20
-57.01946062992126
 30
0.0
  0
VERTEX
  5
300
  8
0
 10
15.18513779527559
 20
-57.02273622047244
 30
0.0
  0
VERTEX
  5
301
  8
0
 10
15.18931102362205
 20
-57.02553149606299
 30
0.0
  0
VERTEX
  5
302
  8
0
 10
15.1938188976378
 20
-57.02774803149606
 30
0.0
  0
VERTEX
  5
303
  8
0
 10
15.1985157480315
 20
-57.02933464566929
 30
0.0
  0
VERTEX
  5
304
  8
0
 10
15.20333858267717
 20
-57.03028346456693
 30
0.0
  0
VERTEX
  5
305
  8
0
 10
15.20822834645669
 20
-57.03060236220472
 30
0.0
  0
VERTEX
  5
306
  8
0
 10
15.21311417322835
 20
-57.03028346456693
 30
0.0
  0
VERTEX
  5
307
  8
0
 10
15.21794094488189
 20
-57.02933464566929
 30
0.0
  0
VERTEX
  5
308
  8
0
 10
15.22263779527559
 20
-57.02774803149606
 30
0.0
  0
VERTEX
  5
309
  8
0
 10
15.22714566929134
 20
-57.02553149606299
 30
0.0
  0
VERTEX
  5
30A
  8
0
 10
15.2313188976378
 20
-57.02273622047244
 30
0.0
  0
VERTEX
  5
30B
  8
0
 10
15.23503937007874
 20
-57.01946062992126
 30
0.0
  0
VERTEX
  5
30C
  8
0
 10
15.23827559055118
 20
-57.01575984251969
 30
0.0
  0
VERTEX
  5
30D
  8
0
 10
15.24099212598425
 20
-57.01168503937008
 30
0.0
  0
VERTEX
  5
30E
  8
0
 10
15.24316535433071
 20
-57.00729133858268
 30
0.0
  0
VERTEX
  5
30F
  8
0
 10
15.24475196850394
 20
-57.00263779527559
 30
0.0
  0
VERTEX
  5
310
  8
0
 10
15.24572834645669
 20
-56.99777952755905
 30
0.0
  0
VERTEX
  5
311
  8
0
 10
15.24606299212598
 20
-56.99276771653543
 30
0.0
  0
VERTEX
  5
312
  8
0
 10
15.21633070866142
 20
-56.83534251968504
 30
0.0
  0
VERTEX
  5
313
  8
0
 10
15.15628346456693
 20
-56.68516929133858
 30
0.0
  0
VERTEX
  5
314
  8
0
 10
15.06793700787401
 20
-56.54420866141732
 30
0.0
  0
VERTEX
  5
315
  8
0
 10
14.95331889763779
 20
-56.4144251968504
 30
0.0
  0
VERTEX
  5
316
  8
0
 10
14.81444881889764
 20
-56.2977874015748
 30
0.0
  0
VERTEX
  5
317
  8
0
 10
14.65334645669291
 20
-56.19625590551181
 30
0.0
  0
VERTEX
  5
318
  8
0
 10
14.47202755905512
 20
-56.11179921259843
 30
0.0
  0
VERTEX
  5
319
  8
0
 10
14.27252362204724
 20
-56.0463779527559
 30
0.0
  0
VERTEX
  5
31A
  8
0
 10
14.26846850393701
 20
-56.04595669291339
 30
0.0
  0
VERTEX
  5
31B
  8
0
 10
14.26444488188976
 20
-56.04606692913386
 30
0.0
  0
VERTEX
  5
31C
  8
0
 10
14.26050393700787
 20
-56.04670078740158
 30
0.0
  0
VERTEX
  5
31D
  8
0
 10
14.25669291338583
 20
-56.04783070866142
 30
0.0
  0
VERTEX
  5
31E
  8
0
 10
14.25305905511811
 20
-56.04944488188976
 30
0.0
  0
VERTEX
  5
31F
  8
0
 10
14.24965354330709
 20
-56.05152362204724
 30
0.0
  0
VERTEX
  5
320
  8
0
 10
14.24651968503937
 20
-56.05405118110236
 30
0.0
  0
VERTEX
  5
321
  8
0
 10
14.24370866141732
 20
-56.05700393700788
 30
0.0
  0
VERTEX
  5
322
  8
0
 10
14.24131496062992
 20
-56.0603031496063
 30
0.0
  0
VERTEX
  5
323
  8
0
 10
14.23940157480315
 20
-56.06384251968504
 30
0.0
  0
VERTEX
  5
324
  8
0
 10
14.23797637795276
 20
-56.06757086614173
 30
0.0
  0
VERTEX
  5
325
  8
0
 10
14.23705118110236
 20
-56.07143700787402
 30
0.0
  0
VERTEX
  5
326
  8
0
 10
14.23663385826772
 20
-56.07538976377953
 30
0.0
  0
VERTEX
  5
327
  8
0
 10
14.23672834645669
 20
-56.07938188976378
 30
0.0
  0
VERTEX
  5
328
  8
0
 10
14.23735039370079
 20
-56.08335433070866
 30
0.0
  0
VERTEX
  5
329
  8
0
 10
14.23850393700787
 20
-56.08726377952756
 30
0.0
  0
VERTEX
  5
32A
  8
0
 10
14.24016535433071
 20
-56.09098818897638
 30
0.0
  0
VERTEX
  5
32B
  8
0
 10
14.24227165354331
 20
-56.09441338582677
 30
0.0
  0
VERTEX
  5
32C
  8
0
 10
14.2447874015748
 20
-56.09751181102362
 30
0.0
  0
VERTEX
  5
32D
  8
0
 10
14.24767322834646
 20
-56.10024803149606
 30
0.0
  0
VERTEX
  5
32E
  8
0
 10
14.25088976377953
 20
-56.10258661417323
 30
0.0
  0
VERTEX
  5
32F
  8
0
 10
14.2543937007874
 20
-56.1045
 30
0.0
  0
VERTEX
  5
330
  8
0
 10
14.25814566929134
 20
-56.10594881889764
 30
0.0
  0
VERTEX
  5
331
  8
0
 10
14.26211023622047
 20
-56.10690551181102
 30
0.0
  0
SEQEND
  5
5D8
  8
0
  0
POLYLINE
  5
77
  8
0
 66
     1
 10
0.0
 20
0.0
 30
0.0
 70
     1
  0
VERTEX
  5
332
  8
0
 10
15.24277559055118
 20
-57.15922834645669
 30
0.0
  0
VERTEX
  5
333
  8
0
 10
15.2436811023622
 20
-57.15388188976378
 30
0.0
  0
VERTEX
  5
334
  8
0
 10
15.24381889763779
 20
-57.14853937007874
 30
0.0
  0
VERTEX
  5
335
  8
0
 10
15.2432125984252
 20
-57.14327952755905
 30
0.0
  0
VERTEX
  5
336
  8
0
 10
15.24188582677165
 20
-57.1381811023622
 30
0.0
  0
VERTEX
  5
337
  8
0
 10
15.23986220472441
 20
-57.13331102362205
 30
0.0
  0
VERTEX
  5
338
  8
0
 10
15.23717716535433
 20
-57.12875196850393
 30
0.0
  0
VERTEX
  5
339
  8
0
 10
15.23384251968504
 20
-57.12457480314961
 30
0.0
  0
VERTEX
  5
33A
  8
0
 10
15.2298937007874
 20
-57.12085826771654
 30
0.0
  0
VERTEX
  5
33B
  8
0
 10
15.22545275590551
 20
-57.11774015748031
 30
0.0
  0
VERTEX
  5
33C
  8
0
 10
15.22068503937008
 20
-57.11531889763779
 30
0.0
  0
VERTEX
  5
33D
  8
0
 10
15.21566929133858
 20
-57.1136062992126
 30
0.0
  0
VERTEX
  5
33E
  8
0
 10
15.21049212598425
 20
-57.11261417322834
 30
0.0
  0
VERTEX
  5
33F
  8
0
 10
15.20522440944882
 20
-57.11234645669291
 30
0.0
  0
VERTEX
  5
340
  8
0
 10
15.19994488188976
 20
-57.11281889763779
 30
0.0
  0
VERTEX
  5
341
  8
0
 10
15.19474015748031
 20
-57.11403543307087
 30
0.0
  0
VERTEX
  5
342
  8
0
 10
15.18968503937008
 20
-57.11600787401575
 30
0.0
  0
VERTEX
  5
343
  8
0
 10
15.18496062992126
 20
-57.1186811023622
 30
0.0
  0
VERTEX
  5
344
  8
0
 10
15.18072834645669
 20
-57.12194881889764
 30
0.0
  0
VERTEX
  5
345
  8
0
 10
15.17703149606299
 20
-57.12574409448819
 30
0.0
  0
VERTEX
  5
346
  8
0
 10
15.1739094488189
 20
-57.12999606299213
 30
0.0
  0
VERTEX
  5
347
  8
0
 10
15.1714094488189
 20
-57.13463779527559
 30
0.0
  0
VERTEX
  5
348
  8
0
 10
15.16957086614173
 20
-57.1396062992126
 30
0.0
  0
VERTEX
  5
349
  8
0
 10
15.16843307086614
 20
-57.14483464566929
 30
0.0
  0
VERTEX
  5
34A
  8
0
 10
15.16804724409449
 20
-57.15024803149606
 30
0.0
  0
VERTEX
  5
34B
  8
0
 10
15.13005118110236
 20
-57.31186614173228
 30
0.0
  0
VERTEX
  5
34C
  8
0
 10
15.05835433070866
 20
-57.46413779527559
 30
0.0
  0
VERTEX
  5
34D
  8
0
 10
14.9556811023622
 20
-57.60481102362205
 30
0.0
  0
VERTEX
  5
34E
  8
0
 10
14.82475590551181
 20
-57.73163385826771
 30
0.0
  0
VERTEX
  5
34F
  8
0
 10
14.66830708661417
 20
-57.84235039370079
 30
0.0
  0
VERTEX
  5
350
  8
0
 10
14.48905118110236
 20
-57.9347125984252
 30
0.0
  0
VERTEX
  5
351
  8
0
 10
14.28972047244094
 20
-58.00646456692913
 30
0.0
  0
VERTEX
  5
352
  8
0
 10
14.07303937007874
 20
-58.05535826771654
 30
0.0
  0
VERTEX
  5
353
  8
0
 10
14.06892519685039
 20
-58.05605511811024
 30
0.0
  0
VERTEX
  5
354
  8
0
 10
14.065
 20
-58.05729527559055
 30
0.0
  0
VERTEX
  5
355
  8
0
 10
14.06131102362205
 20
-58.05903543307087
 30
0.0
  0
VERTEX
  5
356
  8
0
 10
14.05790157480315
 20
-58.06124803149606
 30
0.0
  0
VERTEX
  5
357
  8
0
 10
14.0548188976378
 20
-58.0638937007874
 30
0.0
  0
VERTEX
  5
358
  8
0
 10
14.0521062992126
 20
-58.06694488188976
 30
0.0
  0
VERTEX
  5
359
  8
0
 10
14.04981496062992
 20
-58.07036220472441
 30
0.0
  0
VERTEX
  5
35A
  8
0
 10
14.0479842519685
 20
-58.07411417322835
 30
0.0
  0
VERTEX
  5
35B
  8
0
 10
14.04668897637795
 20
-58.07808267716536
 30
0.0
  0
VERTEX
  5
35C
  8
0
 10
14.04595669291339
 20
-58.08213385826772
 30
0.0
  0
VERTEX
  5
35D
  8
0
 10
14.04577952755906
 20
-58.08620866141732
 30
0.0
  0
VERTEX
  5
35E
  8
0
 10
14.04614960629921
 20
-58.09025590551181
 30
0.0
  0
VERTEX
  5
35F
  8
0
 10
14.04705905511811
 20
-58.09421653543307
 30
0.0
  0
VERTEX
  5
360
  8
0
 10
14.04849606299213
 20
-58.09803543307087
 30
0.0
  0
VERTEX
  5
361
  8
0
 10
14.05045275590551
 20
-58.10165748031496
 30
0.0
  0
VERTEX
  5
362
  8
0
 10
14.05292125984252
 20
-58.10502362204724
 30
0.0
  0
VERTEX
  5
363
  8
0
 10
14.0555
 20
-58.10771653543307
 30
0.0
  0
VERTEX
  5
364
  8
0
 10
14.05834645669291
 20
-58.11004330708661
 30
0.0
  0
VERTEX
  5
365
  8
0
 10
14.06142913385827
 20
-58.11199212598425
 30
0.0
  0
VERTEX
  5
366
  8
0
 10
14.06470866141732
 20
-58.11355118110236
 30
0.0
  0
VERTEX
  5
367
  8
0
 10
14.06814566929134
 20
-58.11470078740157
 30
0.0
  0
VERTEX
  5
368
  8
0
 10
14.07170472440945
 20
-58.11543700787401
 30
0.0
  0
VERTEX
  5
369
  8
0
 10
14.07534251968504
 20
-58.11574015748032
 30
0.0
  0
VERTEX
  5
36A
  8
0
 10
14.07902362204724
 20
-58.11560236220473
 30
0.0
  0
VERTEX
  5
36B
  8
0
 10
14.30865354330709
 20
-58.06481102362205
 30
0.0
  0
VERTEX
  5
36C
  8
0
 10
14.52004724409449
 20
-57.98956299212598
 30
0.0
  0
VERTEX
  5
36D
  8
0
 10
14.71029527559055
 20
-57.89226377952756
 30
0.0
  0
VERTEX
  5
36E
  8
0
 10
14.87649606299213
 20
-57.77532283464567
 30
0.0
  0
VERTEX
  5
36F
  8
0
 10
15.01574803149606
 20
-57.64114173228347
 30
0.0
  0
VERTEX
  5
370
  8
0
 10
15.12514960629921
 20
-57.49212598425197
 30
0.0
  0
VERTEX
  5
371
  8
0
 10
15.20179133858268
 20
-57.33068897637795
 30
0.0
  0
VERTEX
  5
372
  8
0
 10
15.24277559055118
 20
-57.15922834645669
 30
0.0
  0
SEQEND
  5
5D9
  8
0
  0
POLYLINE
  5
78
  8
0
 66
     1
 10
0.0
 20
0.0
 30
0.0
 70
     1
  0
VERTEX
  5
373
  8
0
 10
12.42952755905512
 20
-57.54272047244095
 30
0.0
  0
VERTEX
  5
374
  8
0
 10
12.42955511811024
 20
-57.54275984251969
 30
0.0
  0
VERTEX
  5
375
  8
0
 10
12.54815748031496
 20
-57.68632677165354
 30
0.0
  0
VERTEX
  5
376
  8
0
 10
12.69309842519685
 20
-57.81272834645669
 30
0.0
  0
VERTEX
  5
377
  8
0
 10
12.86092519685039
 20
-57.92060236220473
 30
0.0
  0
VERTEX
  5
378
  8
0
 10
13.04818503937008
 20
-58.00857480314961
 30
0.0
  0
VERTEX
  5
379
  8
0
 10
13.25143700787402
 20
-58.07528346456693
 30
0.0
  0
VERTEX
  5
37A
  8
0
 10
13.46722440944882
 20
-58.11936220472441
 30
0.0
  0
VERTEX
  5
37B
  8
0
 10
13.6921062992126
 20
-58.13944881889764
 30
0.0
  0
VERTEX
  5
37C
  8
0
 10
13.92262598425197
 20
-58.13416929133858
 30
0.0
  0
VERTEX
  5
37D
  8
0
 10
13.92656299212598
 20
-58.13351181102362
 30
0.0
  0
VERTEX
  5
37E
  8
0
 10
13.93033070866142
 20
-58.13235826771653
 30
0.0
  0
VERTEX
  5
37F
  8
0
 10
13.93388188976378
 20
-58.13073622047244
 30
0.0
  0
VERTEX
  5
380
  8
0
 10
13.93718503937008
 20
-58.12867322834646
 30
0.0
  0
VERTEX
  5
381
  8
0
 10
13.94019291338583
 20
-58.12620472440945
 30
0.0
  0
VERTEX
  5
382
  8
0
 10
13.94286614173228
 20
-58.12335433070866
 30
0.0
  0
VERTEX
  5
383
  8
0
 10
13.94516141732283
 20
-58.12015354330709
 30
0.0
  0
VERTEX
  5
384
  8
0
 10
13.94704330708661
 20
-58.11663385826772
 30
0.0
  0
VERTEX
  5
385
  8
0
 10
13.94844094488189
 20
-58.11289763779528
 30
0.0
  0
VERTEX
  5
386
  8
0
 10
13.94932283464567
 20
-58.10905905511811
 30
0.0
  0
VERTEX
  5
387
  8
0
 10
13.9496968503937
 20
-58.10517322834646
 30
0.0
  0
VERTEX
  5
388
  8
0
 10
13.94956299212598
 20
-58.10128346456693
 30
0.0
  0
VERTEX
  5
389
  8
0
 10
13.94892519685039
 20
-58.09744094488189
 30
0.0
  0
VERTEX
  5
38A
  8
0
 10
13.94779527559055
 20
-58.09370078740157
 30
0.0
  0
VERTEX
  5
38B
  8
0
 10
13.94617322834646
 20
-58.09011417322834
 30
0.0
  0
VERTEX
  5
38C
  8
0
 10
13.94406692913386
 20
-58.08672440944882
 30
0.0
  0
VERTEX
  5
38D
  8
0
 10
13.94152755905512
 20
-58.08364566929134
 30
0.0
  0
VERTEX
  5
38E
  8
0
 10
13.93864566929134
 20
-58.08096062992126
 30
0.0
  0
VERTEX
  5
38F
  8
0
 10
13.93546062992126
 20
-58.07869291338583
 30
0.0
  0
VERTEX
  5
390
  8
0
 10
13.93202755905512
 20
-58.07686614173228
 30
0.0
  0
VERTEX
  5
391
  8
0
 10
13.92838188976378
 20
-58.07549606299212
 30
0.0
  0
VERTEX
  5
392
  8
0
 10
13.92457874015748
 20
-58.0746062992126
 30
0.0
  0
VERTEX
  5
393
  8
0
 10
13.92066141732283
 20
-58.07421653543307
 30
0.0
  0
VERTEX
  5
394
  8
0
 10
13.91667322834646
 20
-58.07434645669291
 30
0.0
  0
VERTEX
  5
395
  8
0
 10
13.79350393700787
 20
-58.08029133858268
 30
0.0
  0
VERTEX
  5
396
  8
0
 10
13.79350393700787
 20
-57.93593700787402
 30
0.0
  0
VERTEX
  5
397
  8
0
 10
13.72845275590551
 20
-57.93593700787402
 30
0.0
  0
VERTEX
  5
398
  8
0
 10
13.72850393700787
 20
-58.08029133858268
 30
0.0
  0
VERTEX
  5
399
  8
0
 10
13.53247637795276
 20
-58.06714566929134
 30
0.0
  0
VERTEX
  5
39A
  8
0
 10
13.34357874015748
 20
-58.03503543307087
 30
0.0
  0
VERTEX
  5
39B
  8
0
 10
13.16411811023622
 20
-57.98503149606299
 30
0.0
  0
VERTEX
  5
39C
  8
0
 10
12.99640157480315
 20
-57.91820472440945
 30
0.0
  0
VERTEX
  5
39D
  8
0
 10
12.84272440944882
 20
-57.83562204724409
 30
0.0
  0
VERTEX
  5
39E
  8
0
 10
12.70539763779528
 20
-57.73835826771654
 30
0.0
  0
VERTEX
  5
39F
  8
0
 10
12.58672440944882
 20
-57.62748031496063
 30
0.0
  0
VERTEX
  5
3A0
  8
0
 10
12.48900393700787
 20
-57.50406692913386
 30
0.0
  0
VERTEX
  5
3A1
  8
0
 10
12.48612598425197
 20
-57.50024015748031
 30
0.0
  0
VERTEX
  5
3A2
  8
0
 10
12.48280708661417
 20
-57.4968779527559
 30
0.0
  0
VERTEX
  5
3A3
  8
0
 10
12.47910236220472
 20
-57.49400787401575
 30
0.0
  0
VERTEX
  5
3A4
  8
0
 10
12.47507086614173
 20
-57.49166141732284
 30
0.0
  0
VERTEX
  5
3A5
  8
0
 10
12.47076377952756
 20
-57.48986220472441
 30
0.0
  0
VERTEX
  5
3A6
  8
0
 10
12.46624015748031
 20
-57.48863779527559
 30
0.0
  0
VERTEX
  5
3A7
  8
0
 10
12.46155511811024
 20
-57.48802362204724
 30
0.0
  0
VERTEX
  5
3A8
  8
0
 10
12.45676377952756
 20
-57.48803937007874
 30
0.0
  0
VERTEX
  5
3A9
  8
0
 10
12.45201968503937
 20
-57.48870078740158
 30
0.0
  0
VERTEX
  5
3AA
  8
0
 10
12.44747244094488
 20
-57.48997244094488
 30
0.0
  0
VERTEX
  5
3AB
  8
0
 10
12.44316535433071
 20
-57.49182283464567
 30
0.0
  0
VERTEX
  5
3AC
  8
0
 10
12.43915748031496
 20
-57.4942125984252
 30
0.0
  0
VERTEX
  5
3AD
  8
0
 10
12.43549606299213
 20
-57.4971062992126
 30
0.0
  0
VERTEX
  5
3AE
  8
0
 10
12.43223228346457
 20
-57.50046850393701
 30
0.0
  0
VERTEX
  5
3AF
  8
0
 10
12.42942519685039
 20
-57.50426771653543
 30
0.0
  0
VERTEX
  5
3B0
  8
0
 10
12.42711811023622
 20
-57.50846456692913
 30
0.0
  0
VERTEX
  5
3B1
  8
0
 10
12.42546850393701
 20
-57.51270866141732
 30
0.0
  0
VERTEX
  5
3B2
  8
0
 10
12.42438582677165
 20
-57.51707086614173
 30
0.0
  0
VERTEX
  5
3B3
  8
0
 10
12.42386614173228
 20
-57.52149606299213
 30
0.0
  0
VERTEX
  5
3B4
  8
0
 10
12.42390551181102
 20
-57.52593307086615
 30
0.0
  0
VERTEX
  5
3B5
  8
0
 10
12.42449606299213
 20
-57.53032677165354
 30
0.0
  0
VERTEX
  5
3B6
  8
0
 10
12.42562992125984
 20
-57.53462598425197
 30
0.0
  0
VERTEX
  5
3B7
  8
0
 10
12.42731102362205
 20
-57.53877559055118
 30
0.0
  0
VERTEX
  5
3B8
  8
0
 10
12.42952755905512
 20
-57.54272047244095
 30
0.0
  0
SEQEND
  5
5DA
  8
0
  0
POLYLINE
  5
79
  8
0
 66
     1
 10
0.0
 20
0.0
 30
0.0
 70
     1
  0
VERTEX
  5
3B9
  8
0
 10
12.35113779527559
 20
-57.40591338582677
 30
0.0
  0
VERTEX
  5
3BA
  8
0
 10
12.34073228346457
 20
-57.38267322834646
 30
0.0
  0
VERTEX
  5
3BB
  8
0
 10
12.33105905511811
 20
-57.35927559055118
 30
0.0
  0
VERTEX
  5
3BC
  8
0
 10
12.32211811023622
 20
-57.33573228346457
 30
0.0
  0
VERTEX
  5
3BD
  8
0
 10
12.31391338582677
 20
-57.31205511811024
 30
0.0
  0
VERTEX
  5
3BE
  8
0
 10
12.30644881889764
 20
-57.28824409448819
 30
0.0
  0
VERTEX
  5
3BF
  8
0
 10
12.29972834645669
 20
-57.26431889763779
 30
0.0
  0
VERTEX
  5
3C0
  8
0
 10
12.29375590551181
 20
-57.24027952755905
 30
0.0
  0
VERTEX
  5
3C1
  8
0
 10
12.28852755905512
 20
-57.21614173228347
 30
0.0
  0
VERTEX
  5
3C2
  8
0
 10
7.813200787401575
 20
-57.24876771653543
 30
0.0
  0
VERTEX
  5
3C3
  8
0
 10
7.873043307086614
 20
-57.39910236220472
 30
0.0
  0
VERTEX
  5
3C4
  8
0
 10
8.569393700787401
 20
-57.39916535433071
 30
0.0
  0
VERTEX
  5
3C5
  8
0
 10
8.64103937007874
 20
-57.43629133858268
 30
0.0
  0
VERTEX
  5
3C6
  8
0
 10
8.702968503937008
 20
-57.49440157480315
 30
0.0
  0
VERTEX
  5
3C7
  8
0
 10
8.796925196850394
 20
-57.58444881889764
 30
0.0
  0
VERTEX
  5
3C8
  8
0
 10
9.045842519685038
 20
-57.75414960629922
 30
0.0
  0
VERTEX
  5
3C9
  8
0
 10
9.27967716535433
 20
-57.88804724409449
 30
0.0
  0
VERTEX
  5
3CA
  8
0
 10
9.403370078740158
 20
-57.92821653543307
 30
0.0
  0
VERTEX
  5
3CB
  8
0
 10
10.22372834645669
 20
-57.95635826771654
 30
0.0
  0
VERTEX
  5
3CC
  8
0
 10
10.48526771653543
 20
-57.97957086614174
 30
0.0
  0
VERTEX
  5
3CD
  8
0
 10
10.53937795275591
 20
-57.9874842519685
 30
0.0
  0
VERTEX
  5
3CE
  8
0
 10
10.59332677165354
 20
-57.99542125984252
 30
0.0
  0
VERTEX
  5
3CF
  8
0
 10
10.64695669291339
 20
-58.00340157480315
 30
0.0
  0
VERTEX
  5
3D0
  8
0
 10
10.7001062992126
 20
-58.01145275590551
 30
0.0
  0
VERTEX
  5
3D1
  8
0
 10
10.75261811023622
 20
-58.01958661417323
 30
0.0
  0
VERTEX
  5
3D2
  8
0
 10
10.80432677165354
 20
-58.02783464566929
 30
0.0
  0
VERTEX
  5
3D3
  8
0
 10
10.85507480314961
 20
-58.03621653543307
 30
0.0
  0
VERTEX
  5
3D4
  8
0
 10
10.90470472440945
 20
-58.04475196850394
 30
0.0
  0
VERTEX
  5
3D5
  8
0
 10
10.95309842519685
 20
-58.05346456692914
 30
0.0
  0
VERTEX
  5
3D6
  8
0
 10
11.00031102362205
 20
-58.06235433070866
 30
0.0
  0
VERTEX
  5
3D7
  8
0
 10
11.04644881889764
 20
-58.07142913385827
 30
0.0
  0
VERTEX
  5
3D8
  8
0
 10
11.09161417322835
 20
-58.08069291338582
 30
0.0
  0
VERTEX
  5
3D9
  8
0
 10
11.13590551181102
 20
-58.09014173228346
 30
0.0
  0
VERTEX
  5
3DA
  8
0
 10
11.17942913385827
 20
-58.09977952755906
 30
0.0
  0
VERTEX
  5
3DB
  8
0
 10
11.22228346456693
 20
-58.10961417322834
 30
0.0
  0
VERTEX
  5
3DC
  8
0
 10
11.26457086614173
 20
-58.11964173228346
 30
0.0
  0
VERTEX
  5
3DD
  8
0
 10
11.30631889763779
 20
-58.12985039370079
 30
0.0
  0
VERTEX
  5
3DE
  8
0
 10
11.34724803149606
 20
-58.14013385826772
 30
0.0
  0
VERTEX
  5
3DF
  8
0
 10
11.38700393700787
 20
-58.1503779527559
 30
0.0
  0
VERTEX
  5
3E0
  8
0
 10
11.42522440944882
 20
-58.16046062992126
 30
0.0
  0
VERTEX
  5
3E1
  8
0
 10
11.46155511811024
 20
-58.17025590551181
 30
0.0
  0
VERTEX
  5
3E2
  8
0
 10
11.49564173228346
 20
-58.17965354330709
 30
0.0
  0
VERTEX
  5
3E3
  8
0
 10
11.52712992125984
 20
-58.18852362204724
 30
0.0
  0
VERTEX
  5
3E4
  8
0
 10
11.55565748031496
 20
-58.19674803149606
 30
0.0
  0
VERTEX
  5
3E5
  8
0
 10
11.58100393700787
 20
-58.20424803149606
 30
0.0
  0
VERTEX
  5
3E6
  8
0
 10
11.60345275590551
 20
-58.21111417322835
 30
0.0
  0
VERTEX
  5
3E7
  8
0
 10
11.62342913385827
 20
-58.21747244094488
 30
0.0
  0
VERTEX
  5
3E8
  8
0
 10
11.64135433070866
 20
-58.22345275590551
 30
0.0
  0
VERTEX
  5
3E9
  8
0
 10
11.65763779527559
 20
-58.2291811023622
 30
0.0
  0
VERTEX
  5
3EA
  8
0
 10
11.67270866141732
 20
-58.23478740157481
 30
0.0
  0
VERTEX
  5
3EB
  8
0
 10
11.68698031496063
 20
-58.24040551181103
 30
0.0
  0
VERTEX
  5
3EC
  8
0
 10
11.70087401574803
 20
-58.24615748031496
 30
0.0
  0
VERTEX
  5
3ED
  8
0
 10
11.8525157480315
 20
-58.31438976377953
 30
0.0
  0
VERTEX
  5
3EE
  8
0
 10
11.88332283464567
 20
-58.32788188976378
 30
0.0
  0
VERTEX
  5
3EF
  8
0
 10
11.91742125984252
 20
-58.34259842519685
 30
0.0
  0
VERTEX
  5
3F0
  8
0
 10
11.95435826771654
 20
-58.35828740157481
 30
0.0
  0
VERTEX
  5
3F1
  8
0
 10
11.99367322834646
 20
-58.37470078740157
 30
0.0
  0
VERTEX
  5
3F2
  8
0
 10
12.03491338582677
 20
-58.39159448818898
 30
0.0
  0
VERTEX
  5
3F3
  8
0
 10
12.07761811023622
 20
-58.40872047244095
 30
0.0
  0
VERTEX
  5
3F4
  8
0
 10
12.12133858267716
 20
-58.42583070866142
 30
0.0
  0
VERTEX
  5
3F5
  8
0
 10
12.16561417322835
 20
-58.44267716535433
 30
0.0
  0
VERTEX
  5
3F6
  8
0
 10
12.21005511811024
 20
-58.45905511811024
 30
0.0
  0
VERTEX
  5
3F7
  8
0
 10
12.25451968503937
 20
-58.4749094488189
 30
0.0
  0
VERTEX
  5
3F8
  8
0
 10
12.29893700787402
 20
-58.4902283464567
 30
0.0
  0
VERTEX
  5
3F9
  8
0
 10
12.34323228346457
 20
-58.50500393700787
 30
0.0
  0
VERTEX
  5
3FA
  8
0
 10
12.38733070866142
 20
-58.51921653543307
 30
0.0
  0
VERTEX
  5
3FB
  8
0
 10
12.43116141732284
 20
-58.53286220472441
 30
0.0
  0
VERTEX
  5
3FC
  8
0
 10
12.47464960629921
 20
-58.54592125984252
 30
0.0
  0
VERTEX
  5
3FD
  8
0
 10
12.51772047244095
 20
-58.55838582677166
 30
0.0
  0
VERTEX
  5
3FE
  8
0
 10
12.56029133858268
 20
-58.57024409448819
 30
0.0
  0
VERTEX
  5
3FF
  8
0
 10
12.60224409448819
 20
-58.58149606299212
 30
0.0
  0
VERTEX
  5
400
  8
0
 10
12.64344881889764
 20
-58.59214173228347
 30
0.0
  0
VERTEX
  5
401
  8
0
 10
12.68377559055118
 20
-58.6021811023622
 30
0.0
  0
VERTEX
  5
402
  8
0
 10
12.72309448818898
 20
-58.61161023622047
 30
0.0
  0
VERTEX
  5
403
  8
0
 10
12.76128346456693
 20
-58.62043700787402
 30
0.0
  0
VERTEX
  5
404
  8
0
 10
12.79820866141732
 20
-58.62865748031496
 30
0.0
  0
VERTEX
  5
405
  8
0
 10
12.83374015748032
 20
-58.63627559055118
 30
0.0
  0
VERTEX
  5
406
  8
0
 10
12.86787401574803
 20
-58.6433031496063
 30
0.0
  0
VERTEX
  5
407
  8
0
 10
12.90109448818898
 20
-58.6498031496063
 30
0.0
  0
VERTEX
  5
408
  8
0
 10
12.934
 20
-58.65585433070866
 30
0.0
  0
VERTEX
  5
409
  8
0
 10
12.96720078740158
 20
-58.66153937007874
 30
0.0
  0
VERTEX
  5
40A
  8
0
 10
13.00129133858268
 20
-58.66693307086614
 30
0.0
  0
VERTEX
  5
40B
  8
0
 10
13.03688582677165
 20
-58.67211811023622
 30
0.0
  0
VERTEX
  5
40C
  8
0
 10
13.07457874015748
 20
-58.67716929133858
 30
0.0
  0
VERTEX
  5
40D
  8
0
 10
13.11498031496063
 20
-58.68216535433071
 30
0.0
  0
VERTEX
  5
40E
  8
0
 10
13.15854724409449
 20
-58.68716141732283
 30
0.0
  0
VERTEX
  5
40F
  8
0
 10
13.20517322834646
 20
-58.69209448818898
 30
0.0
  0
VERTEX
  5
410
  8
0
 10
13.25459842519685
 20
-58.69688188976378
 30
0.0
  0
VERTEX
  5
411
  8
0
 10
13.30657480314961
 20
-58.70144094488189
 30
0.0
  0
VERTEX
  5
412
  8
0
 10
13.36084251968504
 20
-58.70568110236221
 30
0.0
  0
VERTEX
  5
413
  8
0
 10
13.41715354330709
 20
-58.70952362204724
 30
0.0
  0
VERTEX
  5
414
  8
0
 10
13.47524803149606
 20
-58.71288188976378
 30
0.0
  0
VERTEX
  5
415
  8
0
 10
13.53487795275591
 20
-58.71566929133859
 30
0.0
  0
VERTEX
  5
416
  8
0
 10
13.59584645669291
 20
-58.71779527559055
 30
0.0
  0
VERTEX
  5
417
  8
0
 10
13.65820866141732
 20
-58.71913385826772
 30
0.0
  0
VERTEX
  5
418
  8
0
 10
13.72208661417323
 20
-58.71954724409449
 30
0.0
  0
VERTEX
  5
419
  8
0
 10
13.78758661417323
 20
-58.7189094488189
 30
0.0
  0
VERTEX
  5
41A
  8
0
 10
13.85483464566929
 20
-58.71708267716535
 30
0.0
  0
VERTEX
  5
41B
  8
0
 10
13.92394488188976
 20
-58.71393307086614
 30
0.0
  0
VERTEX
  5
41C
  8
0
 10
13.99503149606299
 20
-58.70932677165354
 30
0.0
  0
VERTEX
  5
41D
  8
0
 10
14.0682125984252
 20
-58.70313385826772
 30
0.0
  0
VERTEX
  5
41E
  8
0
 10
14.14339763779528
 20
-58.69529133858268
 30
0.0
  0
VERTEX
  5
41F
  8
0
 10
14.21967716535433
 20
-58.68604330708661
 30
0.0
  0
VERTEX
  5
420
  8
0
 10
14.29592519685039
 20
-58.67569291338582
 30
0.0
  0
VERTEX
  5
421
  8
0
 10
14.37102755905512
 20
-58.66456299212599
 30
0.0
  0
VERTEX
  5
422
  8
0
 10
14.44385826771654
 20
-58.65295669291338
 30
0.0
  0
VERTEX
  5
423
  8
0
 10
14.51330708661417
 20
-58.6411968503937
 30
0.0
  0
VERTEX
  5
424
  8
0
 10
14.57824409448819
 20
-58.62958661417323
 30
0.0
  0
VERTEX
  5
425
  8
0
 10
14.63755511811024
 20
-58.61844488188976
 30
0.0
  0
VERTEX
  5
426
  8
0
 10
14.69057874015748
 20
-58.60795669291338
 30
0.0
  0
VERTEX
  5
427
  8
0
 10
14.73849212598425
 20
-58.59779527559055
 30
0.0
  0
VERTEX
  5
428
  8
0
 10
14.78293700787402
 20
-58.58750787401575
 30
0.0
  0
VERTEX
  5
429
  8
0
 10
14.82554330708661
 20
-58.57664173228346
 30
0.0
  0
VERTEX
  5
42A
  8
0
 10
14.86795275590551
 20
-58.56474803149607
 30
0.0
  0
VERTEX
  5
42B
  8
0
 10
14.91179921259842
 20
-58.55137007874016
 30
0.0
  0
VERTEX
  5
42C
  8
0
 10
14.95872047244094
 20
-58.53605905511811
 30
0.0
  0
VERTEX
  5
42D
  8
0
 10
15.01035826771654
 20
-58.51836220472441
 30
0.0
  0
VERTEX
  5
42E
  8
0
 10
15.06785039370079
 20
-58.49798031496063
 30
0.0
  0
VERTEX
  5
42F
  8
0
 10
15.13036220472441
 20
-58.47522047244095
 30
0.0
  0
VERTEX
  5
430
  8
0
 10
15.19656299212599
 20
-58.45053937007874
 30
0.0
  0
VERTEX
  5
431
  8
0
 10
15.26511811023622
 20
-58.42439763779527
 30
0.0
  0
VERTEX
  5
432
  8
0
 10
15.33470078740157
 20
-58.39725984251969
 30
0.0
  0
VERTEX
  5
433
  8
0
 10
15.40398031496063
 20
-58.36958267716535
 30
0.0
  0
VERTEX
  5
434
  8
0
 10
15.47161811023622
 20
-58.34182677165354
 30
0.0
  0
VERTEX
  5
435
  8
0
 10
15.53629133858268
 20
-58.31444881889764
 30
0.0
  0
VERTEX
  5
436
  8
0
 10
15.5969842519685
 20
-58.28782283464567
 30
0.0
  0
VERTEX
  5
437
  8
0
 10
15.65396456692913
 20
-58.26194488188976
 30
0.0
  0
VERTEX
  5
438
  8
0
 10
15.70781496062992
 20
-58.23672440944882
 30
0.0
  0
VERTEX
  5
439
  8
0
 10
15.75912204724409
 20
-58.21206692913386
 30
0.0
  0
VERTEX
  5
43A
  8
0
 10
15.80847244094488
 20
-58.18788188976378
 30
0.0
  0
VERTEX
  5
43B
  8
0
 10
15.85644881889764
 20
-58.16408267716535
 30
0.0
  0
VERTEX
  5
43C
  8
0
 10
15.90364173228346
 20
-58.14057086614173
 30
0.0
  0
VERTEX
  5
43D
  8
0
 10
15.95063385826772
 20
-58.11725590551181
 30
0.0
  0
VERTEX
  5
43E
  8
0
 10
15.99791338582677
 20
-58.09407086614173
 30
0.0
  0
VERTEX
  5
43F
  8
0
 10
16.04557874015748
 20
-58.07103937007874
 30
0.0
  0
VERTEX
  5
440
  8
0
 10
16.09362992125984
 20
-58.04820078740158
 30
0.0
  0
VERTEX
  5
441
  8
0
 10
16.14207086614173
 20
-58.02559842519685
 30
0.0
  0
VERTEX
  5
442
  8
0
 10
16.19090551181102
 20
-58.00328346456693
 30
0.0
  0
VERTEX
  5
443
  8
0
 10
16.24013385826771
 20
-57.98129133858268
 30
0.0
  0
VERTEX
  5
444
  8
0
 10
16.28975590551181
 20
-57.95966929133859
 30
0.0
  0
VERTEX
  5
445
  8
0
 10
16.33977559055118
 20
-57.93846456692913
 30
0.0
  0
VERTEX
  5
446
  8
0
 10
16.39020078740158
 20
-57.9177125984252
 30
0.0
  0
VERTEX
  5
447
  8
0
 10
16.44106692913386
 20
-57.89743700787402
 30
0.0
  0
VERTEX
  5
448
  8
0
 10
16.49241732283464
 20
-57.87764173228346
 30
0.0
  0
VERTEX
  5
449
  8
0
 10
16.54429527559055
 20
-57.85834645669291
 30
0.0
  0
VERTEX
  5
44A
  8
0
 10
16.59673622047244
 20
-57.83956299212598
 30
0.0
  0
VERTEX
  5
44B
  8
0
 10
16.64979133858268
 20
-57.8213031496063
 30
0.0
  0
VERTEX
  5
44C
  8
0
 10
16.70349606299213
 20
-57.80357874015748
 30
0.0
  0
VERTEX
  5
44D
  8
0
 10
16.7578937007874
 20
-57.78640551181103
 30
0.0
  0
VERTEX
  5
44E
  8
0
 10
16.81305511811023
 20
-57.76977559055118
 30
0.0
  0
VERTEX
  5
44F
  8
0
 10
16.86914566929134
 20
-57.75359842519685
 30
0.0
  0
VERTEX
  5
450
  8
0
 10
16.92636614173228
 20
-57.73776771653543
 30
0.0
  0
VERTEX
  5
451
  8
0
 10
16.98490551181103
 20
-57.72217716535433
 30
0.0
  0
VERTEX
  5
452
  8
0
 10
17.04496062992126
 20
-57.7067125984252
 30
0.0
  0
VERTEX
  5
453
  8
0
 10
17.10672440944882
 20
-57.69126771653544
 30
0.0
  0
VERTEX
  5
454
  8
0
 10
17.1703937007874
 20
-57.67573622047244
 30
0.0
  0
VERTEX
  5
455
  8
0
 10
17.23616535433071
 20
-57.66000787401575
 30
0.0
  0
VERTEX
  5
456
  8
0
 10
17.3041811023622
 20
-57.64399212598425
 30
0.0
  0
VERTEX
  5
457
  8
0
 10
17.3743937007874
 20
-57.6276811023622
 30
0.0
  0
VERTEX
  5
458
  8
0
 10
17.44670078740157
 20
-57.61108267716536
 30
0.0
  0
VERTEX
  5
459
  8
0
 10
17.52100393700787
 20
-57.59420472440945
 30
0.0
  0
VERTEX
  5
45A
  8
0
 10
17.59720078740158
 20
-57.57705511811024
 30
0.0
  0
VERTEX
  5
45B
  8
0
 10
17.6751968503937
 20
-57.55964566929134
 30
0.0
  0
VERTEX
  5
45C
  8
0
 10
17.75488976377953
 20
-57.54198031496063
 30
0.0
  0
VERTEX
  5
45D
  8
0
 10
17.8361811023622
 20
-57.52407480314961
 30
0.0
  0
VERTEX
  5
45E
  8
0
 10
18.42822047244094
 20
-57.39597244094488
 30
0.0
  0
VERTEX
  5
45F
  8
0
 10
18.63916929133858
 20
-57.35241338582677
 30
0.0
  0
VERTEX
  5
460
  8
0
 10
18.69954330708661
 20
-57.34070472440945
 30
0.0
  0
VERTEX
  5
461
  8
0
 10
18.70649212598425
 20
-57.33872834645669
 30
0.0
  0
VERTEX
  5
462
  8
0
 10
18.71139763779528
 20
-57.33653543307086
 30
0.0
  0
VERTEX
  5
463
  8
0
 10
18.71514960629921
 20
-57.33370472440945
 30
0.0
  0
VERTEX
  5
464
  8
0
 10
18.71864566929134
 20
-57.32981102362205
 30
0.0
  0
VERTEX
  5
465
  8
0
 10
18.73678346456693
 20
-57.30051181102363
 30
0.0
  0
VERTEX
  5
466
  8
0
 10
18.74168897637795
 20
-57.29001968503937
 30
0.0
  0
VERTEX
  5
467
  8
0
 10
18.7461811023622
 20
-57.27807874015748
 30
0.0
  0
VERTEX
  5
468
  8
0
 10
18.74814173228346
 20
-57.27147637795276
 30
0.0
  0
VERTEX
  5
469
  8
0
 10
18.74983858267716
 20
-57.26440551181102
 30
0.0
  0
VERTEX
  5
46A
  8
0
 10
18.75122440944882
 20
-57.25682677165354
 30
0.0
  0
VERTEX
  5
46B
  8
0
 10
18.75224409448819
 20
-57.2487125984252
 30
0.0
  0
VERTEX
  5
46C
  8
0
 10
18.75311417322835
 20
-57.23072834645669
 30
0.0
  0
VERTEX
  5
46D
  8
0
 10
18.75271653543307
 20
-57.21021653543307
 30
0.0
  0
VERTEX
  5
46E
  8
0
 10
18.75145669291339
 20
-57.18695669291338
 30
0.0
  0
VERTEX
  5
46F
  8
0
 10
18.74973622047244
 20
-57.16072440944882
 30
0.0
  0
VERTEX
  5
470
  8
0
 10
18.74124015748032
 20
-57.00875590551181
 30
0.0
  0
VERTEX
  5
471
  8
0
 10
18.72708661417323
 20
-56.72733070866142
 30
0.0
  0
VERTEX
  5
472
  8
0
 10
18.70943307086614
 20
-56.39099606299212
 30
0.0
  0
VERTEX
  5
473
  8
0
 10
18.70793307086614
 20
-56.36706692913386
 30
0.0
  0
VERTEX
  5
474
  8
0
 10
18.70537795275591
 20
-56.3489842519685
 30
0.0
  0
VERTEX
  5
475
  8
0
 10
18.70034645669291
 20
-56.33579921259842
 30
0.0
  0
VERTEX
  5
476
  8
0
 10
18.69142913385827
 20
-56.32656692913386
 30
0.0
  0
VERTEX
  5
477
  8
0
 10
18.67720078740157
 20
-56.32033858267717
 30
0.0
  0
VERTEX
  5
478
  8
0
 10
18.65624409448819
 20
-56.31616535433071
 30
0.0
  0
VERTEX
  5
479
  8
0
 10
18.62714960629921
 20
-56.31311023622047
 30
0.0
  0
VERTEX
  5
47A
  8
0
 10
18.58849212598425
 20
-56.31021653543307
 30
0.0
  0
VERTEX
  5
47B
  8
0
 10
18.53954330708661
 20
-56.30672834645669
 30
0.0
  0
VERTEX
  5
47C
  8
0
 10
18.48231102362205
 20
-56.30262598425197
 30
0.0
  0
VERTEX
  5
47D
  8
0
 10
18.41948818897638
 20
-56.2980748031496
 30
0.0
  0
VERTEX
  5
47E
  8
0
 10
18.35376377952756
 20
-56.29324409448819
 30
0.0
  0
VERTEX
  5
47F
  8
0
 10
18.28782677165354
 20
-56.2883031496063
 30
0.0
  0
VERTEX
  5
480
  8
0
 10
18.2243779527559
 20
-56.28341338582677
 30
0.0
  0
VERTEX
  5
481
  8
0
 10
18.16610236220473
 20
-56.27874409448819
 30
0.0
  0
VERTEX
  5
482
  8
0
 10
18.11569291338583
 20
-56.27446456692913
 30
0.0
  0
VERTEX
  5
483
  8
0
 10
18.07517322834646
 20
-56.27068503937008
 30
0.0
  0
VERTEX
  5
484
  8
0
 10
18.04388582677165
 20
-56.2673031496063
 30
0.0
  0
VERTEX
  5
485
  8
0
 10
18.0205
 20
-56.26415748031496
 30
0.0
  0
VERTEX
  5
486
  8
0
 10
18.00369291338583
 20
-56.26109055118111
 30
0.0
  0
VERTEX
  5
487
  8
0
 10
17.99212598425197
 20
-56.25794488188976
 30
0.0
  0
VERTEX
  5
488
  8
0
 10
17.98448031496063
 20
-56.25455905511811
 30
0.0
  0
VERTEX
  5
489
  8
0
 10
17.97942519685039
 20
-56.25077559055118
 30
0.0
  0
VERTEX
  5
48A
  8
0
 10
17.97562992125984
 20
-56.24643307086614
 30
0.0
  0
VERTEX
  5
48B
  8
0
 10
17.96823622047244
 20
-56.23582677165354
 30
0.0
  0
VERTEX
  5
48C
  8
0
 10
17.9603031496063
 20
-56.22335433070866
 30
0.0
  0
VERTEX
  5
48D
  8
0
 10
17.95155905511811
 20
-56.21001574803149
 30
0.0
  0
VERTEX
  5
48E
  8
0
 10
17.94173228346457
 20
-56.1968031496063
 30
0.0
  0
VERTEX
  5
48F
  8
0
 10
17.93632283464567
 20
-56.19053543307086
 30
0.0
  0
VERTEX
  5
490
  8
0
 10
17.93051968503937
 20
-56.18453543307086
 30
0.0
  0
VERTEX
  5
491
  8
0
 10
17.92425984251969
 20
-56.17879133858268
 30
0.0
  0
VERTEX
  5
492
  8
0
 10
17.9174842519685
 20
-56.17328346456693
 30
0.0
  0
VERTEX
  5
493
  8
0
 10
17.91013779527559
 20
-56.168
 30
0.0
  0
VERTEX
  5
494
  8
0
 10
17.90215748031496
 20
-56.16293307086614
 30
0.0
  0
VERTEX
  5
495
  8
0
 10
17.89348818897638
 20
-56.15805905511811
 30
0.0
  0
VERTEX
  5
496
  8
0
 10
17.88407086614173
 20
-56.15336614173228
 30
0.0
  0
VERTEX
  5
497
  8
0
 10
17.87378346456693
 20
-56.14883464566929
 30
0.0
  0
VERTEX
  5
498
  8
0
 10
17.86225590551181
 20
-56.14439763779527
 30
0.0
  0
VERTEX
  5
499
  8
0
 10
17.84905511811024
 20
-56.13998818897637
 30
0.0
  0
VERTEX
  5
49A
  8
0
 10
17.83374409448819
 20
-56.13553543307086
 30
0.0
  0
VERTEX
  5
49B
  8
0
 10
17.8158937007874
 20
-56.13096062992126
 30
0.0
  0
VERTEX
  5
49C
  8
0
 10
17.79506692913386
 20
-56.12620078740157
 30
0.0
  0
VERTEX
  5
49D
  8
0
 10
17.77083070866142
 20
-56.12118503937008
 30
0.0
  0
VERTEX
  5
49E
  8
0
 10
17.74275196850394
 20
-56.11583464566929
 30
0.0
  0
VERTEX
  5
49F
  8
0
 10
17.71059842519685
 20
-56.11009842519685
 30
0.0
  0
VERTEX
  5
4A0
  8
0
 10
17.67492519685039
 20
-56.10396850393701
 30
0.0
  0
VERTEX
  5
4A1
  8
0
 10
17.6364842519685
 20
-56.09745669291338
 30
0.0
  0
VERTEX
  5
4A2
  8
0
 10
17.59603543307087
 20
-56.09057480314961
 30
0.0
  0
VERTEX
  5
4A3
  8
0
 10
17.55433070866142
 20
-56.08333070866141
 30
0.0
  0
VERTEX
  5
4A4
  8
0
 10
17.51212598425197
 20
-56.07573228346457
 30
0.0
  0
VERTEX
  5
4A5
  8
0
 10
17.47017716535433
 20
-56.06779133858268
 30
0.0
  0
VERTEX
  5
4A6
  8
0
 10
17.42924015748032
 20
-56.05951574803149
 30
0.0
  0
VERTEX
  5
4A7
  8
0
 10
17.3899251968504
 20
-56.05092519685039
 30
0.0
  0
VERTEX
  5
4A8
  8
0
 10
17.35225984251969
 20
-56.04205905511811
 30
0.0
  0
VERTEX
  5
4A9
  8
0
 10
17.31612992125984
 20
-56.03296850393701
 30
0.0
  0
VERTEX
  5
4AA
  8
0
 10
17.28142125984252
 20
-56.0236968503937
 30
0.0
  0
VERTEX
  5
4AB
  8
0
 10
17.24801968503937
 20
-56.01429527559055
 30
0.0
  0
VERTEX
  5
4AC
  8
0
 10
17.21580708661417
 20
-56.00481102362205
 30
0.0
  0
VERTEX
  5
4AD
  8
0
 10
17.18466535433071
 20
-55.99529133858267
 30
0.0
  0
VERTEX
  5
4AE
  8
0
 10
17.15448818897638
 20
-55.9857874015748
 30
0.0
  0
VERTEX
  5
4AF
  8
0
 10
17.12521653543307
 20
-55.97634645669292
 30
0.0
  0
VERTEX
  5
4B0
  8
0
 10
17.09703149606299
 20
-55.96703937007874
 30
0.0
  0
VERTEX
  5
4B1
  8
0
 10
17.07018503937008
 20
-55.95793307086614
 30
0.0
  0
VERTEX
  5
4B2
  8
0
 10
17.04491732283465
 20
-55.94910236220473
 30
0.0
  0
VERTEX
  5
4B3
  8
0
 10
17.02147244094488
 20
-55.94061023622047
 30
0.0
  0
VERTEX
  5
4B4
  8
0
 10
17.00009842519685
 20
-55.93253543307087
 30
0.0
  0
VERTEX
  5
4B5
  8
0
 10
16.98103937007874
 20
-55.92494488188976
 30
0.0
  0
VERTEX
  5
4B6
  8
0
 10
16.96453937007874
 20
-55.9179094488189
 30
0.0
  0
VERTEX
  5
4B7
  8
0
 10
16.95067322834646
 20
-55.91138188976378
 30
0.0
  0
VERTEX
  5
4B8
  8
0
 10
16.93881889763779
 20
-55.90483464566929
 30
0.0
  0
VERTEX
  5
4B9
  8
0
 10
16.92818503937008
 20
-55.89763385826772
 30
0.0
  0
VERTEX
  5
4BA
  8
0
 10
16.91798425196851
 20
-55.88913779527559
 30
0.0
  0
VERTEX
  5
4BB
  8
0
 10
16.90741338582677
 20
-55.87870472440945
 30
0.0
  0
VERTEX
  5
4BC
  8
0
 10
16.89569291338583
 20
-55.86569291338583
 30
0.0
  0
VERTEX
  5
4BD
  8
0
 10
16.88201968503937
 20
-55.84946850393701
 30
0.0
  0
VERTEX
  5
4BE
  8
0
 10
16.8656062992126
 20
-55.82938188976378
 30
0.0
  0
VERTEX
  5
4BF
  8
0
 10
16.84584251968504
 20
-55.80500787401575
 30
0.0
  0
VERTEX
  5
4C0
  8
0
 10
16.82285039370079
 20
-55.77672834645669
 30
0.0
  0
VERTEX
  5
4C1
  8
0
 10
16.79693700787401
 20
-55.74514173228346
 30
0.0
  0
VERTEX
  5
4C2
  8
0
 10
16.76840551181103
 20
-55.71084645669291
 30
0.0
  0
VERTEX
  5
4C3
  8
0
 10
16.73755905511811
 20
-55.67443307086614
 30
0.0
  0
VERTEX
  5
4C4
  8
0
 10
16.70470472440945
 20
-55.6365
 30
0.0
  0
VERTEX
  5
4C5
  8
0
 10
16.67014173228347
 20
-55.59764173228346
 30
0.0
  0
VERTEX
  5
4C6
  8
0
 10
16.63418503937008
 20
-55.55845669291339
 30
0.0
  0
VERTEX
  5
4C7
  8
0
 10
16.59713385826772
 20
-55.51947244094488
 30
0.0
  0
VERTEX
  5
4C8
  8
0
 10
16.55929133858268
 20
-55.48096850393701
 30
0.0
  0
VERTEX
  5
4C9
  8
0
 10
16.52096456692913
 20
-55.44315354330708
 30
0.0
  0
VERTEX
  5
4CA
  8
0
 10
16.48245275590551
 20
-55.40624015748031
 30
0.0
  0
VERTEX
  5
4CB
  8
0
 10
16.44406692913386
 20
-55.37043700787402
 30
0.0
  0
VERTEX
  5
4CC
  8
0
 10
16.4061062992126
 20
-55.33596456692914
 30
0.0
  0
VERTEX
  5
4CD
  8
0
 10
16.36888188976378
 20
-55.30302362204724
 30
0.0
  0
VERTEX
  5
4CE
  8
0
 10
16.33268897637795
 20
-55.27183464566929
 30
0.0
  0
VERTEX
  5
4CF
  8
0
 10
16.29768897637795
 20
-55.24249606299212
 30
0.0
  0
VERTEX
  5
4D0
  8
0
 10
16.2634251968504
 20
-55.21467322834646
 30
0.0
  0
VERTEX
  5
4D1
  8
0
 10
16.22929527559055
 20
-55.18792125984252
 30
0.0
  0
VERTEX
  5
4D2
  8
0
 10
16.19470078740158
 20
-55.1618031496063
 30
0.0
  0
VERTEX
  5
4D3
  8
0
 10
16.15903543307087
 20
-55.13586614173229
 30
0.0
  0
VERTEX
  5
4D4
  8
0
 10
16.1216968503937
 20
-55.10967322834646
 30
0.0
  0
VERTEX
  5
4D5
  8
0
 10
16.08208267716535
 20
-55.08277952755905
 30
0.0
  0
VERTEX
  5
4D6
  8
0
 10
16.0395905511811
 20
-55.05474015748032
 30
0.0
  0
VERTEX
  5
4D7
  8
0
 10
15.99385039370079
 20
-55.02526771653543
 30
0.0
  0
VERTEX
  5
4D8
  8
0
 10
15.94542125984252
 20
-54.99470472440945
 30
0.0
  0
VERTEX
  5
4D9
  8
0
 10
15.89509842519685
 20
-54.96353937007874
 30
0.0
  0
VERTEX
  5
4DA
  8
0
 10
15.84366929133858
 20
-54.93227559055118
 30
0.0
  0
VERTEX
  5
4DB
  8
0
 10
15.79192913385827
 20
-54.90140157480315
 30
0.0
  0
VERTEX
  5
4DC
  8
0
 10
15.74066929133858
 20
-54.87141732283465
 30
0.0
  0
VERTEX
  5
4DD
  8
0
 10
15.69068110236221
 20
-54.8428188976378
 30
0.0
  0
VERTEX
  5
4DE
  8
0
 10
15.64275984251969
 20
-54.81609448818897
 30
0.0
  0
VERTEX
  5
4DF
  8
0
 10
15.59744094488189
 20
-54.7916062992126
 30
0.0
  0
VERTEX
  5
4E0
  8
0
 10
15.55423228346457
 20
-54.76913385826771
 30
0.0
  0
VERTEX
  5
4E1
  8
0
 10
15.51238976377953
 20
-54.74832677165355
 30
0.0
  0
VERTEX
  5
4E2
  8
0
 10
15.47117322834646
 20
-54.72882677165354
 30
0.0
  0
VERTEX
  5
4E3
  8
0
 10
15.42983070866142
 20
-54.71027952755905
 30
0.0
  0
VERTEX
  5
4E4
  8
0
 10
15.38761811023622
 20
-54.69232677165354
 30
0.0
  0
VERTEX
  5
4E5
  8
0
 10
15.34379133858268
 20
-54.67461417322835
 30
0.0
  0
VERTEX
  5
4E6
  8
0
 10
15.2976062992126
 20
-54.6567874015748
 30
0.0
  0
VERTEX
  5
4E7
  8
0
 10
15.24849606299213
 20
-54.63857874015748
 30
0.0
  0
VERTEX
  5
4E8
  8
0
 10
15.19661417322835
 20
-54.6200905511811
 30
0.0
  0
VERTEX
  5
4E9
  8
0
 10
15.1422874015748
 20
-54.6015
 30
0.0
  0
VERTEX
  5
4EA
  8
0
 10
15.08585826771654
 20
-54.58299606299212
 30
0.0
  0
VERTEX
  5
4EB
  8
0
 10
15.02764566929134
 20
-54.56477165354331
 30
0.0
  0
VERTEX
  5
4EC
  8
0
 10
14.96799212598425
 20
-54.54700393700787
 30
0.0
  0
VERTEX
  5
4ED
  8
0
 10
14.90722440944882
 20
-54.52988582677165
 30
0.0
  0
VERTEX
  5
4EE
  8
0
 10
14.84567716535433
 20
-54.51359842519685
 30
0.0
  0
VERTEX
  5
4EF
  8
0
 10
14.7835905511811
 20
-54.4983031496063
 30
0.0
  0
VERTEX
  5
4F0
  8
0
 10
14.72083464566929
 20
-54.48403937007874
 30
0.0
  0
VERTEX
  5
4F1
  8
0
 10
14.65720472440945
 20
-54.47081102362205
 30
0.0
  0
VERTEX
  5
4F2
  8
0
 10
14.59247637795276
 20
-54.45862992125984
 30
0.0
  0
VERTEX
  5
4F3
  8
0
 10
14.52643700787402
 20
-54.44750393700787
 30
0.0
  0
VERTEX
  5
4F4
  8
0
 10
14.45887007874016
 20
-54.43744488188976
 30
0.0
  0
VERTEX
  5
4F5
  8
0
 10
14.38955905511811
 20
-54.42846062992126
 30
0.0
  0
VERTEX
  5
4F6
  8
0
 10
14.31829133858268
 20
-54.42055905511811
 30
0.0
  0
VERTEX
  5
4F7
  8
0
 10
14.2449094488189
 20
-54.41377165354331
 30
0.0
  0
VERTEX
  5
4F8
  8
0
 10
14.1695
 20
-54.40821653543307
 30
0.0
  0
VERTEX
  5
4F9
  8
0
 10
14.0921968503937
 20
-54.40401968503937
 30
0.0
  0
VERTEX
  5
4FA
  8
0
 10
14.01315354330709
 20
-54.40132283464567
 30
0.0
  0
VERTEX
  5
4FB
  8
0
 10
13.9325
 20
-54.40025984251969
 30
0.0
  0
VERTEX
  5
4FC
  8
0
 10
13.85038976377953
 20
-54.40096456692913
 30
0.0
  0
VERTEX
  5
4FD
  8
0
 10
13.76696062992126
 20
-54.40357086614173
 30
0.0
  0
VERTEX
  5
4FE
  8
0
 10
13.68235826771654
 20
-54.40821653543307
 30
0.0
  0
VERTEX
  5
4FF
  8
0
 10
13.59675196850394
 20
-54.41500393700787
 30
0.0
  0
VERTEX
  5
500
  8
0
 10
13.51044488188976
 20
-54.4239094488189
 30
0.0
  0
VERTEX
  5
501
  8
0
 10
13.42375590551181
 20
-54.4348779527559
 30
0.0
  0
VERTEX
  5
502
  8
0
 10
13.33701968503937
 20
-54.44785039370079
 30
0.0
  0
VERTEX
  5
503
  8
0
 10
13.25056299212598
 20
-54.46276771653543
 30
0.0
  0
VERTEX
  5
504
  8
0
 10
13.16470866141732
 20
-54.47958267716535
 30
0.0
  0
VERTEX
  5
505
  8
0
 10
13.07979133858268
 20
-54.49823228346457
 30
0.0
  0
VERTEX
  5
506
  8
0
 10
12.99613385826772
 20
-54.51866141732283
 30
0.0
  0
VERTEX
  5
507
  8
0
 10
12.91403937007874
 20
-54.54079133858268
 30
0.0
  0
VERTEX
  5
508
  8
0
 10
12.83369291338583
 20
-54.56442519685039
 30
0.0
  0
VERTEX
  5
509
  8
0
 10
12.75525984251968
 20
-54.58935039370079
 30
0.0
  0
VERTEX
  5
50A
  8
0
 10
12.6788937007874
 20
-54.61535039370079
 30
0.0
  0
VERTEX
  5
50B
  8
0
 10
12.60475984251969
 20
-54.64220866141732
 30
0.0
  0
VERTEX
  5
50C
  8
0
 10
12.53301968503937
 20
-54.66970472440945
 30
0.0
  0
VERTEX
  5
50D
  8
0
 10
12.46383070866142
 20
-54.69762598425197
 30
0.0
  0
VERTEX
  5
50E
  8
0
 10
12.39735826771654
 20
-54.72575196850394
 30
0.0
  0
VERTEX
  5
50F
  8
0
 10
12.33366141732284
 20
-54.75394488188977
 30
0.0
  0
VERTEX
  5
510
  8
0
 10
12.27240551181102
 20
-54.78236614173228
 30
0.0
  0
VERTEX
  5
511
  8
0
 10
12.21316141732284
 20
-54.81125196850394
 30
0.0
  0
VERTEX
  5
512
  8
0
 10
12.15549606299213
 20
-54.84084251968504
 30
0.0
  0
VERTEX
  5
513
  8
0
 10
12.09898031496063
 20
-54.87137795275591
 30
0.0
  0
VERTEX
  5
514
  8
0
 10
12.0431811023622
 20
-54.90309448818898
 30
0.0
  0
VERTEX
  5
515
  8
0
 10
11.98766535433071
 20
-54.93623228346457
 30
0.0
  0
VERTEX
  5
516
  8
0
 10
11.93200393700787
 20
-54.97102755905512
 30
0.0
  0
VERTEX
  5
517
  8
0
 10
11.87596850393701
 20
-55.00756299212598
 30
0.0
  0
VERTEX
  5
518
  8
0
 10
11.82013779527559
 20
-55.04527559055118
 30
0.0
  0
VERTEX
  5
519
  8
0
 10
11.76529133858268
 20
-55.08345275590551
 30
0.0
  0
VERTEX
  5
51A
  8
0
 10
11.71221653543307
 20
-55.12137007874016
 30
0.0
  0
VERTEX
  5
51B
  8
0
 10
11.66168897637795
 20
-55.15831496062992
 30
0.0
  0
VERTEX
  5
51C
  8
0
 10
11.61449212598425
 20
-55.19356692913386
 30
0.0
  0
VERTEX
  5
51D
  8
0
 10
11.57141338582677
 20
-55.2264094488189
 30
0.0
  0
VERTEX
  5
51E
  8
0
 10
11.53322834645669
 20
-55.2561220472441
 30
0.0
  0
VERTEX
  5
51F
  8
0
 10
11.50049606299213
 20
-55.28215748031496
 30
0.0
  0
VERTEX
  5
520
  8
0
 10
11.4728779527559
 20
-55.30462992125985
 30
0.0
  0
VERTEX
  5
521
  8
0
 10
11.44981102362205
 20
-55.32383070866142
 30
0.0
  0
VERTEX
  5
522
  8
0
 10
11.43073228346457
 20
-55.34004330708662
 30
0.0
  0
VERTEX
  5
523
  8
0
 10
11.41507086614173
 20
-55.35355511811024
 30
0.0
  0
VERTEX
  5
524
  8
0
 10
11.40227165354331
 20
-55.36465748031496
 30
0.0
  0
VERTEX
  5
525
  8
0
 10
11.39176377952756
 20
-55.37362992125984
 30
0.0
  0
VERTEX
  5
526
  8
0
 10
11.38298818897638
 20
-55.38075984251969
 30
0.0
  0
VERTEX
  5
527
  8
0
 10
11.37527559055118
 20
-55.38633464566929
 30
0.0
  0
VERTEX
  5
528
  8
0
 10
11.36751968503937
 20
-55.39061811023622
 30
0.0
  0
VERTEX
  5
529
  8
0
 10
11.35852362204724
 20
-55.39387401574803
 30
0.0
  0
VERTEX
  5
52A
  8
0
 10
11.34707086614173
 20
-55.39636220472441
 30
0.0
  0
VERTEX
  5
52B
  8
0
 10
11.33196062992126
 20
-55.39835039370079
 30
0.0
  0
VERTEX
  5
52C
  8
0
 10
11.31198818897638
 20
-55.40010236220473
 30
0.0
  0
VERTEX
  5
52D
  8
0
 10
11.28594488188976
 20
-55.40187401574803
 30
0.0
  0
VERTEX
  5
52E
  8
0
 10
11.25262204724409
 20
-55.40393700787401
 30
0.0
  0
VERTEX
  5
52F
  8
0
 10
11.21109448818898
 20
-55.40648425196851
 30
0.0
  0
VERTEX
  5
530
  8
0
 10
11.16154724409449
 20
-55.40944881889764
 30
0.0
  0
VERTEX
  5
531
  8
0
 10
11.10444094488189
 20
-55.41270078740158
 30
0.0
  0
VERTEX
  5
532
  8
0
 10
11.04024409448819
 20
-55.41610236220473
 30
0.0
  0
VERTEX
  5
533
  8
0
 10
10.96941338582677
 20
-55.41952362204724
 30
0.0
  0
VERTEX
  5
534
  8
0
 10
10.89241338582677
 20
-55.42282677165354
 30
0.0
  0
VERTEX
  5
535
  8
0
 10
10.80970866141732
 20
-55.42588188976378
 30
0.0
  0
VERTEX
  5
536
  8
0
 10
10.72175984251968
 20
-55.42855905511811
 30
0.0
  0
VERTEX
  5
537
  8
0
 10
10.62926771653543
 20
-55.43075590551181
 30
0.0
  0
VERTEX
  5
538
  8
0
 10
10.53385039370079
 20
-55.43249606299213
 30
0.0
  0
VERTEX
  5
539
  8
0
 10
10.43736614173228
 20
-55.43385039370079
 30
0.0
  0
VERTEX
  5
53A
  8
0
 10
10.34166929133858
 20
-55.43487401574803
 30
0.0
  0
VERTEX
  5
53B
  8
0
 10
10.24861811023622
 20
-55.43563385826771
 30
0.0
  0
VERTEX
  5
53C
  8
0
 10
10.16007086614173
 20
-55.43618897637796
 30
0.0
  0
VERTEX
  5
53D
  8
0
 10
10.07787795275591
 20
-55.43660236220472
 30
0.0
  0
VERTEX
  5
53E
  8
0
 10
10.00390157480315
 20
-55.43693700787401
 30
0.0
  0
VERTEX
  5
53F
  8
0
 10
9.93951968503937
 20
-55.43725196850394
 30
0.0
  0
VERTEX
  5
540
  8
0
 10
9.88421653543307
 20
-55.43761811023622
 30
0.0
  0
VERTEX
  5
541
  8
0
 10
9.836992125984253
 20
-55.43809055118111
 30
0.0
  0
VERTEX
  5
542
  8
0
 10
9.796862204724409
 20
-55.43874409448819
 30
0.0
  0
VERTEX
  5
543
  8
0
 10
9.762830708661417
 20
-55.43963385826772
 30
0.0
  0
VERTEX
  5
544
  8
0
 10
9.733905511811024
 20
-55.44083070866142
 30
0.0
  0
VERTEX
  5
545
  8
0
 10
9.709090551181102
 20
-55.4423937007874
 30
0.0
  0
VERTEX
  5
546
  8
0
 10
9.687393700787402
 20
-55.4443937007874
 30
0.0
  0
VERTEX
  5
547
  8
0
 10
9.667956692913386
 20
-55.44687795275591
 30
0.0
  0
VERTEX
  5
548
  8
0
 10
9.650437007874016
 20
-55.44982677165354
 30
0.0
  0
VERTEX
  5
549
  8
0
 10
9.634633858267717
 20
-55.4532125984252
 30
0.0
  0
VERTEX
  5
54A
  8
0
 10
9.620338582677165
 20
-55.45700787401575
 30
0.0
  0
VERTEX
  5
54B
  8
0
 10
9.607342519685039
 20
-55.4611811023622
 30
0.0
  0
VERTEX
  5
54C
  8
0
 10
9.595444881889764
 20
-55.4656968503937
 30
0.0
  0
VERTEX
  5
54D
  8
0
 10
9.584437007874016
 20
-55.47052755905512
 30
0.0
  0
VERTEX
  5
54E
  8
0
 10
9.574114173228347
 20
-55.47564566929134
 30
0.0
  0
VERTEX
  5
54F
  8
0
 10
9.564291338582677
 20
-55.48102755905512
 30
0.0
  0
VERTEX
  5
550
  8
0
 10
9.554877952755906
 20
-55.48669291338582
 30
0.0
  0
VERTEX
  5
551
  8
0
 10
9.5458031496063
 20
-55.49268110236221
 30
0.0
  0
VERTEX
  5
552
  8
0
 10
9.536996062992126
 20
-55.49901968503937
 30
0.0
  0
VERTEX
  5
553
  8
0
 10
9.519917322834646
 20
-55.51287007874016
 30
0.0
  0
VERTEX
  5
554
  8
0
 10
9.503086614173228
 20
-55.52851181102362
 30
0.0
  0
VERTEX
  5
555
  8
0
 10
9.48618503937008
 20
-55.54588188976378
 30
0.0
  0
VERTEX
  5
556
  8
0
 10
9.469822834645669
 20
-55.56369291338583
 30
0.0
  0
VERTEX
  5
557
  8
0
 10
9.454858267716535
 20
-55.58034251968504
 30
0.0
  0
VERTEX
  5
558
  8
0
 10
9.44213779527559
 20
-55.59422047244095
 30
0.0
  0
VERTEX
  5
559
  8
0
 10
9.43209842519685
 20
-55.60418503937008
 30
0.0
  0
VERTEX
  5
55A
  8
0
 10
9.423496062992125
 20
-55.61088976377953
 30
0.0
  0
VERTEX
  5
55B
  8
0
 10
9.419212598425197
 20
-55.61336220472441
 30
0.0
  0
VERTEX
  5
55C
  8
0
 10
9.414669291338583
 20
-55.61543700787401
 30
0.0
  0
VERTEX
  5
55D
  8
0
 10
9.409649606299213
 20
-55.61725196850394
 30
0.0
  0
VERTEX
  5
55E
  8
0
 10
9.403952755905511
 20
-55.61894488188976
 30
0.0
  0
VERTEX
  5
55F
  8
0
 10
9.389468503937008
 20
-55.62238582677166
 30
0.0
  0
VERTEX
  5
560
  8
0
 10
9.36844094488189
 20
-55.6261968503937
 30
0.0
  0
VERTEX
  5
561
  8
0
 10
9.337877952755905
 20
-55.63066929133858
 30
0.0
  0
VERTEX
  5
562
  8
0
 10
9.294791338582677
 20
-55.63611417322835
 30
0.0
  0
VERTEX
  5
563
  8
0
 10
9.057468503937008
 20
-55.66246850393701
 30
0.0
  0
VERTEX
  5
564
  8
0
 10
9.036433070866142
 20
-55.66487795275591
 30
0.0
  0
VERTEX
  5
565
  8
0
 10
9.019153543307086
 20
-55.66706692913386
 30
0.0
  0
VERTEX
  5
566
  8
0
 10
9.005
 20
-55.66924015748032
 30
0.0
  0
VERTEX
  5
567
  8
0
 10
8.993338582677165
 20
-55.67160236220472
 30
0.0
  0
VERTEX
  5
568
  8
0
 10
8.983531496062993
 20
-55.67436220472441
 30
0.0
  0
VERTEX
  5
569
  8
0
 10
8.974952755905512
 20
-55.67771653543307
 30
0.0
  0
VERTEX
  5
56A
  8
0
 10
8.96696062992126
 20
-55.6818779527559
 30
0.0
  0
VERTEX
  5
56B
  8
0
 10
8.958925196850394
 20
-55.68704724409449
 30
0.0
  0
VERTEX
  5
56C
  8
0
 10
8.950303149606299
 20
-55.69339763779528
 30
0.0
  0
VERTEX
  5
56D
  8
0
 10
8.940917322834645
 20
-55.70098031496063
 30
0.0
  0
VERTEX
  5
56E
  8
0
 10
8.930673228346457
 20
-55.70981496062992
 30
0.0
  0
VERTEX
  5
56F
  8
0
 10
8.91948031496063
 20
-55.71991732283465
 30
0.0
  0
VERTEX
  5
570
  8
0
 10
8.893905511811024
 20
-55.74400393700788
 30
0.0
  0
VERTEX
  5
571
  8
0
 10
8.863464566929133
 20
-55.77338582677165
 30
0.0
  0
VERTEX
  5
572
  8
0
 10
8.846291338582677
 20
-55.79002362204724
 30
0.0
  0
VERTEX
  5
573
  8
0
 10
8.828200787401574
 20
-55.80752362204724
 30
0.0
  0
VERTEX
  5
574
  8
0
 10
8.80966535433071
 20
-55.82538976377953
 30
0.0
  0
VERTEX
  5
575
  8
0
 10
8.791153543307086
 20
-55.84312992125984
 30
0.0
  0
VERTEX
  5
576
  8
0
 10
8.773145669291338
 20
-55.86023622047244
 30
0.0
  0
VERTEX
  5
577
  8
0
 10
8.756114173228346
 20
-55.87622047244094
 30
0.0
  0
VERTEX
  5
578
  8
0
 10
8.740531496062992
 20
-55.89057874015748
 30
0.0
  0
VERTEX
  5
579
  8
0
 10
8.726874015748031
 20
-55.90281889763779
 30
0.0
  0
VERTEX
  5
57A
  8
0
 10
8.715318897637795
 20
-55.91258661417323
 30
0.0
  0
VERTEX
  5
57B
  8
0
 10
8.704838582677166
 20
-55.92010236220472
 30
0.0
  0
VERTEX
  5
57C
  8
0
 10
8.694114173228346
 20
-55.92572834645669
 30
0.0
  0
VERTEX
  5
57D
  8
0
 10
8.681818897637795
 20
-55.92983070866142
 30
0.0
  0
VERTEX
  5
57E
  8
0
 10
8.66663779527559
 20
-55.93277559055118
 30
0.0
  0
VERTEX
  5
57F
  8
0
 10
8.647244094488189
 20
-55.93492125984252
 30
0.0
  0
VERTEX
  5
580
  8
0
 10
8.622314960629922
 20
-55.93664173228346
 30
0.0
  0
VERTEX
  5
581
  8
0
 10
8.590531496062992
 20
-55.93829527559055
 30
0.0
  0
VERTEX
  5
582
  8
0
 10
8.196
 20
-55.95658267716536
 30
0.0
  0
VERTEX
  5
583
  8
0
 10
8.154992125984252
 20
-55.95866929133858
 30
0.0
  0
VERTEX
  5
584
  8
0
 10
8.119326771653544
 20
-55.96058661417323
 30
0.0
  0
VERTEX
  5
585
  8
0
 10
8.088240157480316
 20
-55.96236614173228
 30
0.0
  0
VERTEX
  5
586
  8
0
 10
8.060972440944882
 20
-55.96402362204724
 30
0.0
  0
VERTEX
  5
587
  8
0
 10
8.03675590551181
 20
-55.96558267716535
 30
0.0
  0
VERTEX
  5
588
  8
0
 10
8.014830708661417
 20
-55.96707480314961
 30
0.0
  0
VERTEX
  5
589
  8
0
 10
7.994433070866141
 20
-55.96851574803149
 30
0.0
  0
VERTEX
  5
58A
  8
0
 10
7.974799212598425
 20
-55.96993700787402
 30
0.0
  0
VERTEX
  5
58B
  8
0
 10
7.834314960629921
 20
-56.64133858267716
 30
0.0
  0
VERTEX
  5
58C
  8
0
 10
12.38968503937008
 20
-56.64133858267716
 30
0.0
  0
VERTEX
  5
58D
  8
0
 10
12.4008031496063
 20
-56.62267322834646
 30
0.0
  0
VERTEX
  5
58E
  8
0
 10
12.41239763779527
 20
-56.60416929133859
 30
0.0
  0
VERTEX
  5
58F
  8
0
 10
12.42447244094488
 20
-56.58582677165354
 30
0.0
  0
VERTEX
  5
590
  8
0
 10
12.4370157480315
 20
-56.56765748031496
 30
0.0
  0
VERTEX
  5
591
  8
0
 10
12.45003149606299
 20
-56.54966141732284
 30
0.0
  0
VERTEX
  5
592
  8
0
 10
12.46351181102362
 20
-56.53184251968504
 30
0.0
  0
VERTEX
  5
593
  8
0
 10
12.47745275590551
 20
-56.51420866141732
 30
0.0
  0
VERTEX
  5
594
  8
0
 10
12.49185433070866
 20
-56.49676377952756
 30
0.0
  0
VERTEX
  5
595
  8
0
 10
12.49499606299213
 20
-56.49333464566929
 30
0.0
  0
VERTEX
  5
596
  8
0
 10
12.49851968503937
 20
-56.49038976377953
 30
0.0
  0
VERTEX
  5
597
  8
0
 10
12.50236614173228
 20
-56.48795669291339
 30
0.0
  0
VERTEX
  5
598
  8
0
 10
12.5064842519685
 20
-56.48605118110236
 30
0.0
  0
VERTEX
  5
599
  8
0
 10
12.51081102362205
 20
-56.4846968503937
 30
0.0
  0
VERTEX
  5
59A
  8
0
 10
12.51529527559055
 20
-56.48391732283464
 30
0.0
  0
VERTEX
  5
59B
  8
0
 10
12.51988582677165
 20
-56.48373228346457
 30
0.0
  0
VERTEX
  5
59C
  8
0
 10
12.5245157480315
 20
-56.48416141732284
 30
0.0
  0
VERTEX
  5
59D
  8
0
 10
12.52905118110236
 20
-56.48520472440945
 30
0.0
  0
VERTEX
  5
59E
  8
0
 10
12.53334645669291
 20
-56.48682283464567
 30
0.0
  0
VERTEX
  5
59F
  8
0
 10
12.53736220472441
 20
-56.48897244094488
 30
0.0
  0
VERTEX
  5
5A0
  8
0
 10
12.54104724409449
 20
-56.49161811023622
 30
0.0
  0
VERTEX
  5
5A1
  8
0
 10
12.54435826771654
 20
-56.49471653543307
 30
0.0
  0
VERTEX
  5
5A2
  8
0
 10
12.54724803149606
 20
-56.49823622047244
 30
0.0
  0
VERTEX
  5
5A3
  8
0
 10
12.54966929133858
 20
-56.50213779527559
 30
0.0
  0
VERTEX
  5
5A4
  8
0
 10
12.55157480314961
 20
-56.50638188976378
 30
0.0
  0
VERTEX
  5
5A5
  8
0
 10
12.5528779527559
 20
-56.51074015748031
 30
0.0
  0
VERTEX
  5
5A6
  8
0
 10
12.5535905511811
 20
-56.51516929133858
 30
0.0
  0
VERTEX
  5
5A7
  8
0
 10
12.55373228346457
 20
-56.51961811023622
 30
0.0
  0
VERTEX
  5
5A8
  8
0
 10
12.5533031496063
 20
-56.52403149606299
 30
0.0
  0
VERTEX
  5
5A9
  8
0
 10
12.55231889763779
 20
-56.52835039370079
 30
0.0
  0
VERTEX
  5
5AA
  8
0
 10
12.55078346456693
 20
-56.53252362204724
 30
0.0
  0
VERTEX
  5
5AB
  8
0
 10
12.5487125984252
 20
-56.53649606299213
 30
0.0
  0
VERTEX
  5
5AC
  8
0
 10
12.54611417322835
 20
-56.5402125984252
 30
0.0
  0
VERTEX
  5
5AD
  8
0
 10
12.47675590551181
 20
-56.63584251968504
 30
0.0
  0
VERTEX
  5
5AE
  8
0
 10
12.42218503937008
 20
-56.7353779527559
 30
0.0
  0
VERTEX
  5
5AF
  8
0
 10
12.38253543307087
 20
-56.83794488188976
 30
0.0
  0
VERTEX
  5
5B0
  8
0
 10
12.35795275590551
 20
-56.94266535433071
 30
0.0
  0
VERTEX
  5
5B1
  8
0
 10
12.34857874015748
 20
-57.04866535433071
 30
0.0
  0
VERTEX
  5
5B2
  8
0
 10
12.35455511811024
 20
-57.15506692913386
 30
0.0
  0
VERTEX
  5
5B3
  8
0
 10
12.37601968503937
 20
-57.26098818897638
 30
0.0
  0
VERTEX
  5
5B4
  8
0
 10
12.41311417322835
 20
-57.36556299212599
 30
0.0
  0
VERTEX
  5
5B5
  8
0
 10
12.41571653543307
 20
-57.37027559055118
 30
0.0
  0
VERTEX
  5
5B6
  8
0
 10
12.41758267716535
 20
-57.37524015748031
 30
0.0
  0
VERTEX
  5
5B7
  8
0
 10
12.41870866141732
 20
-57.38037007874016
 30
0.0
  0
VERTEX
  5
5B8
  8
0
 10
12.41910236220472
 20
-57.38558267716535
 30
0.0
  0
VERTEX
  5
5B9
  8
0
 10
12.41875196850394
 20
-57.39079921259842
 30
0.0
  0
VERTEX
  5
5BA
  8
0
 10
12.41766929133858
 20
-57.39593700787402
 30
0.0
  0
VERTEX
  5
5BB
  8
0
 10
12.41584251968504
 20
-57.40091338582677
 30
0.0
  0
VERTEX
  5
5BC
  8
0
 10
12.41327952755906
 20
-57.40564960629921
 30
0.0
  0
VERTEX
  5
5BD
  8
0
 10
12.41005511811024
 20
-57.40996456692913
 30
0.0
  0
VERTEX
  5
5BE
  8
0
 10
12.4063031496063
 20
-57.41370866141732
 30
0.0
  0
VERTEX
  5
5BF
  8
0
 10
12.40209842519685
 20
-57.41685433070866
 30
0.0
  0
VERTEX
  5
5C0
  8
0
 10
12.39750787401575
 20
-57.41935826771653
 30
0.0
  0
VERTEX
  5
5C1
  8
0
 10
12.39261417322835
 20
-57.42119291338582
 30
0.0
  0
VERTEX
  5
5C2
  8
0
 10
12.3874842519685
 20
-57.42232283464567
 30
0.0
  0
VERTEX
  5
5C3
  8
0
 10
12.3821968503937
 20
-57.4227125984252
 30
0.0
  0
VERTEX
  5
5C4
  8
0
 10
12.37682677165354
 20
-57.42233070866142
 30
0.0
  0
VERTEX
  5
5C5
  8
0
 10
12.37288582677165
 20
-57.42153937007874
 30
0.0
  0
VERTEX
  5
5C6
  8
0
 10
12.3691062992126
 20
-57.42034645669291
 30
0.0
  0
VERTEX
  5
5C7
  8
0
 10
12.36550787401575
 20
-57.41876771653543
 30
0.0
  0
VERTEX
  5
5C8
  8
0
 10
12.36211811023622
 20
-57.41683070866141
 30
0.0
  0
VERTEX
  5
5C9
  8
0
 10
12.35896062992126
 20
-57.41455511811024
 30
0.0
  0
VERTEX
  5
5CA
  8
0
 10
12.35606299212598
 20
-57.41196456692914
 30
0.0
  0
VERTEX
  5
5CB
  8
0
 10
12.35344881889764
 20
-57.40907874015748
 30
0.0
  0
VERTEX
  5
5CC
  8
0
 10
12.35114173228346
 20
-57.40592125984252
 30
0.0
  0
SEQEND
  5
5DB
  8
0
  0
POLYLINE
  5
7A
  8
0
 66
     1
 10
0.0
 20
0.0
 30
0.0
 70
     1
  0
VERTEX
  5
5CD
  8
0
 10
14.1186062992126
 20
-56.01221259842519
 30
0.0
  0
VERTEX
  5
5CE
  8
0
 10
14.1186062992126
 20
-56.01221259842519
 30
0.0
  0
SEQEND
  5
5DC
  8
0
  0
POLYLINE
  5
7B
  8
0
 66
     1
 10
0.0
 20
0.0
 30
0.0
 70
     1
  0
VERTEX
  5
5CF
  8
0
 10
14.27790157480315
 20
-56.0478188976378
 30
0.0
  0
VERTEX
  5
5D0
  8
0
 10
14.27790157480315
 20
-56.0478188976378
 30
0.0
  0
SEQEND
  5
5DD
  8
0
  0
ENDSEC
  0
EOF
